<svg width="378" height="145" viewBox="0 0 378 145" fill="none" xmlns="http://www.w3.org/2000/svg">
<path d="M33.5222 10.8225L39.8182 18.6448C40.8866 19.9676 41.6243 21.1505 42.0314 22.1935C42.4638 23.2364 42.68 24.2794 42.68 25.3224C42.68 27.332 42.0059 28.9474 40.6577 30.1684C39.3094 31.3895 37.5033 32 35.2393 32H24.7459L24.1735 24.3685H33.3314C33.5349 24.3685 33.713 24.3176 33.8656 24.2158C34.0182 24.1141 34.0946 23.9742 34.0946 23.7961C34.0946 23.5417 33.9419 23.2237 33.6367 22.8421L27.9893 16.1645L33.5222 10.8225ZM64.418 24.3685C64.6724 24.3685 64.7996 25.6404 64.7996 28.1842C64.7996 30.7281 64.6724 32 64.418 32H62.2049C61.8487 34.7728 60.793 36.9223 59.0378 38.4487C57.2825 40.0004 55.0058 40.7763 52.2075 40.7763H46.4839L45.9115 33.3355H53.5431C54.0773 33.3355 54.497 33.221 54.8023 32.9921C55.1075 32.7632 55.2602 32.4961 55.2602 32.1908V31.8092H54.3062C51.3554 31.8092 49.244 31.1987 47.972 29.9776C46.7255 28.7312 46.1023 26.6706 46.1023 23.7961V23.6053C46.1023 21.9772 46.433 20.5145 47.0944 19.2172C47.7812 17.8944 48.7225 16.8641 49.9181 16.1264C51.1391 15.3887 52.5382 15.0198 54.1154 15.0198C56.7102 15.0198 58.7198 15.8084 60.1443 17.3856C61.5943 18.9373 62.3193 21.1378 62.3193 23.9869V24.3685H64.418ZM52.9707 23.6053C52.9707 23.9869 53.0725 24.2794 53.276 24.4829C53.5049 24.661 53.8483 24.75 54.3062 24.75H55.4509V23.6053C55.4509 22.5878 55.0185 22.079 54.1536 22.079C53.772 22.079 53.4795 22.2062 53.276 22.4606C53.0725 22.6895 52.9707 23.0075 52.9707 23.4145V23.6053ZM67.4811 24.3685C70.8898 24.3685 73.7389 23.8597 76.0284 22.8421L76.4481 22.6514C76.3464 22.2952 76.2065 22.0536 76.0284 21.9264C75.8503 21.7737 75.6087 21.6974 75.3034 21.6974H66.7179L67.2903 14.4474H77.2113C78.6358 14.4474 79.8315 14.7654 80.7981 15.4014C81.7902 16.0374 82.6424 17.1058 83.3547 18.6066C84.0924 20.0821 84.7792 22.1299 85.4152 24.75L76.6389 29.7105C75.2398 30.5246 73.828 31.1097 72.4034 31.4658C70.9789 31.8219 69.2109 32 67.0995 32H64.4285C64.1741 32 64.0469 30.7281 64.0469 28.1842C64.0469 26.5562 64.085 25.5132 64.1613 25.0553C64.2377 24.5974 64.3267 24.3685 64.4285 24.3685H67.4811ZM70.5337 11.7764V6.24353H77.7837V11.7764H70.5337ZM104.512 40.7763C101.18 40.7763 98.5593 39.7842 96.6515 37.8C94.769 35.8412 93.8278 33.1447 93.8278 29.7105V21.5066H101.078V29.5197C101.078 30.7662 101.37 31.682 101.955 32.2671C102.54 32.8522 103.456 33.1447 104.703 33.1447H106.229C107.45 33.1447 108.391 32.8776 109.053 32.3434C109.714 31.8092 110.045 31.0588 110.045 30.0921V17.6909H117.295V29.5197C117.295 31.682 116.85 33.6153 115.959 35.3197C115.069 37.0241 113.784 38.3596 112.105 39.3263C110.426 40.2929 108.468 40.7763 106.229 40.7763H104.512ZM100.315 18.6448V13.1119H107.565V18.6448H100.315ZM129.899 24.3685C130.026 24.3685 130.115 24.5974 130.166 25.0553C130.242 25.5132 130.28 26.5562 130.28 28.1842C130.28 29.8123 130.242 30.8553 130.166 31.3132C130.115 31.7711 130.026 32 129.899 32H127.991C125.549 32 123.692 31.3259 122.42 29.9776C121.173 28.6294 120.55 26.6961 120.55 24.1777V7.57905H127.8V23.6053C127.8 23.8851 127.851 24.0886 127.953 24.2158C128.08 24.3176 128.283 24.3685 128.563 24.3685H129.899ZM133.144 24.3685C133.652 24.3685 133.907 24.1777 133.907 23.7961V17.6909H141.157V23.7961C141.157 24.1777 141.411 24.3685 141.92 24.3685H142.683C142.937 24.3685 143.065 25.6404 143.065 28.1842C143.065 30.7281 142.937 32 142.683 32H141.538C139.656 32 138.257 31.5548 137.341 30.6645C136.858 31.1478 136.298 31.4912 135.662 31.6947C135.026 31.8982 134.187 32 133.144 32H129.9C129.646 32 129.519 30.7281 129.519 28.1842C129.519 26.5562 129.557 25.5132 129.633 25.0553C129.709 24.5974 129.798 24.3685 129.9 24.3685H133.144ZM130.282 15.4014V9.86852H141.729V15.4014H130.282ZM144.78 24.3685C145.289 24.3685 145.543 24.1777 145.543 23.7961V17.6909H152.603V23.7961C152.603 23.9487 152.653 24.0886 152.755 24.2158C152.882 24.3176 153.048 24.3685 153.251 24.3685C153.709 24.3685 153.938 24.1777 153.938 23.7961V17.6909H160.997V23.7579C160.997 23.936 161.061 24.0886 161.188 24.2158C161.315 24.3176 161.468 24.3685 161.646 24.3685C161.824 24.3685 161.977 24.3176 162.104 24.2158C162.257 24.0886 162.333 23.936 162.333 23.7579V17.6909H169.392V24.1777C169.392 26.5689 168.68 28.4768 167.255 29.9013C165.856 31.3004 163.961 32 161.57 32C159.687 32 158.288 31.5548 157.372 30.6645C156.889 31.1478 156.329 31.4912 155.693 31.6947C155.057 31.8982 154.218 32 153.175 32C151.293 32 149.893 31.5548 148.978 30.6645C148.494 31.1478 147.935 31.4912 147.299 31.6947C146.663 31.8982 145.823 32 144.78 32H142.682C142.427 32 142.3 30.7281 142.3 28.1842C142.3 26.5562 142.338 25.5132 142.415 25.0553C142.491 24.5974 142.58 24.3685 142.682 24.3685H144.78ZM189.052 29.9013C189.052 33.3355 188.149 36.0066 186.343 37.9144C184.562 39.8223 182.095 40.7763 178.94 40.7763H173.217L172.644 33.3355H180.276C180.81 33.3355 181.23 33.221 181.535 32.9921C181.84 32.7632 181.993 32.4961 181.993 32.1908V31.8092H181.039C178.088 31.8092 175.977 31.1987 174.705 29.9776C173.458 28.7312 172.835 26.6706 172.835 23.7961V23.6053C172.835 21.9772 173.166 20.5145 173.827 19.2172C174.514 17.8944 175.455 16.8641 176.651 16.1264C177.872 15.3887 179.271 15.0198 180.848 15.0198C183.443 15.0198 185.453 15.8084 186.877 17.3856C188.327 18.9373 189.052 21.1378 189.052 23.9869V29.9013ZM179.704 23.6053C179.704 23.9869 179.805 24.2794 180.009 24.4829C180.238 24.661 180.581 24.75 181.039 24.75H182.184V23.6053C182.184 22.5878 181.751 22.079 180.886 22.079C180.505 22.079 180.212 22.2062 180.009 22.4606C179.805 22.6895 179.704 23.0075 179.704 23.4145V23.6053ZM201.058 10.8225L207.354 18.6448C208.423 19.9676 209.161 21.1505 209.568 22.1935C210 23.2364 210.216 24.2794 210.216 25.3224C210.216 27.332 209.542 28.9474 208.194 30.1684C206.846 31.3895 205.04 32 202.776 32H192.282L191.71 24.3685H200.868C201.071 24.3685 201.249 24.3176 201.402 24.2158C201.555 24.1141 201.631 23.9742 201.631 23.7961C201.631 23.5417 201.478 23.2237 201.173 22.8421L195.526 16.1645L201.058 10.8225ZM230.061 29.9013C230.061 31.9873 229.629 33.857 228.764 35.5105C227.924 37.164 226.703 38.4487 225.101 39.3644C223.524 40.3057 221.679 40.7763 219.568 40.7763H217.66L217.088 33.1447H218.996C221.539 33.1447 222.811 32.1272 222.811 30.0921V17.6909H230.061V29.9013ZM222.811 15.4014V9.86852H230.061V15.4014H222.811ZM233.309 7.57905H240.559V32H233.309V7.57905ZM267.486 24.3685C267.715 24.3685 267.893 24.3049 268.02 24.1777C268.173 24.025 268.249 23.8342 268.249 23.6053V17.6909H275.499V24.1777C275.499 26.6452 274.825 28.5658 273.476 29.9395C272.128 31.3132 270.258 32 267.867 32H256.992C254.601 32 252.757 31.3513 251.459 30.054C250.188 28.7312 249.552 26.836 249.552 24.3685V17.6909H256.802V23.4145C256.802 23.7198 256.865 23.9614 256.992 24.1395C257.145 24.2921 257.399 24.3685 257.755 24.3685H267.486ZM256.802 15.4014V9.86852H268.249V15.4014H256.802ZM297.24 24.3685C297.494 24.3685 297.621 25.6404 297.621 28.1842C297.621 30.7281 297.494 32 297.24 32H295.027C294.67 34.7728 293.615 36.9223 291.86 38.4487C290.104 40.0004 287.828 40.7763 285.029 40.7763H279.306L278.733 33.3355H286.365C286.899 33.3355 287.319 33.221 287.624 32.9921C287.929 32.7632 288.082 32.4961 288.082 32.1908V31.8092H287.128C284.177 31.8092 282.066 31.1987 280.794 29.9776C279.547 28.7312 278.924 26.6706 278.924 23.7961V23.6053C278.924 21.9772 279.255 20.5145 279.916 19.2172C280.603 17.8944 281.544 16.8641 282.74 16.1264C283.961 15.3887 285.36 15.0198 286.937 15.0198C289.532 15.0198 291.542 15.8084 292.966 17.3856C294.416 18.9373 295.141 21.1378 295.141 23.9869V24.3685H297.24ZM285.792 23.6053C285.792 23.9869 285.894 24.2794 286.098 24.4829C286.327 24.661 286.67 24.75 287.128 24.75H288.273V23.6053C288.273 22.5878 287.84 22.079 286.975 22.079C286.594 22.079 286.301 22.2062 286.098 22.4606C285.894 22.6895 285.792 23.0075 285.792 23.4145V23.6053ZM302.974 24.3685C303.228 24.3685 303.355 25.6404 303.355 28.1842C303.355 29.8377 303.317 30.8934 303.241 31.3513C303.165 31.7838 303.076 32 302.974 32H297.25C296.996 32 296.869 30.7281 296.869 28.1842C296.869 26.5562 296.907 25.5132 296.983 25.0553C297.059 24.5974 297.148 24.3685 297.25 24.3685H302.974ZM308.712 24.3685C308.967 24.3685 309.094 25.6404 309.094 28.1842C309.094 29.8377 309.056 30.8934 308.98 31.3513C308.903 31.7838 308.814 32 308.712 32H302.989C302.734 32 302.607 30.7281 302.607 28.1842C302.607 26.5562 302.645 25.5132 302.722 25.0553C302.798 24.5974 302.887 24.3685 302.989 24.3685H308.712ZM310.979 24.3685C310.877 23.8597 310.826 23.4145 310.826 23.0329C310.826 21.4557 311.157 20.0439 311.818 18.7974C312.48 17.5509 313.408 16.5843 314.604 15.8974C315.799 15.1852 317.147 14.829 318.648 14.829C319.691 14.829 320.709 14.9817 321.701 15.2869C322.718 15.5922 323.8 16.0755 324.944 16.7369L322.769 22.9566C321.04 22.3715 319.793 22.079 319.03 22.079C318.623 22.079 318.292 22.1807 318.038 22.3843C317.809 22.5623 317.694 22.8421 317.694 23.2237C317.694 23.9869 318.14 24.3685 319.03 24.3685H325.708L325.135 32H308.727C308.473 32 308.346 30.7281 308.346 28.1842C308.346 26.5562 308.384 25.5132 308.46 25.0553C308.537 24.5974 308.626 24.3685 308.727 24.3685H310.979ZM337.741 10.8225L344.037 18.6448C345.105 19.9676 345.843 21.1505 346.25 22.1935C346.682 23.2364 346.898 24.2794 346.898 25.3224C346.898 27.332 346.224 28.9474 344.876 30.1684C343.528 31.3895 341.722 32 339.458 32H328.964L328.392 24.3685H337.55C337.753 24.3685 337.931 24.3176 338.084 24.2158C338.237 24.1141 338.313 23.9742 338.313 23.7961C338.313 23.5417 338.16 23.2237 337.855 22.8421L332.208 16.1645L337.741 10.8225ZM365.217 24.3685C365.344 24.3685 365.433 24.5974 365.484 25.0553C365.561 25.5132 365.599 26.5562 365.599 28.1842C365.599 29.8123 365.561 30.8553 365.484 31.3132C365.433 31.7711 365.344 32 365.217 32H363.309C360.867 32 359.01 31.3259 357.738 29.9776C356.492 28.6294 355.869 26.6961 355.869 24.1777V7.57905H363.118V23.6053C363.118 23.8851 363.169 24.0886 363.271 24.2158C363.398 24.3176 363.602 24.3685 363.882 24.3685H365.217ZM376.475 24.1777C376.475 26.6452 375.801 28.5658 374.453 29.9395C373.105 31.3132 371.235 32 368.844 32H365.219C364.964 32 364.837 30.7281 364.837 28.1842C364.837 26.5562 364.875 25.5132 364.952 25.0553C365.028 24.5974 365.117 24.3685 365.219 24.3685H368.462C368.691 24.3685 368.869 24.3049 368.996 24.1777C369.149 24.025 369.225 23.8342 369.225 23.6053V17.6909H376.475V24.1777ZM364.646 39.8223V34.2895H371.896V39.8223H364.646Z" fill="#284154"/>
<path d="M30.9331 81.6048C31.1366 81.6048 31.3147 81.5539 31.4673 81.4522C31.62 81.3504 31.6963 81.2105 31.6963 81.0324C31.6963 80.8035 31.6327 80.5491 31.5055 80.2693L28.0713 71.493L34.9397 68.2496L39.5186 80.8416C39.5949 81.0451 39.7221 81.2232 39.9002 81.3758C40.1037 81.5285 40.3072 81.6048 40.5107 81.6048H41.8081C42.0625 81.6048 42.1897 82.8767 42.1897 85.4206C42.1897 87.0741 42.1515 88.1298 42.0752 88.5876C41.9989 89.0201 41.9098 89.2363 41.8081 89.2363H39.862C38.0813 89.2363 36.7585 88.7912 35.8936 87.9008C35.2831 88.435 34.698 88.7912 34.1384 88.9692C33.6042 89.1473 33.0445 89.2363 32.4594 89.2363H22.92L22.3476 81.6048H30.9331ZM45.053 81.5666C45.5618 81.5666 45.8161 81.3758 45.8161 80.9943V74.889H53.0661V80.9943C53.0661 81.3758 53.3205 81.5666 53.8293 81.5666H54.5924C54.8468 81.5666 54.974 82.8385 54.974 85.3824C54.974 87.9262 54.8468 89.1982 54.5924 89.1982H53.4477C51.5652 89.1982 50.1661 88.753 49.2503 87.8626C48.767 88.346 48.2074 88.6894 47.5714 88.8929C46.9354 89.0964 46.096 89.1982 45.053 89.1982H41.8096C41.5552 89.1982 41.428 87.9262 41.428 85.3824C41.428 83.7543 41.4662 82.7114 41.5425 82.2535C41.6188 81.7956 41.7078 81.5666 41.8096 81.5666H45.053ZM37.6122 97.0205V91.4876H49.0595V97.0205H37.6122ZM57.8343 81.6048C58.3431 81.6048 58.5975 81.414 58.5975 81.0324V74.9272H65.8475V81.0324C65.8475 81.414 66.1018 81.6048 66.6106 81.6048H67.3738C67.6281 81.6048 67.7553 82.8767 67.7553 85.4206C67.7553 87.9644 67.6281 89.2363 67.3738 89.2363H66.229C64.3466 89.2363 62.9475 88.7912 62.0317 87.9008C61.5483 88.3841 60.9887 88.7276 60.3527 88.9311C59.7168 89.1346 58.8773 89.2363 57.8343 89.2363H54.5909C54.3365 89.2363 54.2093 87.9644 54.2093 85.4206C54.2093 83.7925 54.2475 82.7495 54.3238 82.2916C54.4001 81.8337 54.4892 81.6048 54.5909 81.6048H57.8343ZM57.0712 72.6377V67.1048H64.3211V72.6377H57.0712ZM75.9578 81.6048C76.1867 81.6048 76.3648 81.5539 76.492 81.4522C76.6446 81.325 76.7209 81.185 76.7209 81.0324C76.7209 80.778 76.5301 80.4601 76.1485 80.0785L68.8986 73.0193V67.6772L84.5432 61.9536L86.2603 69.2035L78.6288 72.0654L81.6814 75.118C83.0551 76.4916 83.9709 77.6873 84.4288 78.7048C84.8867 79.7223 85.1156 80.8798 85.1156 82.1771C85.1156 84.5429 84.3906 86.3109 82.9406 87.4811C81.5161 88.6512 79.6336 89.2363 77.2933 89.2363H67.3723C67.1179 89.2363 66.9907 87.9644 66.9907 85.4206C66.9907 83.7925 67.0288 82.7495 67.1052 82.2916C67.1815 81.8337 67.2705 81.6048 67.3723 81.6048H75.9578ZM112.209 81.6048C112.718 81.6048 112.972 81.414 112.972 81.0324V74.9272H120.222V81.0324C120.222 81.414 120.477 81.6048 120.985 81.6048H121.749C122.003 81.6048 122.13 82.8767 122.13 85.4206C122.13 87.9644 122.003 89.2363 121.749 89.2363H120.604C118.721 89.2363 117.322 88.7912 116.406 87.9008C115.923 88.3841 115.363 88.7276 114.728 88.9311C114.092 89.1346 113.252 89.2363 112.209 89.2363H101.716C99.3245 89.2363 97.4802 88.5876 96.1828 87.2903C94.9109 85.9675 94.275 84.0723 94.275 81.6048V74.9272H101.525V80.6508C101.525 80.9561 101.589 81.1978 101.716 81.3758C101.868 81.5285 102.123 81.6048 102.479 81.6048H112.209ZM101.525 72.6377V67.1048H112.972V72.6377H101.525ZM124.411 81.6048C124.156 80.8416 124.029 80.0149 124.029 79.1245C124.029 77.8017 124.334 76.5298 124.945 75.3088C125.581 74.0623 126.509 73.0575 127.73 72.2943C128.977 71.5057 130.478 71.1114 132.233 71.1114C134.802 71.1114 136.748 71.8618 138.071 73.3627C139.394 74.8381 140.055 77.0131 140.055 79.8877V81.414C140.055 83.8815 139.241 85.8021 137.613 87.1758C136.011 88.5495 133.772 89.2363 130.897 89.2363H121.74C121.485 89.2363 121.358 87.9644 121.358 85.4206C121.358 83.7925 121.396 82.7495 121.472 82.2916C121.549 81.8337 121.638 81.6048 121.74 81.6048H124.22H124.411ZM133.187 81.7956C133.263 81.6175 133.314 81.3758 133.34 81.0706C133.365 80.7653 133.378 80.4346 133.378 80.0785V79.8877C133.378 79.3789 133.263 78.9719 133.034 78.6666C132.831 78.3359 132.5 78.1706 132.042 78.1706C131.711 78.1706 131.432 78.2851 131.203 78.514C130.999 78.7175 130.897 78.9846 130.897 79.3153C130.897 79.9004 131.088 80.4219 131.47 80.8798C131.877 81.3122 132.449 81.6175 133.187 81.7956ZM128.608 69.0127V63.4799H135.858V69.0127H128.608ZM152.629 81.6048C152.757 81.6048 152.846 81.8337 152.897 82.2916C152.973 82.7495 153.011 83.7925 153.011 85.4206C153.011 87.0486 152.973 88.0916 152.897 88.5495C152.846 89.0074 152.757 89.2363 152.629 89.2363H150.722C148.279 89.2363 146.422 88.5622 145.151 87.214C143.904 85.8657 143.281 83.9324 143.281 81.414V64.8154H150.531V80.8416C150.531 81.1215 150.582 81.325 150.683 81.4522C150.811 81.5539 151.014 81.6048 151.294 81.6048H152.629ZM161.598 81.6048C161.827 81.6048 162.005 81.5412 162.132 81.414C162.285 81.2614 162.361 81.0706 162.361 80.8416V74.9272H169.611V81.414C169.611 83.8815 168.937 85.8021 167.589 87.1758C166.241 88.5495 164.371 89.2363 161.98 89.2363H152.631C152.377 89.2363 152.249 87.9644 152.249 85.4206C152.249 83.7925 152.288 82.7495 152.364 82.2916C152.44 81.8337 152.529 81.6048 152.631 81.6048H161.598ZM151.868 97.0587V91.5258H163.315V97.0587H151.868ZM180.315 87.1377C180.315 89.2236 179.882 91.0933 179.017 92.7468C178.178 94.4003 176.957 95.685 175.354 96.6008C173.777 97.542 171.933 98.0126 169.821 98.0126H167.913L167.341 90.3811H169.249C171.793 90.3811 173.065 89.3635 173.065 87.3284V74.9272H180.315V87.1377ZM192.339 68.0588L198.635 75.8811C199.703 77.2039 200.441 78.3868 200.848 79.4298C201.28 80.4728 201.497 81.5157 201.497 82.5587C201.497 84.5684 200.823 86.1837 199.474 87.4048C198.126 88.6258 196.32 89.2363 194.056 89.2363H183.563L182.99 81.6048H192.148C192.352 81.6048 192.53 81.5539 192.682 81.4522C192.835 81.3504 192.911 81.2105 192.911 81.0324C192.911 80.778 192.759 80.4601 192.453 80.0785L186.806 73.4009L192.339 68.0588ZM227.828 89.0455C227.828 88.7912 227.752 88.6004 227.6 88.4732C227.472 88.346 227.294 88.2824 227.065 88.2824H219.625V80.0785C219.625 77.5855 220.324 75.6013 221.723 74.1259C223.148 72.625 225.056 71.8746 227.447 71.8746H233.743L234.125 79.3153H227.638C227.434 79.3153 227.256 79.3789 227.104 79.5061C226.951 79.6333 226.875 79.8241 226.875 80.0785V80.8416H228.21C232.789 80.8416 235.078 83.1311 235.078 87.71C235.078 89.6179 234.608 91.3477 233.667 92.8995C232.751 94.4767 231.453 95.7231 229.775 96.6389C228.096 97.5547 226.175 98.0126 224.013 98.0126H220.96C217.628 98.0126 215.008 97.0205 213.1 95.0363C211.217 93.0775 210.276 90.3811 210.276 86.9469V78.743H217.526V86.7561C217.526 88.0026 217.818 88.9183 218.404 89.5034C218.989 90.0885 219.904 90.3811 221.151 90.3811H224.394C226.684 90.3811 227.828 89.9359 227.828 89.0455ZM246.353 81.6048C246.556 81.6048 246.734 81.5539 246.887 81.4522C247.04 81.3504 247.116 81.2105 247.116 81.0324C247.116 80.8035 247.052 80.5491 246.925 80.2693L243.491 71.493L250.359 68.2496L254.938 80.8416C255.015 81.0451 255.142 81.2232 255.32 81.3758C255.523 81.5285 255.727 81.6048 255.93 81.6048H257.228C257.482 81.6048 257.609 82.8767 257.609 85.4206C257.609 87.0741 257.571 88.1298 257.495 88.5876C257.419 89.0201 257.33 89.2363 257.228 89.2363H255.282C253.501 89.2363 252.178 88.7912 251.313 87.9008C250.703 88.435 250.118 88.7912 249.558 88.9692C249.024 89.1473 248.464 89.2363 247.879 89.2363H238.34L237.767 81.6048H246.353ZM259.519 81.6048C259.392 80.9688 259.328 80.2693 259.328 79.5061C259.328 78.0561 259.684 76.7333 260.396 75.5377C261.134 74.3421 262.126 73.4009 263.373 72.714C264.645 72.0272 266.031 71.6838 267.532 71.6838C269.084 71.6838 270.47 72.0145 271.691 72.6759C272.912 73.3373 273.853 74.2531 274.515 75.4232C275.202 76.568 275.545 77.8653 275.545 79.3153C275.545 80.1548 275.418 80.9179 275.163 81.6048H277.834C277.962 81.6048 278.051 81.8337 278.102 82.2916C278.178 82.7495 278.216 83.7925 278.216 85.4206C278.216 87.0486 278.178 88.0916 278.102 88.5495C278.051 89.0074 277.962 89.2363 277.834 89.2363H272.492C271.22 89.2363 270.177 89.1727 269.363 89.0455C268.575 88.9183 267.901 88.6894 267.341 88.3587C266.374 88.9438 264.785 89.2363 262.571 89.2363H257.229C256.975 89.2363 256.848 87.9644 256.848 85.4206C256.848 82.8767 256.975 81.6048 257.229 81.6048H259.519ZM267.532 78.743C267.125 78.743 266.794 78.8574 266.54 79.0864C266.311 79.3153 266.196 79.5824 266.196 79.8877C266.196 80.2693 266.298 80.6127 266.502 80.9179C266.705 81.2232 267.049 81.5157 267.532 81.7956C268.015 81.5157 268.359 81.2232 268.562 80.9179C268.766 80.6127 268.867 80.2693 268.867 79.8877C268.867 79.5824 268.74 79.3153 268.486 79.0864C268.257 78.8574 267.939 78.743 267.532 78.743ZM261.808 69.0127V63.4799H273.256V69.0127H261.808ZM289.092 81.414C289.092 83.8815 288.418 85.8021 287.07 87.1758C285.722 88.5495 283.852 89.2363 281.461 89.2363H277.836C277.582 89.2363 277.454 87.9644 277.454 85.4206C277.454 83.7925 277.493 82.7495 277.569 82.2916C277.645 81.8337 277.734 81.6048 277.836 81.6048H281.079C281.308 81.6048 281.486 81.5412 281.614 81.414C281.766 81.2614 281.843 81.0706 281.843 80.8416V74.9272H289.092V81.414ZM280.316 72.6377V67.1048H287.566V72.6377H280.316ZM304.751 79.5061C304.751 80.2693 305.132 80.6508 305.895 80.6508C306.658 80.6508 307.04 80.2693 307.04 79.5061V78.1706H306.277C305.717 78.1706 305.323 78.2723 305.094 78.4758C304.865 78.6794 304.751 79.0228 304.751 79.5061ZM313.908 80.8416C313.908 81.0451 313.972 81.2232 314.099 81.3758C314.226 81.5285 314.417 81.6048 314.672 81.6048H316.198C316.452 81.6048 316.579 82.8767 316.579 85.4206C316.579 87.9644 316.452 89.2363 316.198 89.2363H314.481C311.937 89.2363 310.283 88.2824 309.52 86.3745C308.452 87.2648 306.926 87.71 304.941 87.71C302.754 87.71 301.024 87.0486 299.752 85.7258C298.505 84.3776 297.882 82.3679 297.882 79.6969C297.882 78.2723 298.187 76.8987 298.798 75.5759C299.434 74.2531 300.324 73.1846 301.469 72.3706C302.639 71.5311 303.987 71.1114 305.514 71.1114H306.658V68.6312H313.908V80.8416ZM327.437 81.414C327.437 83.8815 326.762 85.8021 325.414 87.1758C324.066 88.5495 322.196 89.2363 319.805 89.2363H316.18C315.926 89.2363 315.798 87.9644 315.798 85.4206C315.798 83.7925 315.837 82.7495 315.913 82.2916C315.989 81.8337 316.078 81.6048 316.18 81.6048H319.423C319.652 81.6048 319.83 81.5412 319.958 81.414C320.11 81.2614 320.187 81.0706 320.187 80.8416V74.9272H327.437V81.414ZM313.509 97.0587V91.5258H324.956V97.0587H313.509ZM338.692 81.6048C338.895 81.6048 339.073 81.5539 339.226 81.4522C339.378 81.3504 339.455 81.2105 339.455 81.0324C339.455 80.8035 339.391 80.5491 339.264 80.2693L335.83 71.493L342.698 68.2496L347.277 80.8416C347.353 81.0451 347.481 81.2232 347.659 81.3758C347.862 81.5285 348.066 81.6048 348.269 81.6048H349.567C349.821 81.6048 349.948 82.8767 349.948 85.4206C349.948 87.0741 349.91 88.1298 349.834 88.5876C349.757 89.0201 349.668 89.2363 349.567 89.2363H347.62C345.84 89.2363 344.517 88.7912 343.652 87.9008C343.042 88.435 342.456 88.7912 341.897 88.9692C341.363 89.1473 340.803 89.2363 340.218 89.2363H330.678L330.106 81.6048H338.692ZM359.375 81.7956C359.807 81.5157 360.125 81.2232 360.329 80.9179C360.532 80.6127 360.634 80.2693 360.634 79.8877C360.634 79.557 360.519 79.2899 360.29 79.0864C360.061 78.8574 359.756 78.743 359.375 78.743C358.993 78.743 358.688 78.8574 358.459 79.0864C358.255 79.2899 358.154 79.557 358.154 79.8877C358.154 80.6 358.561 81.2359 359.375 81.7956ZM352.048 81.6048C351.87 81.2486 351.781 80.5491 351.781 79.5061C351.781 78.1833 352.125 76.975 352.811 75.8811C353.524 74.7618 354.465 73.8842 355.635 73.2482C356.831 72.5868 358.115 72.2561 359.489 72.2561C360.303 72.2561 361.13 72.3833 361.969 72.6377L366.167 68.4404L374.18 76.8351C375.706 78.4631 376.469 80.2438 376.469 82.1771C376.469 83.4999 376.151 84.6956 375.515 85.764C374.905 86.8324 374.014 87.6846 372.844 88.3205C371.674 88.9311 370.313 89.2363 368.761 89.2363H363.915C362.771 89.2363 361.855 89.2109 361.168 89.16C360.481 89.1091 359.845 88.9819 359.26 88.7784C358.09 89.0837 356.322 89.2363 353.956 89.2363H349.568C349.314 89.2363 349.186 87.9644 349.186 85.4206C349.186 83.7925 349.225 82.7495 349.301 82.2916C349.377 81.8337 349.466 81.6048 349.568 81.6048H352.048ZM368.075 81.6048C368.405 81.6048 368.647 81.5539 368.8 81.4522C368.952 81.325 369.028 81.1723 369.028 80.9943C369.028 80.7653 368.838 80.4601 368.456 80.0785L367.006 78.6666V78.9337C367.006 79.9004 366.853 80.7908 366.548 81.6048H368.075Z" fill="#284154"/>
<path d="M34.2709 138.975C33.6476 139.115 33.0816 139.185 32.5729 139.185C31.5808 139.185 30.7222 138.963 29.9972 138.517C29.2722 138.072 28.7189 137.443 28.3373 136.629C27.9558 135.815 27.765 134.867 27.765 133.786C27.765 132.565 28.0066 131.267 28.49 129.894L30.1689 130.561C29.7365 131.783 29.5202 132.876 29.5202 133.843C29.5202 134.911 29.781 135.738 30.3025 136.323C30.8367 136.908 31.5935 137.201 32.5729 137.201C33.018 137.201 33.4505 137.15 33.8702 137.048C35.1421 136.768 36.0897 136.463 36.713 136.133C37.3489 135.815 37.6351 135.369 37.5715 134.797L37.5334 134.473L35.2439 134.473C34.2899 134.473 33.5141 134.193 32.9163 133.633C32.3185 133.061 31.975 132.279 31.886 131.286C31.8351 130.561 31.9496 129.875 32.2294 129.226C32.5093 128.565 32.9226 128.03 33.4696 127.623C34.0165 127.216 34.6461 127.013 35.3584 127.013C36.3377 127.013 37.1581 127.388 37.8195 128.138C38.4937 128.889 38.8943 129.875 39.0215 131.096L39.1741 132.488L40.3189 132.488L40.4333 133.481L40.3189 134.473L39.3458 134.473L39.3649 134.892C39.3649 135.706 39.1869 136.361 38.8307 136.858C38.4873 137.366 37.9531 137.773 37.2281 138.079C36.5031 138.397 35.5174 138.695 34.2709 138.975ZM32.4965 123.865L34.3853 123.865L34.3853 125.754L32.4965 125.754L32.4965 123.865ZM33.6603 130.943C33.6603 131.465 33.7812 131.852 34.0228 132.107C34.2772 132.361 34.6842 132.488 35.2439 132.488L37.3807 132.488L37.2472 131.325C37.1709 130.574 36.9674 130.002 36.6367 129.608C36.3059 129.201 35.8799 128.997 35.3584 128.997C34.8369 128.997 34.4235 129.188 34.1182 129.569C33.813 129.951 33.6603 130.409 33.6603 130.943ZM36.0643 123.865L37.934 123.865L37.934 125.754L36.0643 125.754L36.0643 123.865ZM40.1305 132.488L43.9462 132.488C44.684 132.488 45.2309 132.463 45.587 132.412C45.9559 132.361 46.2103 132.266 46.3502 132.126C46.4901 131.973 46.56 131.751 46.56 131.458C46.56 131.306 46.5537 131.185 46.541 131.096C45.7651 131.185 45.0147 131.229 44.2897 131.229C43.323 131.229 42.5535 130.943 41.9811 130.371C41.4088 129.798 41.1226 129.022 41.1226 128.043C41.1226 127.344 41.2498 126.701 41.5041 126.116C41.7585 125.518 42.1401 125.041 42.6489 124.685C43.1576 124.329 43.7682 124.151 44.4804 124.151C45.4471 124.151 46.2484 124.507 46.8844 125.219C47.5331 125.932 47.9083 126.873 48.01 128.043L48.2199 130.886C48.2453 131.217 48.2581 131.445 48.2581 131.573C48.2581 132.272 48.1245 132.832 47.8574 133.252C47.603 133.659 47.1578 133.964 46.5219 134.167C45.8986 134.371 45.0274 134.473 43.9081 134.473L40.1305 134.473L40.1305 132.488ZM42.7252 127.871C42.7252 128.342 42.8587 128.717 43.1258 128.997C43.4057 129.264 43.7936 129.398 44.2897 129.398C45.1037 129.398 45.8032 129.347 46.3883 129.245L46.2929 128.196C46.2039 127.483 45.994 126.93 45.6633 126.536C45.3326 126.129 44.9129 125.925 44.4041 125.925C43.8826 125.925 43.4693 126.116 43.164 126.498C42.8715 126.879 42.7252 127.337 42.7252 127.871ZM43.3739 120.183L45.4916 120.183L45.4916 122.281L43.3739 122.281L43.3739 120.183ZM51.1138 137.449C52.7418 137.106 53.8675 136.832 54.4907 136.629C55.1267 136.438 55.5655 136.183 55.8072 135.865C56.0616 135.56 56.1633 135.096 56.1124 134.473L53.7657 134.473C52.7355 134.473 51.9151 134.155 51.3046 133.519C50.694 132.87 50.3888 132.005 50.3888 130.924C50.3888 130.25 50.5351 129.614 50.8276 129.016C51.1201 128.406 51.5335 127.922 52.0677 127.566C52.6019 127.197 53.2061 127.013 53.8802 127.013C54.8596 127.013 55.68 127.394 56.3414 128.158C57.0028 128.908 57.4034 129.887 57.5434 131.096L57.696 132.488L58.8407 132.488L58.9552 133.481L58.8407 134.473L58.7835 134.473L57.9059 134.473L57.9249 134.892C57.9249 135.821 57.7023 136.552 57.2572 137.086C56.8247 137.621 56.1697 138.047 55.2921 138.365C54.4144 138.695 53.1425 139.033 51.4763 139.376L51.1138 137.449ZM52.1631 130.924C52.1631 131.445 52.2903 131.84 52.5447 132.107C52.7991 132.361 53.2061 132.488 53.7657 132.488L55.9026 132.488L55.769 131.325C55.6927 130.574 55.4892 130.002 55.1585 129.608C54.8278 129.201 54.4017 128.997 53.8802 128.997C53.346 128.997 52.9263 129.188 52.621 129.569C52.3157 129.951 52.1631 130.402 52.1631 130.924ZM58.6504 132.488L58.8602 132.488C59.2418 132.488 59.5852 132.406 59.8905 132.24C60.1958 132.062 60.4247 131.821 60.5773 131.515L62.0273 128.749C62.2817 128.253 62.6442 127.871 63.1148 127.604C63.5854 127.324 64.0879 127.185 64.6221 127.185C65.1181 127.185 65.5824 127.299 66.0148 127.528C66.5745 127.82 66.9878 128.215 67.2549 128.711C67.5348 129.207 67.6747 129.779 67.6747 130.428C67.6747 131.306 67.4457 132.234 66.9878 133.213C66.7971 133.633 66.5172 133.964 66.1484 134.206C65.7922 134.447 65.3979 134.568 64.9655 134.568C64.6093 134.568 64.2723 134.485 63.9543 134.32L61.6267 133.118C60.9017 134.021 59.9795 134.473 58.8602 134.473L58.6504 134.473L58.6504 132.488ZM65.0036 132.641C65.0927 132.692 65.1817 132.717 65.2707 132.717C65.4488 132.717 65.5696 132.628 65.6332 132.45L65.824 132.031C66.0275 131.547 66.1293 131.108 66.1293 130.714C66.1293 130.371 66.0593 130.065 65.9194 129.798C65.7795 129.519 65.576 129.315 65.3089 129.188C65.1181 129.086 64.9019 129.035 64.6602 129.035C64.3931 129.035 64.1387 129.111 63.8971 129.264C63.6681 129.404 63.4837 129.614 63.3438 129.894L62.5806 131.42L65.0036 132.641ZM80.6824 138.975C80.0592 139.115 79.4932 139.185 78.9844 139.185C77.9923 139.185 77.1338 138.963 76.4088 138.517C75.6838 138.072 75.1305 137.443 74.7489 136.629C74.3673 135.815 74.1766 134.867 74.1766 133.786C74.1766 132.565 74.4182 131.267 74.9016 129.894L76.5805 130.561C76.1608 131.744 75.9509 132.832 75.9509 133.824C75.9509 134.892 76.2116 135.719 76.7331 136.304C77.2673 136.902 78.0178 137.201 78.9844 137.201C79.4296 137.201 79.8621 137.15 80.2818 137.048C81.1085 136.858 81.7381 136.686 82.1706 136.533C82.6031 136.393 82.9401 136.209 83.1818 135.98C83.4234 135.751 83.5443 135.452 83.5443 135.083C83.5443 135.007 83.5316 134.88 83.5061 134.702C83.4425 134.371 82.902 134.008 81.8844 133.614L80.5298 133.175L81.0831 131.306C81.1849 131.331 81.4074 131.395 81.7509 131.496C83.1118 131.891 84.0912 132.158 84.689 132.298C85.2995 132.425 85.8973 132.488 86.4824 132.488L86.5969 133.481L86.4824 134.473C86.0372 134.473 85.6112 134.454 85.2041 134.415C85.2423 134.492 85.2614 134.568 85.2614 134.644C85.2868 134.899 85.2995 135.077 85.2995 135.179C85.2995 136.196 84.9116 136.991 84.1357 137.563C83.3598 138.149 82.2088 138.619 80.6824 138.975ZM86.2998 132.488L92.2143 132.488L92.3287 133.481L92.2143 134.473L86.2998 134.473L86.2998 132.488ZM101.597 134.473C101.038 134.473 100.516 134.352 100.033 134.11C99.5495 133.856 99.0853 133.487 98.6401 133.004C98.5384 133.207 98.4048 133.392 98.2395 133.557C97.7307 134.167 96.993 134.473 96.0263 134.473L92.0198 134.473L92.0198 132.488L96.0454 132.488C96.3379 132.488 96.5669 132.425 96.7322 132.298C97.0121 132.094 97.152 131.821 97.152 131.477C97.152 131.261 97.0884 131.051 96.9612 130.848L92.7257 124.857L93.1263 123.369L100.014 120.831L100.643 122.682L94.9388 124.762L98.2967 129.665L98.4303 129.875C99.0662 130.892 99.6068 131.585 100.052 131.954C100.51 132.31 101.025 132.488 101.597 132.488L101.864 132.488L101.979 133.481L101.864 134.473L101.597 134.473ZM101.671 132.488L103.178 132.488C103.789 132.488 104.259 132.387 104.59 132.183C104.933 131.98 105.105 131.63 105.105 131.134C105.105 130.879 105.061 130.6 104.972 130.294L104.208 127.452L105.926 126.956L106.689 129.798C106.816 130.256 106.88 130.701 106.88 131.134C106.88 132.177 106.53 132.997 105.83 133.595C105.131 134.18 104.247 134.473 103.178 134.473L101.671 134.473L101.671 132.488ZM103.197 123.197L105.315 123.197L105.315 125.315L103.197 125.315L103.197 123.197ZM112.992 134.473C112.139 134.473 111.465 134.345 110.969 134.091C110.473 133.837 110.111 133.43 109.882 132.87C109.653 132.298 109.519 131.509 109.481 130.504L109.138 121.728L110.912 121.652L111.255 130.504C111.281 131.115 111.332 131.554 111.408 131.821C111.497 132.075 111.65 132.253 111.866 132.355C112.095 132.444 112.47 132.488 112.992 132.488L113.182 132.488L113.297 133.481L113.182 134.473L112.992 134.473ZM112.999 132.488L114.506 132.488C115.117 132.488 115.587 132.387 115.918 132.183C116.262 131.98 116.433 131.63 116.433 131.134C116.433 130.879 116.389 130.6 116.3 130.294L115.537 127.452L117.254 126.956L118.017 129.798C118.144 130.256 118.208 130.701 118.208 131.134C118.208 132.177 117.858 132.997 117.158 133.595C116.459 134.18 115.575 134.473 114.506 134.473L112.999 134.473L112.999 132.488ZM113.362 136.152L115.46 136.152L115.46 138.269L113.362 138.269L113.362 136.152ZM131.305 138.975C130.682 139.115 130.116 139.185 129.607 139.185C128.615 139.185 127.756 138.963 127.031 138.517C126.306 138.072 125.753 137.443 125.371 136.629C124.99 135.815 124.799 134.867 124.799 133.786C124.799 132.565 125.041 131.267 125.524 129.894L127.203 130.561C126.783 131.744 126.573 132.832 126.573 133.824C126.573 134.892 126.834 135.719 127.355 136.304C127.89 136.902 128.64 137.201 129.607 137.201C130.052 137.201 130.484 137.15 130.904 137.048C131.731 136.858 132.36 136.686 132.793 136.533C133.225 136.393 133.562 136.209 133.804 135.98C134.046 135.751 134.167 135.452 134.167 135.083C134.167 135.007 134.154 134.88 134.128 134.702C134.065 134.371 133.518 134.008 132.488 133.614L131.152 133.175L131.705 131.306C131.807 131.331 132.03 131.395 132.373 131.496C133.734 131.891 134.714 132.158 135.311 132.298C135.922 132.425 136.52 132.488 137.105 132.488L137.219 133.481L137.105 134.473C136.66 134.473 136.233 134.454 135.826 134.415C135.865 134.492 135.884 134.568 135.884 134.644C135.909 134.899 135.922 135.077 135.922 135.179C135.922 136.196 135.534 136.991 134.758 137.563C133.982 138.149 132.831 138.619 131.305 138.975ZM136.922 132.488L137.227 132.488C138.855 132.488 140.573 132.234 142.379 131.725L146.652 130.504L142.951 128.654C142.608 128.463 142.252 128.367 141.883 128.367C141.514 128.367 141.164 128.469 140.833 128.673C140.503 128.876 140.236 129.156 140.032 129.512L139.689 130.123L138.162 129.169L138.525 128.501C138.906 127.814 139.383 127.293 139.956 126.937C140.528 126.58 141.151 126.402 141.825 126.402C142.474 126.402 143.136 126.58 143.81 126.937L148.713 129.608L148.446 131.859L147.912 132.031C148.191 132.336 148.554 132.488 148.999 132.488L150.22 132.488L150.335 133.481L150.22 134.473L148.999 134.473C148.376 134.473 147.803 134.301 147.282 133.958C146.773 133.601 146.385 133.143 146.118 132.584L142.875 133.614C141.03 134.186 139.142 134.473 137.208 134.473L136.922 134.473L136.922 132.488ZM141.864 136.037L143.981 136.037L143.981 138.136L141.864 138.136L141.864 136.037ZM150.02 132.488L151.222 132.488C151.807 132.488 152.221 132.393 152.462 132.202C152.704 131.999 152.812 131.687 152.787 131.267L152.787 131.229L152.577 128.883L154.332 128.711L154.542 131.058L154.542 131.077C154.593 131.611 154.726 131.98 154.943 132.183C155.159 132.387 155.547 132.488 156.106 132.488L156.221 133.481L156.106 134.473C155.063 134.473 154.262 134.186 153.702 133.614C153.105 134.186 152.278 134.473 151.222 134.473L150.02 134.473L150.02 132.488ZM151.547 124.647L153.664 124.647L153.664 126.765L151.547 126.765L151.547 124.647ZM166.172 134.473C165.218 134.473 164.449 134.142 163.864 133.481C163.291 134.142 162.496 134.473 161.479 134.473C161.008 134.473 160.576 134.384 160.182 134.206C159.8 134.027 159.469 133.779 159.189 133.461C158.604 134.136 157.809 134.473 156.805 134.473L155.908 134.473L155.908 132.488L156.805 132.488C157.402 132.488 157.809 132.374 158.026 132.145C158.242 131.916 158.356 131.617 158.369 131.248L158.369 131.134L158.369 128.768L160.029 128.768L160.029 131.134L160.029 131.248C160.042 131.643 160.169 131.948 160.41 132.164C160.652 132.38 161.008 132.488 161.479 132.488C162.102 132.488 162.516 132.361 162.719 132.107C162.935 131.852 163.043 131.528 163.043 131.134L163.043 128.768L164.703 128.768L164.703 131.134L164.703 131.248C164.703 131.643 164.824 131.948 165.066 132.164C165.32 132.38 165.689 132.488 166.172 132.488C167.215 132.488 167.737 132.05 167.737 131.172C167.737 130.905 167.692 130.612 167.603 130.294L166.84 127.452L168.557 126.956L169.32 129.798C169.448 130.269 169.511 130.727 169.511 131.172C169.511 131.846 169.358 132.438 169.053 132.946C168.761 133.442 168.36 133.824 167.851 134.091C167.355 134.345 166.796 134.473 166.172 134.473ZM168.971 137.449L169.906 137.201C170.605 137.01 171.146 136.832 171.527 136.667C171.922 136.501 172.233 136.272 172.462 135.98C172.704 135.7 172.825 135.325 172.825 134.854C172.825 134.765 172.812 134.606 172.787 134.377L172.024 128.883L173.779 128.615L174.332 132.66L174.389 133.061L174.523 134.148C174.561 134.454 174.58 134.733 174.58 134.988C174.58 136.133 174.224 137.01 173.512 137.621C172.812 138.231 171.763 138.727 170.364 139.109L169.429 139.357L168.971 137.449ZM180.364 134.473C179.512 134.473 178.838 134.345 178.341 134.091C177.845 133.837 177.483 133.43 177.254 132.87C177.025 132.298 176.891 131.509 176.853 130.504L176.51 121.728L178.284 121.652L178.628 130.504C178.653 131.115 178.704 131.554 178.78 131.821C178.869 132.075 179.022 132.253 179.238 132.355C179.467 132.444 179.842 132.488 180.364 132.488L180.555 132.488L180.669 133.481L180.555 134.473L180.364 134.473ZM180.371 132.488L181.573 132.488C182.158 132.488 182.572 132.393 182.813 132.202C183.055 131.999 183.163 131.687 183.138 131.267L183.138 131.229L182.928 128.883L184.683 128.711L184.893 131.058L184.893 131.077C184.944 131.611 185.077 131.98 185.294 132.183C185.51 132.387 185.898 132.488 186.457 132.488L186.572 133.481L186.457 134.473C185.414 134.473 184.613 134.186 184.054 133.614C183.456 134.186 182.629 134.473 181.573 134.473L180.371 134.473L180.371 132.488ZM180.39 136.133L182.508 136.133L182.508 138.25L180.39 138.25L180.39 136.133ZM186.259 132.488L189.331 132.488C189.916 132.488 190.329 132.387 190.571 132.183C190.812 131.98 190.914 131.662 190.876 131.229L190.666 128.883L192.44 128.711L192.65 131.058L192.65 131.077C192.701 131.611 192.835 131.98 193.051 132.183C193.28 132.387 193.668 132.488 194.215 132.488L194.31 133.481L194.215 134.473C193.159 134.473 192.358 134.18 191.811 133.595C191.188 134.18 190.361 134.473 189.331 134.473L186.259 134.473L186.259 132.488ZM186.621 124.781L188.491 124.781L188.491 126.669L186.621 126.669L186.621 124.781ZM190.17 124.781L192.04 124.781L192.04 126.669L190.17 126.669L190.17 124.781ZM199.828 134.263C198.976 134.377 197.119 134.447 194.257 134.473L194.028 134.473L194.028 132.488L194.219 132.488L196.299 132.45C196.108 132.107 195.974 131.719 195.898 131.286C195.847 130.956 195.822 130.714 195.822 130.561C195.822 129.684 196.095 128.908 196.642 128.234C197.202 127.547 197.914 127.127 198.779 126.975C198.982 126.949 199.148 126.937 199.275 126.937C199.987 126.937 200.89 127.083 201.984 127.375L201.526 129.283C200.407 128.991 199.625 128.863 199.18 128.902C198.709 128.953 198.327 129.137 198.035 129.455C197.742 129.773 197.596 130.148 197.596 130.581C197.596 131.064 197.761 131.471 198.092 131.802C198.436 132.132 198.843 132.304 199.313 132.317L199.733 132.298L202.976 131.687L203.32 133.614L200.038 134.225L199.828 134.263ZM205.785 121.728L207.56 121.633L208.037 134.454L206.281 134.53L205.785 121.728ZM220.413 134.473C220.095 134.473 219.835 134.447 219.631 134.396C219.657 134.676 219.669 134.873 219.669 134.988C219.669 136.133 219.313 137.01 218.601 137.621C217.889 138.231 216.833 138.727 215.434 139.109L214.499 139.357L214.041 137.449L214.976 137.201C215.675 137.01 216.216 136.832 216.598 136.667C216.992 136.501 217.304 136.272 217.532 135.98C217.774 135.7 217.895 135.325 217.895 134.854C217.895 134.765 217.882 134.606 217.857 134.377L217.094 128.883L218.849 128.615L219.002 129.779C219.129 130.466 219.199 130.879 219.211 131.019C219.313 131.617 219.44 132.011 219.593 132.202C219.758 132.393 220.032 132.488 220.413 132.488L220.547 132.488L220.661 133.481L220.547 134.473L220.413 134.473ZM220.411 132.488L221.422 132.488C221.905 132.488 222.325 132.469 222.681 132.431C222.249 132.113 221.912 131.713 221.67 131.229C221.428 130.733 221.308 130.218 221.308 129.684C221.308 129.137 221.422 128.635 221.651 128.177C221.893 127.655 222.236 127.223 222.681 126.879L222.567 126.822L223.368 125.067L226.173 126.536L226.306 126.612L230.103 128.615C230.675 128.921 231.127 129.353 231.457 129.913C231.788 130.46 231.954 131.045 231.954 131.668C231.954 132.177 231.852 132.641 231.648 133.061C231.356 133.659 230.949 134.123 230.427 134.454C229.906 134.784 229.34 134.95 228.729 134.95C228.284 134.95 227.839 134.854 227.394 134.663L225.2 133.652C224.106 134.199 222.847 134.473 221.422 134.473L220.411 134.473L220.411 132.488ZM223.33 128.959C223.203 129.239 223.139 129.48 223.139 129.684C223.139 129.964 223.215 130.224 223.368 130.466C223.533 130.695 223.762 130.873 224.055 131L225.181 131.554C225.588 131.261 225.906 130.873 226.134 130.39C226.236 130.161 226.287 129.938 226.287 129.722C226.287 129.429 226.204 129.156 226.039 128.902C225.886 128.635 225.677 128.437 225.409 128.31C225.168 128.183 224.92 128.119 224.665 128.119C224.386 128.119 224.125 128.196 223.883 128.348C223.642 128.501 223.457 128.704 223.33 128.959ZM228.119 132.965C228.348 133.067 228.564 133.118 228.767 133.118C229.034 133.118 229.282 133.048 229.511 132.908C229.753 132.756 229.938 132.552 230.065 132.298C230.154 132.12 230.198 131.916 230.198 131.687C230.198 131.42 230.122 131.166 229.969 130.924C229.829 130.682 229.62 130.485 229.34 130.333L228.061 129.665C228.061 130.224 227.953 130.74 227.737 131.21C227.559 131.63 227.292 132.024 226.936 132.393L228.119 132.965ZM245.033 138.975C244.409 139.115 243.843 139.185 243.335 139.185C242.343 139.185 241.484 138.963 240.759 138.517C240.047 138.072 239.493 137.443 239.099 136.629C238.718 135.815 238.527 134.867 238.527 133.786C238.527 132.565 238.768 131.267 239.252 129.894L240.931 130.561C240.511 131.795 240.301 132.876 240.301 133.805C240.301 134.886 240.562 135.719 241.083 136.304C241.618 136.902 242.368 137.201 243.335 137.201C243.793 137.201 244.225 137.15 244.632 137.048C245.688 136.794 246.534 136.52 247.17 136.228C247.818 135.948 248.136 135.706 248.123 135.503C248.111 135.401 247.996 135.306 247.78 135.217C247.577 135.128 247.195 135.001 246.635 134.835L245.815 134.587C244.963 134.295 244.327 133.964 243.907 133.595C243.487 133.213 243.277 132.679 243.277 131.992C243.277 131.585 243.36 131.115 243.525 130.581C243.704 130.008 243.977 129.449 244.346 128.902C244.727 128.355 245.198 127.903 245.758 127.547C246.317 127.191 246.941 127.013 247.627 127.013C248.009 127.013 248.371 127.064 248.715 127.165L249.955 127.509L249.497 129.417L248.257 129.073C248.054 129.01 247.825 128.978 247.57 128.978C247.087 128.978 246.673 129.118 246.33 129.398C245.999 129.678 245.739 129.983 245.548 130.313C245.37 130.631 245.255 130.899 245.204 131.115C245.141 131.369 245.109 131.56 245.109 131.687C245.109 131.992 245.217 132.215 245.433 132.355C245.65 132.482 246.044 132.635 246.616 132.813C247.532 133.08 248.168 133.283 248.524 133.423C248.893 133.551 249.192 133.735 249.421 133.977C249.65 134.218 249.802 134.555 249.879 134.988C249.891 135.064 249.898 135.185 249.898 135.35C249.898 136.164 249.472 136.883 248.62 137.506C247.767 138.142 246.572 138.632 245.033 138.975ZM252.625 121.728L254.4 121.633L254.877 134.454L253.121 134.53L252.625 121.728ZM261.627 134.473C261.309 134.473 261.048 134.447 260.844 134.396C260.87 134.676 260.883 134.873 260.883 134.988C260.883 136.133 260.526 137.01 259.814 137.621C259.102 138.231 258.046 138.727 256.647 139.109L255.712 139.357L255.254 137.449L256.189 137.201C256.889 137.01 257.429 136.832 257.811 136.667C258.205 136.501 258.517 136.272 258.746 135.98C258.987 135.7 259.108 135.325 259.108 134.854C259.108 134.765 259.096 134.606 259.07 134.377L258.307 128.883L260.062 128.615L260.215 129.779C260.342 130.466 260.412 130.879 260.425 131.019C260.526 131.617 260.654 132.011 260.806 132.202C260.972 132.393 261.245 132.488 261.627 132.488L261.76 132.488L261.875 133.481L261.76 134.473L261.627 134.473ZM261.624 132.488L263.131 132.488C263.742 132.488 264.213 132.387 264.543 132.183C264.887 131.98 265.058 131.63 265.058 131.134C265.058 130.879 265.014 130.6 264.925 130.294L264.162 127.452L265.879 126.956L266.642 129.798C266.769 130.256 266.833 130.701 266.833 131.134C266.833 132.177 266.483 132.997 265.783 133.595C265.084 134.18 264.2 134.473 263.131 134.473L261.624 134.473L261.624 132.488ZM262.883 136.152L265.001 136.152L265.001 138.269L262.883 138.269L262.883 136.152Z" fill="#23417D"/>
<path d="M279.883 138.975C279.222 139.115 278.636 139.185 278.128 139.185C277.085 139.185 276.175 138.943 275.399 138.46C274.636 137.99 274.045 137.315 273.625 136.438C273.218 135.573 273.015 134.568 273.015 133.423C273.015 132.164 273.256 130.829 273.74 129.417L276.029 130.313C275.609 131.535 275.399 132.59 275.399 133.481C275.399 134.447 275.628 135.185 276.086 135.694C276.557 136.215 277.225 136.476 278.09 136.476C278.522 136.476 278.942 136.425 279.349 136.323C280.226 136.12 280.862 135.948 281.257 135.808C281.664 135.681 281.969 135.503 282.172 135.274C282.376 135.045 282.478 134.727 282.478 134.32C282.478 134.218 282.465 134.053 282.439 133.824L281.657 128.577L284.042 128.196L284.157 128.978C284.576 131.789 284.793 133.277 284.805 133.442C284.856 133.76 284.882 134.091 284.882 134.434C284.882 135.312 284.691 136.037 284.309 136.609C283.928 137.195 283.374 137.665 282.649 138.021C281.937 138.39 281.015 138.708 279.883 138.975ZM277.422 126.86L279.94 126.86L279.94 129.379L277.422 129.379L277.422 126.86ZM291.133 134.473C290.217 134.473 289.486 134.333 288.939 134.053C288.405 133.773 288.01 133.322 287.756 132.698C287.502 132.062 287.349 131.21 287.298 130.142L286.955 121.365L289.359 121.251L289.702 130.142C289.727 130.689 289.766 131.064 289.816 131.267C289.88 131.471 290.001 131.604 290.179 131.668C290.357 131.732 290.675 131.763 291.133 131.763L291.324 131.763L291.476 133.118L291.324 134.473L291.133 134.473ZM291.137 131.763L291.347 131.763C291.665 131.763 291.944 131.7 292.186 131.573C292.44 131.433 292.638 131.248 292.778 131.019L294.228 128.177C294.507 127.63 294.908 127.204 295.429 126.898C295.964 126.593 296.536 126.44 297.147 126.44C297.719 126.44 298.24 126.568 298.711 126.822C299.322 127.153 299.773 127.585 300.066 128.119C300.371 128.654 300.524 129.264 300.524 129.951C300.524 130.892 300.269 131.91 299.76 133.004C299.531 133.5 299.207 133.888 298.787 134.167C298.38 134.434 297.935 134.568 297.452 134.568C297.058 134.568 296.67 134.473 296.288 134.282L294.151 133.175C293.401 134.04 292.466 134.473 291.347 134.473L291.137 134.473L291.137 131.763ZM297.738 131.973C297.802 132.011 297.84 132.031 297.853 132.031C297.878 132.031 297.903 132.005 297.929 131.954L298.158 131.382C298.323 131.013 298.406 130.657 298.406 130.313C298.406 130.034 298.349 129.792 298.234 129.588C298.12 129.372 297.954 129.213 297.738 129.111C297.573 129.022 297.388 128.978 297.185 128.978C296.956 128.978 296.733 129.048 296.517 129.188C296.313 129.315 296.148 129.512 296.021 129.779L295.487 130.848L297.738 131.973ZM303.428 136.724C304.916 136.419 305.959 136.177 306.557 135.999C307.155 135.834 307.574 135.636 307.816 135.408C308.07 135.191 308.191 134.88 308.179 134.473L306.137 134.473C305.018 134.473 304.121 134.123 303.447 133.423C302.786 132.711 302.455 131.757 302.455 130.561C302.455 129.811 302.614 129.111 302.932 128.463C303.263 127.801 303.714 127.274 304.286 126.879C304.872 126.485 305.52 126.288 306.232 126.288C306.932 126.288 307.568 126.479 308.14 126.86C308.725 127.229 309.196 127.751 309.552 128.425C309.921 129.086 310.15 129.843 310.239 130.695L310.354 131.763L311.441 131.763L311.594 133.118L311.441 134.473L311.384 134.473L310.602 134.473C310.614 135.477 310.398 136.272 309.953 136.858C309.52 137.443 308.84 137.913 307.911 138.269C306.983 138.638 305.647 139.001 303.905 139.357L303.428 136.724ZM304.878 130.561C304.878 130.981 304.967 131.286 305.145 131.477C305.336 131.668 305.666 131.763 306.137 131.763L307.911 131.763L307.835 130.981C307.759 130.333 307.581 129.843 307.301 129.512C307.034 129.169 306.69 128.997 306.271 128.997C305.838 128.997 305.495 129.15 305.24 129.455C304.999 129.747 304.878 130.116 304.878 130.561ZM311.259 131.763L314.178 131.763C314.712 131.763 315.107 131.687 315.361 131.535C315.628 131.382 315.762 131.115 315.762 130.733C315.762 130.53 315.723 130.294 315.647 130.027L314.903 127.185L317.212 126.498L318.013 129.474C318.14 129.932 318.204 130.377 318.204 130.81C318.204 131.547 318.032 132.196 317.689 132.756C317.345 133.302 316.868 133.729 316.258 134.034C315.647 134.326 314.954 134.473 314.178 134.473L311.259 134.473L311.259 131.763ZM311.87 122.567L314.083 122.567L314.083 124.8L311.87 124.8L311.87 122.567ZM315.781 122.567L317.994 122.567L317.994 124.8L315.781 124.8L315.781 122.567ZM323.39 136.743L324.573 136.4C325.476 136.158 326.106 135.91 326.462 135.656C326.831 135.401 327.015 135.013 327.015 134.492C327.015 134.403 327.003 134.256 326.977 134.053L326.214 128.577L328.599 128.215L329.152 132.202L329.362 133.729C329.413 134.186 329.438 134.504 329.438 134.683C329.438 135.853 329.089 136.768 328.389 137.43C327.69 138.104 326.628 138.632 325.203 139.013L324.02 139.357L323.39 136.743ZM331.342 121.365L333.765 121.251L334.261 134.434L331.857 134.549L331.342 121.365ZM341.224 134.473C341.008 134.473 340.849 134.466 340.747 134.454C340.798 135.7 340.474 136.667 339.774 137.354C339.088 138.053 338.006 138.606 336.531 139.013L335.348 139.357L334.719 136.743L335.901 136.4C336.804 136.158 337.434 135.91 337.79 135.656C338.159 135.401 338.344 135.013 338.344 134.492C338.344 134.403 338.331 134.256 338.305 134.053L337.542 128.577L339.927 128.215L340.061 129.245C340.099 129.41 340.188 129.906 340.328 130.733C340.404 131.153 340.506 131.433 340.633 131.573C340.76 131.7 340.957 131.763 341.224 131.763L341.32 131.763L341.472 133.118L341.32 134.473L341.224 134.473ZM337.313 123.75L339.813 123.75L339.813 126.269L337.313 126.269L337.313 123.75ZM341.2 131.763L342.364 131.763L342.803 131.763C342.218 131.064 341.925 130.25 341.925 129.321C341.925 128.749 342.052 128.189 342.307 127.642C342.625 126.968 343.083 126.44 343.68 126.059L344.463 124.38L351.197 127.929C351.821 128.247 352.31 128.717 352.667 129.34C353.023 129.951 353.201 130.606 353.201 131.306C353.201 131.84 353.086 132.355 352.857 132.851C352.539 133.512 352.094 134.027 351.522 134.396C350.949 134.765 350.333 134.95 349.671 134.95C349.137 134.95 348.647 134.842 348.202 134.625L346.142 133.671C345.01 134.206 343.75 134.473 342.364 134.473L341.2 134.473L341.2 131.763ZM344.596 128.711C344.494 128.876 344.444 129.073 344.444 129.302C344.444 129.506 344.501 129.697 344.615 129.875C344.73 130.053 344.901 130.199 345.13 130.313L346.122 130.81C346.402 130.555 346.619 130.25 346.771 129.894C346.847 129.716 346.886 129.544 346.886 129.379C346.886 129.162 346.828 128.959 346.714 128.768C346.612 128.565 346.46 128.406 346.256 128.291L346.18 128.253C346.002 128.164 345.811 128.119 345.607 128.119C345.391 128.119 345.194 128.177 345.016 128.291C344.838 128.393 344.698 128.533 344.596 128.711ZM349.175 132.317C349.353 132.393 349.531 132.431 349.709 132.431C349.926 132.431 350.123 132.38 350.301 132.279C350.492 132.164 350.631 132.011 350.72 131.821C350.797 131.668 350.835 131.509 350.835 131.344C350.835 131.14 350.771 130.943 350.644 130.752C350.53 130.561 350.358 130.409 350.129 130.294L349.27 129.856C349.207 130.301 349.099 130.682 348.946 131C348.819 131.28 348.635 131.592 348.393 131.935L349.175 132.317ZM367.252 121.766L367.576 124.971C367.589 125.048 367.595 125.162 367.595 125.315C367.595 125.913 367.436 126.479 367.118 127.013C366.801 127.534 366.368 127.954 365.821 128.272C365.287 128.59 364.708 128.749 364.085 128.749L363.608 128.749C363.265 128.749 362.889 128.685 362.482 128.558L363.036 134.282L360.613 134.549L359.392 122.033L361.815 121.766L362.139 125.162C362.19 125.48 362.304 125.709 362.482 125.849C362.66 125.976 362.908 126.04 363.226 126.04L364.085 126.04C364.428 126.04 364.695 125.97 364.886 125.83C365.09 125.677 365.179 125.467 365.153 125.2L364.829 122.033L367.252 121.766ZM376.557 130.065C376.557 130.752 376.392 131.388 376.061 131.973C375.743 132.546 375.304 133.004 374.745 133.347C374.185 133.69 373.574 133.862 372.913 133.862C372.252 133.862 371.641 133.69 371.082 133.347C370.522 133.004 370.077 132.546 369.746 131.973C369.415 131.388 369.25 130.752 369.25 130.065C369.25 129.379 369.415 128.749 369.746 128.177C370.077 127.592 370.522 127.127 371.082 126.784C371.641 126.44 372.252 126.269 372.913 126.269C373.574 126.269 374.185 126.44 374.745 126.784C375.304 127.127 375.743 127.592 376.061 128.177C376.392 128.749 376.557 129.379 376.557 130.065ZM371.52 130.065C371.52 130.409 371.654 130.708 371.921 130.962C372.201 131.204 372.532 131.325 372.913 131.325C373.295 131.325 373.619 131.204 373.886 130.962C374.166 130.72 374.306 130.422 374.306 130.065C374.306 129.722 374.166 129.429 373.886 129.188C373.619 128.933 373.295 128.806 372.913 128.806C372.532 128.806 372.201 128.933 371.921 129.188C371.654 129.429 371.52 129.722 371.52 130.065Z" fill="#FE963D"/>
</svg>
