<svg width="406" height="94" viewBox="0 0 406 94" fill="none" xmlns="http://www.w3.org/2000/svg">
<path d="M13.3653 31.72C14.8853 31.72 15.6453 31.16 15.6453 30.04C15.6453 29.64 15.512 29.1333 15.2453 28.52L11.4453 18.2L16.1253 16L20.7253 29.12C21.072 30.08 21.4453 30.76 21.8453 31.16C22.2453 31.5333 22.8186 31.72 23.5653 31.72H24.6053C24.872 31.72 25.0053 32.6267 25.0053 34.44C25.0053 35.5333 24.9653 36.24 24.8853 36.56C24.8053 36.8533 24.712 37 24.6053 37H23.3253C22.152 37 21.152 36.84 20.3253 36.52C19.5253 36.1733 18.8853 35.6267 18.4053 34.88C17.8986 35.6267 17.2453 36.1733 16.4453 36.52C15.672 36.84 14.6986 37 13.5253 37H4.44531L4.00531 31.72H13.3653ZM29.2738 31.72C29.9404 31.72 30.4738 31.5467 30.8738 31.2C31.3004 30.8267 31.5138 30.32 31.5138 29.68V23.28H36.5938V29.48C36.5938 30.9733 37.3404 31.72 38.8338 31.72H40.3538C40.6204 31.72 40.7538 32.6133 40.7538 34.4C40.7538 36.1333 40.6204 37 40.3538 37H38.5938C36.3271 37 34.8071 36.3467 34.0338 35.04C33.0738 36.3467 31.4871 37 29.2738 37H24.5938C24.3271 37 24.1937 36.1467 24.1937 34.44C24.1937 32.6267 24.3271 31.72 24.5938 31.72H29.2738ZM29.3538 19.04V14.52H34.7938V19.04H29.3538ZM41.7359 31.72C42.4026 31.72 42.9493 31.5333 43.3759 31.16C43.8026 30.7867 44.0159 30.28 44.0159 29.64V11.2H49.0559V29.88C49.0559 32.12 48.4026 33.8667 47.0959 35.12C45.7893 36.3733 44.0159 37 41.7759 37H40.3359C40.0693 37 39.9359 36.1467 39.9359 34.44C39.9359 32.6267 40.0693 31.72 40.3359 31.72H41.7359ZM70.7728 35.36C70.7728 38.8533 69.8395 41.5867 67.9728 43.56C66.1061 45.56 63.5595 46.56 60.3328 46.56H54.8928L54.4928 41.32H60.6528C62.2261 41.32 63.4661 40.9333 64.3728 40.16C65.2795 39.4133 65.7328 38.4267 65.7328 37.2V37H62.9328C60.2661 37 58.2528 36.36 56.8928 35.08C55.5328 33.8 54.8528 31.9333 54.8528 29.48V29.28C54.8528 27.5467 55.1861 26 55.8528 24.64C56.5461 23.28 57.4928 22.2133 58.6928 21.44C59.9195 20.6667 61.3195 20.28 62.8928 20.28C65.3195 20.28 67.2395 21.0933 68.6528 22.72C70.0661 24.32 70.7728 26.52 70.7728 29.32V35.36ZM59.8928 29.12C59.8928 30.08 60.1195 30.76 60.5728 31.16C61.0261 31.56 61.8128 31.76 62.9328 31.76H65.7328V29.28C65.7328 27.9733 65.4661 26.9867 64.9328 26.32C64.4261 25.6533 63.6928 25.32 62.7328 25.32C61.7995 25.32 61.0928 25.6533 60.6128 26.32C60.1328 26.96 59.8928 27.8267 59.8928 28.92V29.12ZM84.3809 31.72C85.9009 31.72 86.6609 31.16 86.6609 30.04C86.6609 29.64 86.5276 29.1333 86.2609 28.52L82.4609 18.2L87.1409 16L91.7409 29.12C92.0876 30.08 92.4609 30.76 92.8609 31.16C93.2609 31.5333 93.8343 31.72 94.5809 31.72H95.6209C95.8876 31.72 96.0209 32.6267 96.0209 34.44C96.0209 35.5333 95.9809 36.24 95.9009 36.56C95.8209 36.8533 95.7276 37 95.6209 37H94.3409C93.1676 37 92.1676 36.84 91.3409 36.52C90.5409 36.1733 89.9009 35.6267 89.4209 34.88C88.9143 35.6267 88.2609 36.1733 87.4609 36.52C86.6876 36.84 85.7143 37 84.5409 37H75.4609L75.0209 31.72H84.3809ZM100.289 31.72C100.956 31.72 101.489 31.5467 101.889 31.2C102.316 30.8267 102.529 30.32 102.529 29.68V23.28H107.609V29.48C107.609 30.9733 108.356 31.72 109.849 31.72H111.369C111.636 31.72 111.769 32.6133 111.769 34.4C111.769 36.1333 111.636 37 111.369 37H109.609C107.343 37 105.823 36.3467 105.049 35.04C104.089 36.3467 102.503 37 100.289 37H95.6094C95.3427 37 95.2094 36.1467 95.2094 34.44C95.2094 32.6267 95.3427 31.72 95.6094 31.72H100.289ZM100.369 19.04V14.52H105.809V19.04H100.369ZM112.752 31.72C113.418 31.72 113.965 31.5333 114.392 31.16C114.818 30.7867 115.032 30.28 115.032 29.64V11.2H120.072V29.88C120.072 32.12 119.418 33.8667 118.112 35.12C116.805 36.3733 115.032 37 112.792 37H111.352C111.085 37 110.952 36.1467 110.952 34.44C110.952 32.6267 111.085 31.72 111.352 31.72H112.752ZM145.575 46.56C142.108 46.56 139.428 45.56 137.535 43.56C135.668 41.5867 134.735 38.8133 134.735 35.24V27.28H139.815V35.12C139.815 37.2 140.281 38.7467 141.215 39.76C142.148 40.7733 143.615 41.28 145.615 41.28H147.215C149.135 41.28 150.641 40.7733 151.735 39.76C152.828 38.7733 153.375 37.3733 153.375 35.56V23.28H158.455V35.12C158.455 37.52 157.975 39.5733 157.015 41.28C156.081 43.0133 154.761 44.32 153.055 45.2C151.375 46.1067 149.428 46.56 147.215 46.56H145.575ZM142.975 22.64V18.12H148.415V22.64H142.975ZM172.437 31.72C172.571 31.72 172.664 31.8933 172.717 32.24C172.797 32.5867 172.837 33.32 172.837 34.44C172.837 35.5067 172.797 36.2 172.717 36.52C172.664 36.84 172.571 37 172.437 37H170.997C168.757 37 167.064 36.36 165.917 35.08C164.771 33.7733 164.197 31.92 164.197 29.52V11.2H169.237V29.2C169.237 30.08 169.397 30.72 169.717 31.12C170.064 31.52 170.611 31.72 171.357 31.72H172.437ZM182.205 31.72C182.899 31.72 183.445 31.52 183.845 31.12C184.245 30.6933 184.445 30.08 184.445 29.28V23.28H189.525V29.36C189.525 31.8133 188.872 33.7067 187.565 35.04C186.285 36.3467 184.512 37 182.245 37H172.445C172.179 37 172.045 36.1467 172.045 34.44C172.045 32.6267 172.179 31.72 172.445 31.72H182.205ZM172.725 45.72V41.2H184.005V45.72H172.725ZM190.912 41.28C192.752 41.28 194.179 40.7733 195.192 39.76C196.205 38.7733 196.712 37.3733 196.712 35.56V23.28H201.792V29.28C201.792 30.1333 201.992 30.76 202.392 31.16C202.819 31.5333 203.485 31.72 204.392 31.72H205.072C205.339 31.72 205.472 32.6267 205.472 34.44C205.472 36.1467 205.339 37 205.072 37H204.472C203.885 37 203.352 36.92 202.872 36.76C202.392 36.6 202.019 36.3867 201.752 36.12V36.16C201.672 38.24 201.179 40.0667 200.272 41.64C199.365 43.2133 198.112 44.4267 196.512 45.28C194.912 46.1333 193.059 46.56 190.952 46.56H189.672L189.272 41.28H190.912ZM209.743 31.72C210.409 31.72 210.943 31.5467 211.343 31.2C211.769 30.8267 211.983 30.32 211.983 29.68V23.28H217.063V29.48C217.063 30.9733 217.809 31.72 219.303 31.72H220.823C221.089 31.72 221.223 32.6133 221.223 34.4C221.223 36.1333 221.089 37 220.823 37H219.063C216.796 37 215.276 36.3467 214.503 35.04C213.543 36.3467 211.956 37 209.743 37H205.062C204.796 37 204.662 36.1467 204.662 34.44C204.662 32.6267 204.796 31.72 205.062 31.72H209.743ZM206.903 19.04V14.52H218.183V19.04H206.903ZM223.925 31.72C224.858 31.72 225.551 31.5067 226.005 31.08C226.485 30.6533 226.725 30.0667 226.725 29.32V23.28H231.765V29.32C231.765 30.0933 231.978 30.6933 232.405 31.12C232.831 31.52 233.538 31.72 234.525 31.72C235.458 31.72 236.151 31.5067 236.605 31.08C237.085 30.6533 237.325 30.0667 237.325 29.32V23.28H242.365V29.32C242.365 30.92 243.231 31.72 244.965 31.72C246.725 31.72 247.605 30.92 247.605 29.32V23.28H252.605V29.28C252.605 30.1333 252.791 30.76 253.165 31.16C253.538 31.5333 254.111 31.72 254.885 31.72H256.485C256.751 31.72 256.885 32.6267 256.885 34.44C256.885 36.1467 256.751 37 256.485 37H254.885C252.351 37 250.698 36.3467 249.925 35.04C249.418 35.7067 248.765 36.2 247.965 36.52C247.165 36.84 246.165 37 244.965 37C243.551 37 242.418 36.8267 241.565 36.48C240.711 36.1067 240.071 35.5733 239.645 34.88C238.605 36.2933 236.898 37 234.525 37C233.031 37 231.845 36.8267 230.965 36.48C230.111 36.1067 229.471 35.5733 229.045 34.88C228.005 36.2933 226.298 37 223.925 37H220.805C220.538 37 220.405 36.1467 220.405 34.44C220.405 32.6267 220.538 31.72 220.805 31.72H223.925ZM237.365 12.56V8.24H241.925V12.56H237.365ZM234.005 19.04V14.52H245.285V19.04H234.005ZM267.789 20.28C270.295 20.28 272.229 21 273.589 22.44C274.975 23.88 275.669 25.92 275.669 28.56V28.76C275.669 31.3467 274.949 33.3733 273.509 34.84C272.095 36.28 270.122 37 267.589 37C266.282 37 265.175 36.8267 264.269 36.48C263.362 36.1333 262.695 35.6533 262.269 35.04C261.762 35.7333 261.135 36.24 260.389 36.56C259.642 36.8533 258.682 37 257.509 37H256.469C256.202 37 256.069 36.1467 256.069 34.44C256.069 32.6267 256.202 31.72 256.469 31.72H257.509C258.255 31.72 258.789 31.5733 259.109 31.28C259.429 30.9867 259.589 30.5067 259.589 29.84V28.72C259.589 26.1333 260.322 24.08 261.789 22.56C263.282 21.04 265.282 20.28 267.789 20.28ZM267.589 25.32C265.589 25.32 264.589 26.3867 264.589 28.52V28.72C264.589 29.7067 264.829 30.4667 265.309 31C265.815 31.5067 266.575 31.76 267.589 31.76C268.629 31.76 269.389 31.52 269.869 31.04C270.375 30.5333 270.629 29.76 270.629 28.72V28.52C270.629 26.3867 269.615 25.32 267.589 25.32ZM289.93 29.96C289.93 28.4667 290.29 27 291.01 25.56C291.73 24.12 292.85 22.6 294.37 21L292.65 19.24L296.25 15.48C298.81 17.64 300.797 19.5067 302.21 21.08C303.623 22.6533 304.61 24.0933 305.17 25.4C305.757 26.68 306.05 28 306.05 29.36C306.05 31.7867 305.29 33.7333 303.77 35.2C302.25 36.6667 300.197 37.4 297.61 37.4C295.263 37.4 293.397 36.76 292.01 35.48C290.623 34.1733 289.93 32.3333 289.93 29.96ZM301.05 29.32C301.05 28.4667 300.797 27.64 300.29 26.84C299.783 26.04 298.957 25.16 297.81 24.2C296.85 25.16 296.13 26.08 295.65 26.96C295.197 27.84 294.97 28.7467 294.97 29.68C294.97 30.4533 295.21 31.0667 295.69 31.52C296.17 31.9467 296.877 32.16 297.81 32.16C298.823 32.16 299.61 31.9067 300.17 31.4C300.757 30.8933 301.05 30.2 301.05 29.32ZM320.054 31.72C320.188 31.72 320.281 31.8933 320.334 32.24C320.414 32.5867 320.454 33.32 320.454 34.44C320.454 35.5067 320.414 36.2 320.334 36.52C320.281 36.84 320.188 37 320.054 37H318.614C316.374 37 314.681 36.36 313.534 35.08C312.388 33.7733 311.814 31.92 311.814 29.52V11.2H316.854V29.2C316.854 30.08 317.014 30.72 317.334 31.12C317.681 31.52 318.228 31.72 318.974 31.72H320.054ZM330.703 31.72C331.529 31.72 332.169 31.5867 332.623 31.32C333.076 31.0533 333.303 30.68 333.303 30.2C333.303 29.7467 333.196 29.3467 332.983 29C332.796 28.6533 332.463 28.24 331.983 27.76L323.303 19.28V15.12L338.423 9.32L339.863 14.2L329.503 18.08L335.783 24.4C338.103 26.72 339.823 28.3733 340.943 29.36C342.089 30.3467 343.009 30.9867 343.703 31.28C344.423 31.5733 345.249 31.72 346.183 31.72C346.449 31.72 346.583 32.6267 346.583 34.44C346.583 36.1467 346.449 37 346.183 37C344.823 37 343.716 36.9067 342.863 36.72C342.036 36.5333 341.249 36.1867 340.503 35.68C339.756 35.1733 338.849 34.3867 337.783 33.32C337.676 33.6667 337.449 34.0667 337.103 34.52C336.489 35.2933 335.623 35.9067 334.503 36.36C333.409 36.7867 332.183 37 330.823 37H320.062C319.796 37 319.662 36.1467 319.662 34.44C319.662 32.6267 319.796 31.72 320.062 31.72H330.703ZM336.783 2.96L337.663 6.04L323.303 11.84V8.48L336.783 2.96ZM349.315 31.72C350.249 31.72 350.942 31.5067 351.395 31.08C351.875 30.6533 352.115 30.0667 352.115 29.32V23.28H357.155V29.32C357.155 30.0933 357.369 30.6933 357.795 31.12C358.222 31.52 358.929 31.72 359.915 31.72C360.849 31.72 361.542 31.5067 361.995 31.08C362.475 30.6533 362.715 30.0667 362.715 29.32V23.28H367.755V29.32C367.755 30.92 368.622 31.72 370.355 31.72C372.115 31.72 372.995 30.92 372.995 29.32V23.28H377.995V29.36C377.995 31.76 377.329 33.64 375.995 35C374.662 36.3333 372.782 37 370.355 37C368.942 37 367.809 36.8267 366.955 36.48C366.102 36.1067 365.462 35.5733 365.035 34.88C363.995 36.2933 362.289 37 359.915 37C358.422 37 357.235 36.8267 356.355 36.48C355.502 36.1067 354.862 35.5733 354.435 34.88C353.395 36.2933 351.689 37 349.315 37H346.195C345.929 37 345.795 36.1467 345.795 34.44C345.795 32.6267 345.929 31.72 346.195 31.72H349.315ZM362.755 12.56V8.24H367.315V12.56H362.755ZM359.395 19.04V14.52H370.675V19.04H359.395ZM392.047 31.72C392.18 31.72 392.273 31.8933 392.327 32.24C392.407 32.5867 392.447 33.32 392.447 34.44C392.447 35.5067 392.407 36.2 392.327 36.52C392.273 36.84 392.18 37 392.047 37H390.607C388.367 37 386.673 36.36 385.527 35.08C384.38 33.7733 383.807 31.92 383.807 29.52V11.2H388.847V29.2C388.847 30.08 389.007 30.72 389.327 31.12C389.673 31.52 390.22 31.72 390.967 31.72H392.047ZM403.295 29.36C403.295 31.8133 402.655 33.7067 401.375 35.04C400.095 36.3467 398.321 37 396.055 37H392.055C391.788 37 391.655 36.1467 391.655 34.44C391.655 32.6267 391.788 31.72 392.055 31.72H396.015C396.681 31.72 397.215 31.52 397.615 31.12C398.041 30.6933 398.255 30.08 398.255 29.28V23.28H403.295V29.36ZM392.535 45.72V41.2H397.975V45.72H392.535Z" fill="white"/>
<path d="M8.68077 75.08C8.5741 73.8133 8.50077 72.78 8.46077 71.98C8.42077 71.18 8.40077 70.1867 8.40077 69V66.06H10.1408V69C10.1408 70.1867 10.1208 71.18 10.0808 71.98C10.0408 72.78 9.96744 73.8133 9.86077 75.08H8.68077ZM9.28077 79C8.90744 79 8.6341 78.9 8.46077 78.7C8.28744 78.5 8.20077 78.1867 8.20077 77.76C8.20077 77.32 8.28077 77.0133 8.44077 76.84C8.6141 76.6533 8.8941 76.56 9.28077 76.56C9.6541 76.56 9.92077 76.6533 10.0808 76.84C10.2541 77.0133 10.3408 77.32 10.3408 77.76C10.3408 78.1867 10.2541 78.5 10.0808 78.7C9.92077 78.9 9.6541 79 9.28077 79ZM25.2928 75.86C25.2928 76.3 25.4261 76.6533 25.6928 76.92C25.9728 77.1733 26.3661 77.3 26.8728 77.3H27.2328C27.3661 77.3 27.4328 77.5933 27.4328 78.18C27.4328 78.7267 27.3661 79 27.2328 79H26.9128C26.5661 79 26.2461 78.9467 25.9528 78.84C25.6595 78.7333 25.4395 78.5867 25.2928 78.4V78.66C25.2795 79.6733 25.0395 80.5733 24.5728 81.36C24.1061 82.16 23.4661 82.78 22.6528 83.22C21.8395 83.66 20.9061 83.88 19.8528 83.88H18.9728C17.2928 83.88 15.9995 83.3933 15.0928 82.42C14.1861 81.4467 13.7328 80.0867 13.7328 78.34V74.58H15.3928V78.3C15.3928 79.5667 15.6995 80.5267 16.3128 81.18C16.9261 81.8467 17.8261 82.18 19.0128 82.18H19.8528C21.0128 82.18 21.9328 81.84 22.6128 81.16C23.3061 80.4933 23.6528 79.5933 23.6528 78.46V72.58H25.2928V75.86ZM18.0728 71.96V70.3H20.1528V71.96H18.0728ZM30.4305 77.3C30.5638 77.3 30.6305 77.5933 30.6305 78.18C30.6305 78.5267 30.6105 78.7533 30.5705 78.86C30.5305 78.9533 30.4838 79 30.4305 79H27.4305C27.2971 79 27.2305 78.7267 27.2305 78.18C27.2305 77.5933 27.2971 77.3 27.4305 77.3H30.4305ZM33.6383 77.3C33.7716 77.3 33.8383 77.5933 33.8383 78.18C33.8383 78.5267 33.8183 78.7533 33.7783 78.86C33.7383 78.9533 33.6916 79 33.6383 79H30.6383C30.5049 79 30.4383 78.7267 30.4383 78.18C30.4383 77.5933 30.5049 77.3 30.6383 77.3H33.6383ZM39.3861 77.3C39.9594 77.3 40.4061 77.1867 40.7261 76.96C41.0594 76.72 41.2261 76.4133 41.2261 76.04C41.2261 75.76 41.1594 75.4933 41.0261 75.24C40.9061 74.9733 40.6994 74.6933 40.4061 74.4L35.7061 69.72V68.3L43.0061 65.4L43.4861 67L37.6461 69.3L41.6661 73.34C42.4794 74.14 42.8861 75.0467 42.8861 76.06C42.8861 76.94 42.5794 77.6533 41.9661 78.2C41.3527 78.7333 40.4927 79 39.3861 79H33.8461C33.7127 79 33.6461 78.7267 33.6461 78.18C33.6461 77.5933 33.7127 77.3 33.8461 77.3H39.3861ZM68.4487 75.7C68.4487 76.22 68.5887 76.62 68.8687 76.9C69.1487 77.1667 69.5687 77.3 70.1287 77.3C70.6887 77.3 71.1154 77.16 71.4087 76.88C71.7154 76.5867 71.8687 76.1933 71.8687 75.7V72.58H73.5087V75.7C73.5087 76.2333 73.6421 76.6333 73.9087 76.9C74.1887 77.1667 74.5821 77.3 75.0887 77.3H75.6887C75.8221 77.3 75.8887 77.5933 75.8887 78.18C75.8887 78.7267 75.8221 79 75.6887 79H75.0887C73.8087 79 72.9887 78.6067 72.6287 77.82C72.1354 78.6067 71.3021 79 70.1287 79C68.7954 79 67.9354 78.5867 67.5487 77.76C67.3087 78.16 66.9621 78.4667 66.5087 78.68C66.0687 78.8933 65.5421 79 64.9287 79C64.0354 79 63.4354 78.8 63.1287 78.4V78.66C63.1154 79.6733 62.8754 80.5733 62.4087 81.36C61.9421 82.16 61.3021 82.78 60.4887 83.22C59.6754 83.66 58.7421 83.88 57.6887 83.88H56.8087C55.1287 83.88 53.8354 83.3933 52.9287 82.42C52.0221 81.4467 51.5687 80.0867 51.5687 78.34V74.58H53.2287V78.3C53.2287 79.5667 53.5354 80.5267 54.1487 81.18C54.7621 81.8467 55.6621 82.18 56.8487 82.18H57.6887C58.8487 82.18 59.7687 81.84 60.4487 81.16C61.1421 80.4933 61.4887 79.5933 61.4887 78.46V72.58H63.1287V75.74C63.1287 76.2333 63.2754 76.62 63.5687 76.9C63.8754 77.1667 64.3287 77.3 64.9287 77.3C65.5154 77.3 65.9687 77.16 66.2887 76.88C66.6221 76.5867 66.7887 76.1933 66.7887 75.7V72.58H68.4487V75.7ZM66.7087 67.42V65.82H68.5287V67.42H66.7087ZM64.9887 70.16V68.58H70.2687V70.16H64.9887ZM76.5114 77.3C76.9914 77.3 77.3781 77.1667 77.6714 76.9C77.9781 76.62 78.1314 76.26 78.1314 75.82V66.06H79.7714V75.72C79.7714 76.2533 79.9114 76.6533 80.1914 76.92C80.4847 77.1733 80.8647 77.3 81.3314 77.3H81.8314C81.9647 77.3 82.0314 77.5867 82.0314 78.16C82.0314 78.72 81.9647 79 81.8314 79H81.2714C80.6847 79 80.1914 78.9 79.7914 78.7C79.3914 78.4867 79.1114 78.1867 78.9514 77.8C78.4847 78.6 77.6714 79 76.5114 79H75.8914C75.7581 79 75.6914 78.7267 75.6914 78.18C75.6914 77.5933 75.7581 77.3 75.8914 77.3H76.5114ZM87.3689 75.66C87.3689 76.7267 87.0756 77.5533 86.4889 78.14C85.9022 78.7133 85.1089 79 84.1089 79H82.0289C81.8956 79 81.8289 78.7267 81.8289 78.18C81.8289 77.5933 81.8956 77.3 82.0289 77.3H84.1089C84.6022 77.3 84.9956 77.1667 85.2889 76.9C85.5822 76.62 85.7289 76.22 85.7289 75.7V72.58H87.3689V75.66ZM80.9889 83.12V81.54H86.2689V83.12H80.9889ZM95.062 77.3C95.5554 77.3 95.942 77.2 96.222 77C96.502 76.8 96.642 76.5133 96.642 76.14C96.642 75.9 96.562 75.5733 96.402 75.16L94.422 69.56L95.942 68.86L98.282 75.6C98.4954 76.2267 98.7354 76.6667 99.002 76.92C99.2687 77.1733 99.642 77.3 100.122 77.3H100.542C100.675 77.3 100.742 77.5933 100.742 78.18C100.742 78.5267 100.722 78.7533 100.682 78.86C100.642 78.9533 100.595 79 100.542 79H100.062C99.462 79 98.9554 78.9 98.542 78.7C98.142 78.5 97.822 78.18 97.582 77.74C97.1687 78.58 96.3287 79 95.062 79H90.382L90.242 77.3H95.062ZM103.149 77.3C103.669 77.3 104.083 77.1667 104.389 76.9C104.696 76.6333 104.849 76.2733 104.849 75.82V72.58H106.489V75.76C106.489 76.2667 106.629 76.6533 106.909 76.92C107.189 77.1733 107.589 77.3 108.109 77.3H108.669C108.803 77.3 108.869 77.5867 108.869 78.16C108.869 78.72 108.803 79 108.669 79H108.049C106.823 79 106.023 78.6067 105.649 77.82C105.183 78.6067 104.349 79 103.149 79H100.749C100.616 79 100.549 78.7267 100.549 78.18C100.549 77.5933 100.616 77.3 100.749 77.3H103.149ZM100.589 83.2V81.54H102.669V83.2H100.589ZM114.219 75.66C114.219 76.7267 113.926 77.5533 113.339 78.14C112.752 78.7133 111.959 79 110.959 79H108.879C108.746 79 108.679 78.7267 108.679 78.18C108.679 77.5933 108.746 77.3 108.879 77.3H110.959C111.452 77.3 111.846 77.1667 112.139 76.9C112.432 76.62 112.579 76.22 112.579 75.7V72.58H114.219V75.66ZM109.579 70.16V68.58H114.859V70.16H109.579ZM122.598 75.7C122.598 74.9133 122.798 74.1467 123.198 73.4C123.598 72.64 124.284 71.76 125.258 70.76L124.378 69.86L125.538 68.64C126.831 69.84 127.811 70.82 128.478 71.58C129.158 72.34 129.624 73.0133 129.878 73.6C130.144 74.1867 130.278 74.8067 130.278 75.46C130.278 76.18 130.111 76.8267 129.778 77.4C129.458 77.96 128.991 78.4 128.378 78.72C127.778 79.04 127.078 79.2 126.278 79.2C125.158 79.2 124.264 78.8933 123.598 78.28C122.931 77.6533 122.598 76.7933 122.598 75.7ZM128.618 75.46C128.618 74.9 128.451 74.3533 128.118 73.82C127.798 73.2733 127.218 72.6067 126.378 71.82C125.591 72.6067 125.038 73.2867 124.718 73.86C124.411 74.4333 124.258 75.0133 124.258 75.6C124.258 76.1867 124.438 76.6533 124.798 77C125.171 77.3333 125.684 77.5 126.338 77.5C127.031 77.5 127.584 77.3133 127.998 76.94C128.411 76.5533 128.618 76.06 128.618 75.46ZM136.527 75.74C136.527 76.2467 136.674 76.6333 136.967 76.9C137.261 77.1667 137.681 77.3 138.227 77.3H138.487C138.621 77.3 138.687 77.5933 138.687 78.18C138.687 78.7267 138.621 79 138.487 79H138.227C137.867 79 137.527 78.94 137.207 78.82C136.901 78.6867 136.674 78.52 136.527 78.32V78.58C136.514 79.6467 136.287 80.58 135.847 81.38C135.407 82.18 134.794 82.7933 134.007 83.22C133.234 83.66 132.334 83.88 131.307 83.88H129.907L129.747 82.18H131.267C132.401 82.18 133.287 81.8467 133.927 81.18C134.567 80.5267 134.887 79.6067 134.887 78.42V72.58H136.527V75.74ZM134.647 67.42V65.82H136.467V67.42H134.647ZM132.927 70.16V68.58H138.207V70.16H132.927ZM141.683 77.3C141.816 77.3 141.883 77.5933 141.883 78.18C141.883 78.5267 141.863 78.7533 141.823 78.86C141.783 78.9533 141.736 79 141.683 79H138.683C138.549 79 138.483 78.7267 138.483 78.18C138.483 77.5933 138.549 77.3 138.683 77.3H141.683ZM144.891 77.3C145.024 77.3 145.091 77.5933 145.091 78.18C145.091 78.5267 145.071 78.7533 145.031 78.86C144.991 78.9533 144.944 79 144.891 79H141.891C141.757 79 141.691 78.7267 141.691 78.18C141.691 77.5933 141.757 77.3 141.891 77.3H144.891ZM148.098 77.3C148.232 77.3 148.298 77.5933 148.298 78.18C148.298 78.5267 148.278 78.7533 148.238 78.86C148.198 78.9533 148.152 79 148.098 79H145.098C144.965 79 144.898 78.7267 144.898 78.18C144.898 77.5933 144.965 77.3 145.098 77.3H148.098ZM151.306 77.3C151.44 77.3 151.506 77.5933 151.506 78.18C151.506 78.5267 151.486 78.7533 151.446 78.86C151.406 78.9533 151.36 79 151.306 79H148.306C148.173 79 148.106 78.7267 148.106 78.18C148.106 77.5933 148.173 77.3 148.306 77.3H151.306ZM156.854 75.66C156.854 76.7267 156.561 77.5533 155.974 78.14C155.387 78.7133 154.594 79 153.594 79H151.514C151.381 79 151.314 78.7267 151.314 78.18C151.314 77.5933 151.381 77.3 151.514 77.3H153.594C154.087 77.3 154.481 77.1667 154.774 76.9C155.067 76.62 155.214 76.22 155.214 75.7V72.58H156.854V75.66ZM150.474 83.12V81.54H155.754V83.12H150.474ZM167.807 78.58C167.807 79.62 167.594 80.54 167.167 81.34C166.741 82.1533 166.134 82.78 165.347 83.22C164.561 83.66 163.647 83.88 162.607 83.88H160.187L160.027 82.18H162.607C163.674 82.18 164.527 81.8933 165.167 81.32C165.821 80.7467 166.147 80.0067 166.147 79.1V79H164.227C162.907 79 161.927 78.7067 161.287 78.12C160.647 77.5333 160.327 76.6467 160.327 75.46V75.36C160.327 74.52 160.487 73.7733 160.807 73.12C161.127 72.4667 161.567 71.96 162.127 71.6C162.701 71.2267 163.347 71.04 164.067 71.04C165.227 71.04 166.141 71.4333 166.807 72.22C167.474 73.0067 167.807 74.0867 167.807 75.46V78.58ZM161.967 75.36C161.967 76.0667 162.134 76.5667 162.467 76.86C162.814 77.1533 163.401 77.3 164.227 77.3H166.147V75.46C166.147 74.5667 165.961 73.88 165.587 73.4C165.227 72.92 164.701 72.68 164.007 72.68C163.394 72.68 162.901 72.9133 162.527 73.38C162.154 73.8467 161.967 74.4733 161.967 75.26V75.36ZM175.055 82.18C176.188 82.18 177.075 81.8467 177.715 81.18C178.355 80.5267 178.675 79.6067 178.675 78.42V72.58H180.315V75.74C180.315 76.2467 180.462 76.6333 180.755 76.9C181.048 77.1667 181.468 77.3 182.015 77.3H182.275C182.408 77.3 182.475 77.5933 182.475 78.18C182.475 78.7267 182.408 79 182.275 79H182.015C181.655 79 181.315 78.94 180.995 78.82C180.688 78.6867 180.462 78.52 180.315 78.32V78.58C180.302 79.66 180.068 80.6 179.615 81.4C179.175 82.2 178.562 82.8133 177.775 83.24C177.002 83.6667 176.108 83.88 175.095 83.88H174.535L174.375 82.18H175.055ZM178.395 70.16V68.5H180.475V70.16H178.395ZM187.29 77.3C187.784 77.3 188.177 77.1667 188.47 76.9C188.764 76.62 188.91 76.22 188.91 75.7V72.58H190.55V75.66C190.55 76.7133 190.25 77.5333 189.65 78.12C189.064 78.7067 188.277 79 187.29 79H182.47C182.337 79 182.27 78.7267 182.27 78.18C182.27 77.5933 182.337 77.3 182.47 77.3H187.29ZM182.67 83.12V81.54H187.95V83.12H182.67ZM194.177 66.06H195.837V79H194.177V66.06ZM208.851 77.3C208.918 77.3 208.965 77.36 208.991 77.48C209.031 77.5867 209.051 77.82 209.051 78.18C209.051 78.5267 209.031 78.7533 208.991 78.86C208.965 78.9533 208.918 79 208.851 79H206.951C206.898 79.9733 206.651 80.8267 206.211 81.56C205.771 82.2933 205.171 82.86 204.411 83.26C203.651 83.6733 202.771 83.88 201.771 83.88H199.351L199.191 82.18H201.771C202.838 82.18 203.691 81.8933 204.331 81.32C204.985 80.7467 205.311 80.0067 205.311 79.1V79H203.391C202.071 79 201.091 78.7067 200.451 78.12C199.811 77.5333 199.491 76.6467 199.491 75.46V75.36C199.491 74.52 199.651 73.7733 199.971 73.12C200.291 72.4667 200.731 71.96 201.291 71.6C201.865 71.2267 202.511 71.04 203.231 71.04C204.391 71.04 205.305 71.4333 205.971 72.22C206.638 73.0067 206.971 74.0867 206.971 75.46V77.3H208.851ZM201.131 75.36C201.131 76.0667 201.298 76.5667 201.631 76.86C201.978 77.1533 202.565 77.3 203.391 77.3H205.311V75.46C205.311 74.5667 205.125 73.88 204.751 73.4C204.391 72.92 203.865 72.68 203.171 72.68C202.558 72.68 202.065 72.9133 201.691 73.38C201.318 73.8467 201.131 74.4733 201.131 75.26V75.36ZM212.047 77.3C212.18 77.3 212.247 77.5933 212.247 78.18C212.247 78.5267 212.227 78.7533 212.187 78.86C212.147 78.9533 212.1 79 212.047 79H209.047C208.914 79 208.847 78.7267 208.847 78.18C208.847 77.5933 208.914 77.3 209.047 77.3H212.047ZM213.675 77.3C214.675 77.3 215.521 77.2267 216.215 77.08C216.921 76.92 217.601 76.6533 218.255 76.28L221.275 74.52C221.075 73.8267 220.781 73.3467 220.395 73.08C220.021 72.8133 219.475 72.68 218.755 72.68H214.115L214.275 70.98H219.015C219.815 70.98 220.475 71.1133 220.995 71.38C221.515 71.6333 221.948 72.0533 222.295 72.64C222.641 73.2267 222.941 74.04 223.195 75.08L219.015 77.64C218.201 78.1333 217.388 78.4867 216.575 78.7C215.775 78.9 214.788 79 213.615 79H212.255C212.121 79 212.055 78.7267 212.055 78.18C212.055 77.5933 212.121 77.3 212.255 77.3H213.675ZM215.815 83.2V81.54H217.895V83.2H215.815ZM238.513 78.58C238.513 79.62 238.3 80.54 237.873 81.34C237.447 82.1533 236.84 82.78 236.053 83.22C235.267 83.66 234.353 83.88 233.313 83.88H230.893L230.733 82.18H233.313C234.38 82.18 235.233 81.8933 235.873 81.32C236.527 80.7467 236.853 80.0067 236.853 79.1V79H234.933C233.613 79 232.633 78.7067 231.993 78.12C231.353 77.5333 231.033 76.6467 231.033 75.46V75.36C231.033 74.52 231.193 73.7733 231.513 73.12C231.833 72.4667 232.273 71.96 232.833 71.6C233.407 71.2267 234.053 71.04 234.773 71.04C235.933 71.04 236.847 71.4333 237.513 72.22C238.18 73.0067 238.513 74.0867 238.513 75.46V78.58ZM232.673 75.36C232.673 76.0667 232.84 76.5667 233.173 76.86C233.52 77.1533 234.107 77.3 234.933 77.3H236.853V75.46C236.853 74.5667 236.667 73.88 236.293 73.4C235.933 72.92 235.407 72.68 234.713 72.68C234.1 72.68 233.607 72.9133 233.233 73.38C232.86 73.8467 232.673 74.4733 232.673 75.26V75.36ZM251.221 74.5C251.221 73.6733 251.455 73.0467 251.921 72.62H251.001C250.228 72.62 249.621 72.8267 249.181 73.24C248.755 73.64 248.541 74.2133 248.541 74.96V83.8H246.881V74.96C246.881 73.7733 247.261 72.8267 248.021 72.12C248.795 71.4 249.821 71.04 251.101 71.04H255.261C256.381 71.04 257.228 71.3267 257.801 71.9C258.388 72.46 258.681 73.2467 258.681 74.26V75.42C258.681 76.62 258.361 77.52 257.721 78.12C257.081 78.7067 256.148 79 254.921 79C253.708 79 252.788 78.7 252.161 78.1C251.535 77.5 251.221 76.6067 251.221 75.42V74.5ZM254.921 77.3C256.335 77.3 257.041 76.6867 257.041 75.46V74.36C257.041 73.8267 256.881 73.4067 256.561 73.1C256.241 72.78 255.808 72.62 255.261 72.62H254.601C254.055 72.62 253.628 72.78 253.321 73.1C253.015 73.42 252.861 73.8533 252.861 74.4V75.38C252.861 76.0067 253.035 76.4867 253.381 76.82C253.741 77.14 254.255 77.3 254.921 77.3ZM262.281 66.06H263.941V79H262.281V66.06ZM275.075 78.58C275.075 79.62 274.862 80.54 274.435 81.34C274.008 82.1533 273.402 82.78 272.615 83.22C271.828 83.66 270.915 83.88 269.875 83.88H267.455L267.295 82.18H269.875C270.942 82.18 271.795 81.8933 272.435 81.32C273.088 80.7467 273.415 80.0067 273.415 79.1V79H271.495C270.175 79 269.195 78.7067 268.555 78.12C267.915 77.5333 267.595 76.6467 267.595 75.46V75.36C267.595 74.52 267.755 73.7733 268.075 73.12C268.395 72.4667 268.835 71.96 269.395 71.6C269.968 71.2267 270.615 71.04 271.335 71.04C272.495 71.04 273.408 71.4333 274.075 72.22C274.742 73.0067 275.075 74.0867 275.075 75.46V78.58ZM269.235 75.36C269.235 76.0667 269.402 76.5667 269.735 76.86C270.082 77.1533 270.668 77.3 271.495 77.3H273.415V75.46C273.415 74.5667 273.228 73.88 272.855 73.4C272.495 72.92 271.968 72.68 271.275 72.68C270.662 72.68 270.168 72.9133 269.795 73.38C269.422 73.8467 269.235 74.4733 269.235 75.26V75.36ZM285.103 74.36C285.103 75.0133 285.256 75.5067 285.563 75.84C285.87 76.16 286.35 76.32 287.003 76.32C287.71 76.32 288.263 76.1933 288.663 75.94C289.076 75.6733 289.283 75.32 289.283 74.88V71.98H287.343C286.636 71.98 286.083 72.1867 285.683 72.6C285.296 73.0133 285.103 73.6 285.103 74.36ZM290.943 75.3C290.943 75.9933 291.063 76.5 291.303 76.82C291.556 77.14 291.923 77.3 292.403 77.3H292.883C292.95 77.3 292.996 77.36 293.023 77.48C293.063 77.5867 293.083 77.82 293.083 78.18C293.083 78.5267 293.063 78.7533 293.023 78.86C292.996 78.9533 292.95 79 292.883 79H292.403C290.923 79 290.03 78.36 289.723 77.08C289.443 77.4 289.05 77.64 288.543 77.8C288.036 77.9467 287.49 78.02 286.903 78.02C285.77 78.02 284.91 77.7133 284.323 77.1C283.736 76.4867 283.443 75.5867 283.443 74.4C283.443 73.6533 283.603 72.9733 283.923 72.36C284.256 71.7333 284.716 71.24 285.303 70.88C285.903 70.52 286.583 70.34 287.343 70.34H289.283V68.96H290.943V75.3ZM298.418 75.66C298.418 76.7267 298.125 77.5533 297.538 78.14C296.951 78.7133 296.158 79 295.158 79H293.078C292.945 79 292.878 78.7267 292.878 78.18C292.878 77.5933 292.945 77.3 293.078 77.3H295.158C295.651 77.3 296.045 77.1667 296.338 76.9C296.631 76.62 296.778 76.22 296.778 75.7V72.58H298.418V75.66ZM293.638 83.2V81.54H295.718V83.2H293.638ZM307.877 79C307.49 79 307.21 78.9 307.037 78.7C306.877 78.5 306.797 78.1467 306.797 77.64C306.797 76.52 306.844 75.72 306.937 75.24C307.044 74.76 307.23 74.4267 307.497 74.24C307.777 74.04 308.257 73.8733 308.937 73.74V74.84C308.577 74.9067 308.324 74.9867 308.177 75.08C308.044 75.16 307.95 75.3 307.897 75.5C307.857 75.7 307.837 76.0533 307.837 76.56C308.237 76.56 308.517 76.6533 308.677 76.84C308.85 77.0133 308.937 77.32 308.937 77.76C308.937 78.1867 308.85 78.5 308.677 78.7C308.517 78.9 308.25 79 307.877 79ZM311.267 82.18C312.401 82.18 313.287 81.8467 313.927 81.18C314.567 80.5267 314.887 79.6067 314.887 78.42V72.58H316.527V75.74C316.527 76.2467 316.674 76.6333 316.967 76.9C317.261 77.1667 317.681 77.3 318.227 77.3H318.487C318.621 77.3 318.687 77.5933 318.687 78.18C318.687 78.7267 318.621 79 318.487 79H318.227C317.867 79 317.527 78.94 317.207 78.82C316.901 78.6867 316.674 78.52 316.527 78.32V78.58C316.514 79.66 316.281 80.6 315.827 81.4C315.387 82.2 314.774 82.8133 313.987 83.24C313.214 83.6667 312.321 83.88 311.307 83.88H310.747L310.587 82.18H311.267ZM322.463 77.3C322.983 77.3 323.396 77.1667 323.703 76.9C324.009 76.6333 324.163 76.2733 324.163 75.82V72.58H325.823V75.76C325.823 76.7867 326.363 77.3 327.443 77.3H327.983C328.116 77.3 328.183 77.5867 328.183 78.16C328.183 78.72 328.116 79 327.983 79H327.383C326.143 79 325.343 78.6067 324.983 77.82C324.489 78.6067 323.649 79 322.463 79H318.683C318.549 79 318.483 78.7267 318.483 78.18C318.483 77.5933 318.549 77.3 318.683 77.3H322.463ZM318.443 83.12V81.54H323.723V83.12H318.443ZM333.72 77.3C334.293 77.3 334.74 77.1867 335.06 76.96C335.393 76.72 335.56 76.4133 335.56 76.04C335.56 75.76 335.493 75.4933 335.36 75.24C335.24 74.9733 335.033 74.6933 334.74 74.4L330.04 69.72V68.3L337.34 65.4L337.82 67L331.98 69.3L335.96 73.28C337.226 74.56 338.16 75.4733 338.76 76.02C339.36 76.5533 339.833 76.9 340.18 77.06C340.526 77.22 340.92 77.3 341.36 77.3C341.493 77.3 341.56 77.5933 341.56 78.18C341.56 78.7267 341.493 79 341.36 79C340.786 79 340.313 78.9467 339.94 78.84C339.566 78.72 339.16 78.5 338.72 78.18C338.293 77.8467 337.72 77.32 337 76.6C337 76.7867 336.953 76.9733 336.86 77.16C336.673 77.7333 336.306 78.1867 335.76 78.52C335.213 78.84 334.533 79 333.72 79H328.18C328.046 79 327.98 78.7267 327.98 78.18C327.98 77.5933 328.046 77.3 328.18 77.3H333.72ZM336.48 62.42L336.82 63.48L329.96 66.32V65.14L336.48 62.42ZM346.903 75.66C346.903 76.7267 346.61 77.5533 346.023 78.14C345.437 78.7133 344.643 79 343.643 79H341.563C341.43 79 341.363 78.7267 341.363 78.18C341.363 77.5933 341.43 77.3 341.563 77.3H343.643C344.137 77.3 344.53 77.1667 344.823 76.9C345.117 76.62 345.263 76.22 345.263 75.7V72.58H346.903V75.66ZM342.123 83.2V81.54H344.203V83.2H342.123ZM359.422 78.42C359.422 79.5267 359.202 80.4933 358.762 81.32C358.322 82.1467 357.709 82.78 356.922 83.22C356.135 83.66 355.229 83.88 354.202 83.88H353.642L353.482 82.18H354.162C355.295 82.18 356.182 81.8467 356.822 81.18C357.462 80.5267 357.782 79.6067 357.782 78.42V72.58H359.422V78.42ZM357.502 70.16V68.5H359.582V70.16H357.502ZM366.665 77.3C366.799 77.3 366.865 77.5933 366.865 78.18C366.865 78.7267 366.799 79 366.665 79H366.145C365.132 79 364.359 78.7 363.825 78.1C363.305 77.4867 363.045 76.62 363.045 75.5V66.06H364.705V75.42C364.705 76.0467 364.825 76.52 365.065 76.84C365.319 77.1467 365.705 77.3 366.225 77.3H366.665ZM369.275 77.3C369.795 77.3 370.208 77.1667 370.515 76.9C370.822 76.6333 370.975 76.2733 370.975 75.82V72.58H372.615V75.76C372.615 76.2667 372.755 76.6533 373.035 76.92C373.315 77.1733 373.715 77.3 374.235 77.3H374.795C374.928 77.3 374.995 77.5867 374.995 78.16C374.995 78.72 374.928 79 374.795 79H374.175C372.948 79 372.148 78.6067 371.775 77.82C371.308 78.6067 370.475 79 369.275 79H366.875C366.742 79 366.675 78.7267 366.675 78.18C366.675 77.5933 366.742 77.3 366.875 77.3H369.275ZM365.115 83.12V81.54H370.395V83.12H365.115ZM377.405 77.3C377.925 77.3 378.338 77.1667 378.645 76.9C378.951 76.6333 379.105 76.2733 379.105 75.82V72.58H380.745V75.76C380.745 76.2667 380.885 76.6533 381.165 76.92C381.445 77.1733 381.845 77.3 382.365 77.3H382.925C383.058 77.3 383.125 77.5867 383.125 78.16C383.125 78.72 383.058 79 382.925 79H382.305C381.078 79 380.278 78.6067 379.905 77.82C379.438 78.6067 378.605 79 377.405 79H375.005C374.871 79 374.805 78.7267 374.805 78.18C374.805 77.5933 374.871 77.3 375.005 77.3H377.405ZM376.205 70.16V68.58H381.485V70.16H376.205ZM386.134 77.3C386.268 77.3 386.334 77.5933 386.334 78.18C386.334 78.5267 386.314 78.7533 386.274 78.86C386.234 78.9533 386.188 79 386.134 79H383.134C383.001 79 382.934 78.7267 382.934 78.18C382.934 77.5933 383.001 77.3 383.134 77.3H386.134ZM389.342 77.3C389.475 77.3 389.542 77.5933 389.542 78.18C389.542 78.5267 389.522 78.7533 389.482 78.86C389.442 78.9533 389.395 79 389.342 79H386.342C386.209 79 386.142 78.7267 386.142 78.18C386.142 77.5933 386.209 77.3 386.342 77.3H389.342ZM395.25 71.04C396.437 71.04 397.35 71.3867 397.99 72.08C398.63 72.7733 398.95 73.7667 398.95 75.06V75.16C398.95 76.36 398.617 77.3 397.95 77.98C397.283 78.66 396.363 79 395.19 79C393.79 79 392.857 78.58 392.39 77.74C392.163 78.18 391.863 78.5 391.49 78.7C391.117 78.9 390.623 79 390.01 79H389.55C389.417 79 389.35 78.7267 389.35 78.18C389.35 77.5933 389.417 77.3 389.55 77.3H390.01C390.97 77.3 391.45 76.8667 391.45 76V75.16C391.45 73.88 391.783 72.8733 392.45 72.14C393.13 71.4067 394.063 71.04 395.25 71.04ZM395.19 72.68C394.47 72.68 393.937 72.88 393.59 73.28C393.257 73.68 393.09 74.2867 393.09 75.1V75.2C393.09 75.8667 393.27 76.3867 393.63 76.76C394.003 77.12 394.523 77.3 395.19 77.3C396.59 77.3 397.29 76.5867 397.29 75.16V75.06C397.29 73.4733 396.59 72.68 395.19 72.68ZM402.546 66.06H404.206V79H402.546V66.06Z" fill="white"/>
</svg>
