<svg width="528" height="106" viewBox="0 0 528 106" fill="none" xmlns="http://www.w3.org/2000/svg">
<path d="M31.6744 28.44C31.6744 28.792 31.7384 29.048 31.8664 29.208C32.0264 29.336 32.2824 29.4 32.6344 29.4H34.5544C34.8744 29.4 35.0344 31 35.0344 34.2C35.0344 37.4 34.8744 39 34.5544 39H32.8744C32.2344 39 31.7544 38.92 31.4344 38.76L31.3864 39.048C31.0664 41.128 30.3144 43 29.1304 44.664C27.9464 46.328 26.3784 47.64 24.4264 48.6C22.4744 49.56 20.2504 50.04 17.7544 50.04H15.5944C11.4024 50.04 8.10638 48.792 5.70638 46.296C3.33838 43.832 2.15438 40.44 2.15438 36.12V25.8H11.2744V35.88C11.2744 37.448 11.6424 38.6 12.3784 39.336C13.1144 40.072 14.2664 40.44 15.8344 40.44H17.7544C19.2904 40.44 20.4744 40.104 21.3064 39.432C22.1384 38.76 22.5544 37.816 22.5544 36.6V21H31.6744V28.44ZM10.3144 22.2V15.24H19.4344V22.2H10.3144ZM47.4109 17.64C50.5789 17.64 53.0269 18.568 54.7549 20.424C56.4829 22.248 57.3469 24.84 57.3469 28.2V28.44C57.3469 31.704 56.4349 34.28 54.6109 36.168C52.7869 38.056 50.2589 39 47.0269 39C45.8749 39 44.8349 38.856 43.9069 38.568C42.9789 38.248 42.2589 37.832 41.7469 37.32C40.6269 38.44 38.7869 39 36.2269 39H34.5469C34.2269 39 34.0669 37.4 34.0669 34.2C34.0669 32.152 34.1149 30.84 34.2109 30.264C34.3069 29.688 34.4189 29.4 34.5469 29.4H36.2269C36.5149 29.4 36.7389 29.32 36.8989 29.16C37.0909 29 37.1869 28.76 37.1869 28.44V27.96C37.1869 24.824 38.0989 22.328 39.9229 20.472C41.7469 18.584 44.2429 17.64 47.4109 17.64ZM47.1709 26.52C46.6589 26.52 46.2589 26.664 45.9709 26.952C45.7149 27.24 45.5869 27.624 45.5869 28.104V28.344C45.5869 28.824 45.7149 29.208 45.9709 29.496C46.2589 29.752 46.6589 29.88 47.1709 29.88C48.1949 29.88 48.7069 29.368 48.7069 28.344V28.104C48.7069 27.624 48.5629 27.24 48.2749 26.952C48.0189 26.664 47.6509 26.52 47.1709 26.52ZM73.17 29.4C73.33 29.4 73.442 29.688 73.506 30.264C73.602 30.84 73.65 32.152 73.65 34.2C73.65 36.248 73.602 37.56 73.506 38.136C73.442 38.712 73.33 39 73.17 39H70.77C67.698 39 65.362 38.152 63.762 36.456C62.194 34.76 61.41 32.328 61.41 29.16V8.28H70.53V28.44C70.53 28.792 70.594 29.048 70.722 29.208C70.882 29.336 71.138 29.4 71.49 29.4H73.17ZM74.8519 29.4C75.4919 29.4 75.8119 29.16 75.8119 28.68V21H84.9319V26.904V27C87.1079 23.736 89.2839 21.32 91.4599 19.752C93.6679 18.184 95.9719 17.4 98.3719 17.4C100.26 17.4 101.924 17.848 103.364 18.744C104.836 19.64 105.972 20.888 106.772 22.488C107.572 24.088 107.972 25.912 107.972 27.96C107.972 30.168 107.508 32.104 106.58 33.768C105.684 35.432 104.404 36.728 102.74 37.656C101.076 38.552 99.1399 39 96.9319 39H85.4119C83.0439 39 81.2839 38.44 80.1319 37.32C79.5239 37.928 78.8199 38.36 78.0199 38.616C77.2199 38.872 76.1639 39 74.8519 39H73.1719C72.8519 39 72.6919 37.4 72.6919 34.2C72.6919 32.152 72.7399 30.84 72.8359 30.264C72.9319 29.688 73.0439 29.4 73.1719 29.4H74.8519ZM97.1719 29.64C97.7479 29.64 98.2119 29.48 98.5639 29.16C98.9159 28.84 99.0919 28.44 99.0919 27.96C99.0919 27.576 98.9639 27.24 98.7079 26.952C98.4519 26.664 98.0999 26.52 97.6519 26.52C96.7879 26.52 95.1879 27.56 92.8519 29.64H97.1719ZM92.8519 15V8.04H101.972V15H92.8519ZM139.894 36.36C139.894 40.68 138.758 44.04 136.486 46.44C134.246 48.84 131.142 50.04 127.174 50.04H119.974L119.254 40.68H128.854C129.526 40.68 130.054 40.536 130.438 40.248C130.822 39.96 131.014 39.624 131.014 39.24V38.76H129.814C126.102 38.76 123.446 37.992 121.846 36.456C120.278 34.888 119.494 32.296 119.494 28.68V28.44C119.494 26.392 119.91 24.552 120.742 22.92C121.606 21.256 122.79 19.96 124.294 19.032C125.83 18.104 127.59 17.64 129.574 17.64C132.838 17.64 135.366 18.632 137.158 20.616C138.982 22.568 139.894 25.336 139.894 28.92V36.36ZM128.134 28.44C128.134 28.92 128.262 29.288 128.518 29.544C128.806 29.768 129.238 29.88 129.814 29.88H131.254V28.44C131.254 27.16 130.71 26.52 129.622 26.52C129.142 26.52 128.774 26.68 128.518 27C128.262 27.288 128.134 27.688 128.134 28.2V28.44ZM160.296 39C157.288 39 154.968 38.184 153.336 36.552C151.736 34.888 150.936 32.504 150.936 29.4V21H160.056V28.2C160.056 28.584 160.136 28.888 160.296 29.112C160.488 29.304 160.808 29.4 161.256 29.4H174.456C174.744 29.4 174.968 29.336 175.128 29.208C175.32 29.048 175.416 28.872 175.416 28.68C175.416 28.36 175.176 27.96 174.696 27.48L165.576 18.6V11.88L185.256 4.68L187.416 13.8L177.816 17.4L181.656 21.24C184.12 23.704 186.04 25.512 187.416 26.664C188.824 27.784 189.96 28.52 190.824 28.872C191.72 29.224 192.744 29.4 193.896 29.4C194.216 29.4 194.376 31 194.376 34.2C194.376 37.4 194.216 39 193.896 39C191.816 39 190.184 38.936 189 38.808C187.848 38.648 186.888 38.376 186.12 37.992C185.352 37.576 184.616 36.952 183.912 36.12C183.592 36.504 183.16 36.888 182.616 37.272C181.88 37.784 180.936 38.2 179.784 38.52C178.632 38.84 177.416 39 176.136 39H160.296ZM197.715 29.4C202.003 29.4 205.587 28.76 208.467 27.48L208.995 27.24C208.867 26.792 208.691 26.488 208.467 26.328C208.243 26.136 207.939 26.04 207.555 26.04H196.755L197.475 16.92H209.955C211.747 16.92 213.251 17.32 214.467 18.12C215.715 18.92 216.787 20.264 217.683 22.152C218.611 24.008 219.475 26.584 220.275 29.88L209.235 36.12C207.475 37.144 205.699 37.88 203.907 38.328C202.115 38.776 199.891 39 197.235 39H193.875C193.555 39 193.395 37.4 193.395 34.2C193.395 32.152 193.443 30.84 193.539 30.264C193.635 29.688 193.747 29.4 193.875 29.4H197.715ZM201.315 57.24V50.52H208.515V57.24H201.315ZM197.715 48.84V41.88H212.115V48.84H197.715ZM239.498 26.76C239.498 27.72 239.978 28.2 240.938 28.2C241.898 28.2 242.378 27.72 242.378 26.76V25.08H241.418C240.714 25.08 240.218 25.208 239.93 25.464C239.642 25.72 239.498 26.152 239.498 26.76ZM251.018 28.44C251.018 28.696 251.098 28.92 251.258 29.112C251.418 29.304 251.658 29.4 251.978 29.4H253.898C254.218 29.4 254.378 31 254.378 34.2C254.378 37.4 254.218 39 253.898 39H251.738C248.538 39 246.458 37.8 245.498 35.4C244.154 36.52 242.234 37.08 239.738 37.08C236.986 37.08 234.81 36.248 233.21 34.584C231.642 32.888 230.858 30.36 230.858 27C230.858 25.208 231.242 23.48 232.01 21.816C232.81 20.152 233.93 18.808 235.37 17.784C236.842 16.728 238.538 16.2 240.458 16.2H241.898V13.08H251.018V28.44ZM268.035 29.16C268.035 32.264 267.187 34.68 265.491 36.408C263.795 38.136 261.443 39 258.435 39H253.875C253.555 39 253.395 37.4 253.395 34.2C253.395 32.152 253.443 30.84 253.539 30.264C253.635 29.688 253.747 29.4 253.875 29.4H257.955C258.243 29.4 258.467 29.32 258.627 29.16C258.819 28.968 258.915 28.728 258.915 28.44V21H268.035V29.16ZM253.155 48.84V41.88H262.275V48.84H253.155ZM293.012 36.36C293.012 38.984 292.468 41.336 291.38 43.416C290.324 45.496 288.788 47.112 286.772 48.264C284.788 49.448 282.468 50.04 279.812 50.04H277.412L276.692 40.44H279.092C282.292 40.44 283.892 39.16 283.892 36.6V21H293.012V36.36ZM283.892 18.12V11.16H293.012V18.12H283.892ZM308.858 29.4C309.018 29.4 309.13 29.688 309.194 30.264C309.29 30.84 309.338 32.152 309.338 34.2C309.338 36.248 309.29 37.56 309.194 38.136C309.13 38.712 309.018 39 308.858 39H306.458C303.386 39 301.05 38.152 299.45 36.456C297.882 34.76 297.098 32.328 297.098 29.16V8.28H306.218V28.44C306.218 28.792 306.282 29.048 306.41 29.208C306.57 29.336 306.826 29.4 307.178 29.4H308.858ZM312.939 29.352C313.579 29.352 313.899 29.112 313.899 28.632V20.952H323.019V28.632C323.019 29.112 323.339 29.352 323.979 29.352H324.939C325.259 29.352 325.419 30.952 325.419 34.152C325.419 37.352 325.259 38.952 324.939 38.952H323.499C321.131 38.952 319.371 38.392 318.219 37.272C317.611 37.88 316.907 38.312 316.107 38.568C315.307 38.824 314.251 38.952 312.939 38.952H308.859C308.539 38.952 308.379 37.352 308.379 34.152C308.379 32.104 308.427 30.792 308.523 30.216C308.619 29.64 308.731 29.352 308.859 29.352H312.939ZM303.579 48.792V41.832H317.979V48.792H303.579ZM339.098 29.16C339.098 32.264 338.25 34.68 336.554 36.408C334.858 38.136 332.506 39 329.498 39H324.938C324.617 39 324.457 37.4 324.457 34.2C324.457 32.152 324.505 30.84 324.601 30.264C324.697 29.688 324.809 29.4 324.938 29.4H329.018C329.306 29.4 329.53 29.32 329.69 29.16C329.882 28.968 329.978 28.728 329.978 28.44V21H339.098V29.16ZM328.058 18.12V11.16H337.178V18.12H328.058ZM363.594 50.04C359.402 50.04 356.106 48.792 353.706 46.296C351.338 43.832 350.154 40.44 350.154 36.12V25.8H359.274V35.88C359.274 37.448 359.642 38.6 360.378 39.336C361.114 40.072 362.266 40.44 363.834 40.44H365.754C367.29 40.44 368.474 40.104 369.306 39.432C370.138 38.76 370.554 37.816 370.554 36.6V21H379.674V35.88C379.674 38.6 379.114 41.032 377.994 43.176C376.874 45.32 375.258 47 373.146 48.216C371.034 49.432 368.57 50.04 365.754 50.04H363.594ZM358.314 22.2V15.24H367.434V22.2H358.314ZM404.409 36.36C404.409 40.68 403.273 44.04 401.001 46.44C398.761 48.84 395.657 50.04 391.689 50.04H384.489L383.769 40.68H393.369C394.041 40.68 394.569 40.536 394.953 40.248C395.337 39.96 395.529 39.624 395.529 39.24V38.76H394.329C390.617 38.76 387.961 37.992 386.361 36.456C384.793 34.888 384.009 32.296 384.009 28.68V28.44C384.009 26.392 384.425 24.552 385.257 22.92C386.121 21.256 387.305 19.96 388.809 19.032C390.345 18.104 392.105 17.64 394.089 17.64C397.353 17.64 399.881 18.632 401.673 20.616C403.497 22.568 404.409 25.336 404.409 28.92V36.36ZM392.649 28.44C392.649 28.92 392.777 29.288 393.033 29.544C393.321 29.768 393.753 29.88 394.329 29.88H395.769V28.44C395.769 27.16 395.225 26.52 394.137 26.52C393.657 26.52 393.289 26.68 393.033 27C392.777 27.288 392.649 27.688 392.649 28.2V28.44ZM418.553 29.4C418.809 29.4 419.033 29.336 419.225 29.208C419.417 29.08 419.513 28.904 419.513 28.68C419.513 28.392 419.433 28.072 419.273 27.72L414.953 16.68L423.593 12.6L429.353 28.44C429.449 28.696 429.609 28.92 429.833 29.112C430.089 29.304 430.345 29.4 430.601 29.4H432.233C432.553 29.4 432.713 31 432.713 34.2C432.713 36.28 432.665 37.608 432.569 38.184C432.473 38.728 432.361 39 432.233 39H429.785C427.545 39 425.881 38.44 424.793 37.32C424.025 37.992 423.289 38.44 422.585 38.664C421.913 38.888 421.209 39 420.473 39H408.473L407.753 29.4H418.553ZM446.394 29.16C446.394 32.264 445.546 34.68 443.85 36.408C442.154 38.136 439.802 39 436.794 39H432.234C431.914 39 431.754 37.4 431.754 34.2C431.754 32.152 431.802 30.84 431.898 30.264C431.994 29.688 432.106 29.4 432.234 29.4H436.314C436.602 29.4 436.826 29.32 436.986 29.16C437.178 28.968 437.274 28.728 437.274 28.44V21H446.394V29.16ZM431.514 48.84V41.88H440.634V48.84H431.514ZM468.251 28.44C468.251 27.704 468.331 27.144 468.491 26.76H467.531C466.891 26.76 466.571 27.16 466.571 27.96V49.56H457.451V28.2C457.451 24.968 458.395 22.408 460.283 20.52C462.203 18.6 464.779 17.64 468.011 17.64H478.571C481.675 17.64 484.011 18.456 485.579 20.088C487.147 21.688 487.931 24.008 487.931 27.048V29.592C487.931 32.472 487.003 34.76 485.147 36.456C483.323 38.152 480.891 39 477.851 39C474.811 39 472.443 38.232 470.747 36.696C469.083 35.128 468.251 32.856 468.251 29.88V28.44ZM478.091 30.12C479.051 30.12 479.531 29.64 479.531 28.68V27.96C479.531 27 479.067 26.52 478.139 26.52H478.043C477.115 26.52 476.651 27 476.651 27.96V28.68C476.651 29.64 477.131 30.12 478.091 30.12ZM492.004 8.28H501.124V39H492.004V8.28ZM526.097 36.36C526.097 40.68 524.961 44.04 522.689 46.44C520.449 48.84 517.345 50.04 513.377 50.04H506.177L505.457 40.68H515.057C515.729 40.68 516.257 40.536 516.641 40.248C517.025 39.96 517.217 39.624 517.217 39.24V38.76H516.017C512.305 38.76 509.649 37.992 508.049 36.456C506.481 34.888 505.697 32.296 505.697 28.68V28.44C505.697 26.392 506.113 24.552 506.945 22.92C507.809 21.256 508.993 19.96 510.497 19.032C512.033 18.104 513.793 17.64 515.777 17.64C519.041 17.64 521.569 18.632 523.361 20.616C525.185 22.568 526.097 25.336 526.097 28.92V36.36ZM514.337 28.44C514.337 28.92 514.465 29.288 514.721 29.544C515.009 29.768 515.441 29.88 516.017 29.88H517.457V28.44C517.457 27.16 516.913 26.52 515.825 26.52C515.345 26.52 514.977 26.68 514.721 27C514.465 27.288 514.337 27.688 514.337 28.2V28.44Z" fill="white"/>
<path d="M252.287 87.296C252.159 85.776 252.071 84.536 252.023 83.576C251.975 82.616 251.951 81.424 251.951 80V76.472H254.039V80C254.039 81.424 254.015 82.616 253.967 83.576C253.919 84.536 253.831 85.776 253.703 87.296H252.287ZM253.007 92C252.559 92 252.231 91.88 252.023 91.64C251.815 91.4 251.711 91.024 251.711 90.512C251.711 89.984 251.807 89.616 251.999 89.408C252.207 89.184 252.543 89.072 253.007 89.072C253.455 89.072 253.775 89.184 253.967 89.408C254.175 89.616 254.279 89.984 254.279 90.512C254.279 91.024 254.175 91.4 253.967 91.64C253.775 91.88 253.455 92 253.007 92ZM272.222 88.232C272.222 88.76 272.382 89.184 272.702 89.504C273.038 89.808 273.51 89.96 274.118 89.96H274.55C274.71 89.96 274.79 90.312 274.79 91.016C274.79 91.672 274.71 92 274.55 92H274.166C273.75 92 273.366 91.936 273.014 91.808C272.662 91.68 272.398 91.504 272.222 91.28V91.592C272.206 92.808 271.918 93.888 271.358 94.832C270.798 95.792 270.03 96.536 269.054 97.064C268.078 97.592 266.958 97.856 265.694 97.856H264.638C262.622 97.856 261.07 97.272 259.982 96.104C258.894 94.936 258.35 93.304 258.35 91.208V86.696H260.342V91.16C260.342 92.68 260.71 93.832 261.446 94.616C262.182 95.416 263.262 95.816 264.686 95.816H265.694C267.086 95.816 268.19 95.408 269.006 94.592C269.838 93.792 270.254 92.712 270.254 91.352V84.296H272.222V88.232ZM263.558 83.552V81.56H266.054V83.552H263.558ZM281.435 89.96C282.123 89.96 282.659 89.824 283.043 89.552C283.443 89.264 283.643 88.896 283.643 88.448C283.643 88.112 283.563 87.792 283.403 87.488C283.259 87.168 283.011 86.832 282.659 86.48L277.019 80.864V79.16L285.779 75.68L286.355 77.6L279.347 80.36L284.171 85.208C285.147 86.168 285.635 87.256 285.635 88.472C285.635 89.528 285.267 90.384 284.531 91.04C283.795 91.68 282.763 92 281.435 92H274.787C274.627 92 274.547 91.672 274.547 91.016C274.547 90.312 274.627 89.96 274.787 89.96H281.435ZM301.19 89.96C301.782 89.96 302.246 89.84 302.582 89.6C302.918 89.36 303.086 89.016 303.086 88.568C303.086 88.28 302.99 87.888 302.798 87.392L300.422 80.672L302.246 79.832L305.054 87.92C305.31 88.672 305.598 89.2 305.918 89.504C306.238 89.808 306.686 89.96 307.262 89.96H307.766C307.926 89.96 308.006 90.312 308.006 91.016C308.006 91.432 307.982 91.704 307.934 91.832C307.886 91.944 307.83 92 307.766 92H307.19C306.47 92 305.862 91.88 305.366 91.64C304.886 91.4 304.502 91.016 304.214 90.488C303.718 91.496 302.71 92 301.19 92H295.574L295.406 89.96H301.19ZM313.799 89.96C314.391 89.96 314.863 89.8 315.215 89.48C315.567 89.144 315.743 88.664 315.743 88.04V84.296H317.711V87.992C317.711 89.256 317.351 90.24 316.631 90.944C315.927 91.648 314.983 92 313.799 92H308.015C307.855 92 307.775 91.672 307.775 91.016C307.775 90.312 307.855 89.96 308.015 89.96H313.799ZM308.255 96.944V95.048H314.591V96.944H308.255ZM318.932 95.816C320.292 95.816 321.356 95.416 322.124 94.616C322.892 93.832 323.276 92.728 323.276 91.304V84.296H325.244V88.088C325.244 88.696 325.42 89.16 325.772 89.48C326.124 89.8 326.628 89.96 327.284 89.96H327.596C327.756 89.96 327.836 90.312 327.836 91.016C327.836 91.672 327.756 92 327.596 92H327.284C326.852 92 326.444 91.928 326.06 91.784C325.692 91.624 325.42 91.424 325.244 91.184V91.496C325.228 92.792 324.948 93.92 324.404 94.88C323.876 95.84 323.14 96.576 322.196 97.088C321.268 97.6 320.196 97.856 318.98 97.856H318.308L318.116 95.816H318.932ZM329.535 89.96C330.735 89.96 331.751 89.872 332.583 89.696C333.431 89.504 334.247 89.184 335.031 88.736L338.655 86.624C338.415 85.792 338.063 85.216 337.599 84.896C337.151 84.576 336.495 84.416 335.631 84.416H330.063L330.255 82.376H335.943C336.903 82.376 337.695 82.536 338.319 82.856C338.943 83.16 339.463 83.664 339.879 84.368C340.295 85.072 340.655 86.048 340.959 87.296L335.943 90.368C334.967 90.96 333.991 91.384 333.015 91.64C332.055 91.88 330.871 92 329.463 92H327.831C327.671 92 327.591 91.672 327.591 91.016C327.591 90.312 327.671 89.96 327.831 89.96H329.535ZM332.991 79.592V77.6H335.487V79.592H332.991ZM359.341 91.496C359.341 92.744 359.085 93.848 358.573 94.808C358.061 95.784 357.333 96.536 356.389 97.064C355.445 97.592 354.349 97.856 353.101 97.856H350.197L350.005 95.816H353.101C354.381 95.816 355.405 95.472 356.173 94.784C356.957 94.096 357.349 93.208 357.349 92.12V92H355.045C353.461 92 352.285 91.648 351.517 90.944C350.749 90.24 350.365 89.176 350.365 87.752V87.632C350.365 86.624 350.557 85.728 350.941 84.944C351.325 84.16 351.853 83.552 352.525 83.12C353.213 82.672 353.989 82.448 354.853 82.448C356.245 82.448 357.341 82.92 358.141 83.864C358.941 84.808 359.341 86.104 359.341 87.752V91.496ZM352.333 87.632C352.333 88.48 352.533 89.08 352.933 89.432C353.349 89.784 354.053 89.96 355.045 89.96H357.349V87.752C357.349 86.68 357.125 85.856 356.677 85.28C356.245 84.704 355.613 84.416 354.781 84.416C354.045 84.416 353.453 84.696 353.005 85.256C352.557 85.816 352.333 86.568 352.333 87.512V87.632ZM368.039 95.816C369.399 95.816 370.463 95.416 371.231 94.616C371.999 93.832 372.383 92.728 372.383 91.304V84.296H374.351V88.088C374.351 88.696 374.527 89.16 374.879 89.48C375.231 89.8 375.735 89.96 376.391 89.96H376.703C376.863 89.96 376.943 90.312 376.943 91.016C376.943 91.672 376.863 92 376.703 92H376.391C375.959 92 375.551 91.928 375.167 91.784C374.799 91.624 374.527 91.424 374.351 91.184V91.496C374.335 92.792 374.055 93.92 373.511 94.88C372.983 95.84 372.247 96.576 371.303 97.088C370.375 97.6 369.303 97.856 368.087 97.856H367.415L367.223 95.816H368.039ZM381.473 89.96C382.097 89.96 382.593 89.8 382.961 89.48C383.329 89.16 383.513 88.728 383.513 88.184V84.296H385.505V88.112C385.505 89.344 386.153 89.96 387.449 89.96H388.097C388.257 89.96 388.337 90.304 388.337 90.992C388.337 91.664 388.257 92 388.097 92H387.377C385.889 92 384.929 91.528 384.497 90.584C383.905 91.528 382.897 92 381.473 92H376.937C376.777 92 376.697 91.672 376.697 91.016C376.697 90.312 376.777 89.96 376.937 89.96H381.473ZM376.649 96.944V95.048H382.985V96.944H376.649ZM394.981 89.96C395.669 89.96 396.205 89.824 396.589 89.552C396.989 89.264 397.189 88.896 397.189 88.448C397.189 88.112 397.109 87.792 396.949 87.488C396.805 87.168 396.557 86.832 396.205 86.48L390.565 80.864V79.16L399.325 75.68L399.901 77.6L392.893 80.36L397.669 85.136C399.189 86.672 400.309 87.768 401.029 88.424C401.749 89.064 402.317 89.48 402.733 89.672C403.149 89.864 403.621 89.96 404.149 89.96C404.309 89.96 404.389 90.312 404.389 91.016C404.389 91.672 404.309 92 404.149 92C403.461 92 402.893 91.936 402.445 91.808C401.997 91.664 401.509 91.4 400.981 91.016C400.469 90.616 399.781 89.984 398.917 89.12C398.917 89.344 398.861 89.568 398.749 89.792C398.525 90.48 398.085 91.024 397.429 91.424C396.773 91.808 395.957 92 394.981 92H388.333C388.173 92 388.093 91.672 388.093 91.016C388.093 90.312 388.173 89.96 388.333 89.96H394.981ZM398.293 72.104L398.701 73.376L390.469 76.784V75.368L398.293 72.104ZM410.801 87.992C410.801 89.272 410.449 90.264 409.745 90.968C409.041 91.656 408.089 92 406.889 92H404.393C404.233 92 404.153 91.672 404.153 91.016C404.153 90.312 404.233 89.96 404.393 89.96H406.889C407.481 89.96 407.953 89.8 408.305 89.48C408.657 89.144 408.833 88.664 408.833 88.04V84.296H410.801V87.992ZM405.065 97.04V95.048H407.561V97.04H405.065ZM426.064 86.6C426.064 85.608 426.344 84.856 426.904 84.344H425.8C424.872 84.344 424.144 84.592 423.616 85.088C423.104 85.568 422.848 86.256 422.848 87.152V97.76H420.856V87.152C420.856 85.728 421.312 84.592 422.224 83.744C423.152 82.88 424.384 82.448 425.92 82.448H430.912C432.256 82.448 433.272 82.792 433.96 83.48C434.664 84.152 435.016 85.096 435.016 86.312V87.704C435.016 89.144 434.632 90.224 433.864 90.944C433.096 91.648 431.976 92 430.504 92C429.048 92 427.944 91.64 427.192 90.92C426.44 90.2 426.064 89.128 426.064 87.704V86.6ZM430.504 89.96C432.2 89.96 433.048 89.224 433.048 87.752V86.432C433.048 85.792 432.856 85.288 432.472 84.92C432.088 84.536 431.568 84.344 430.912 84.344H430.12C429.464 84.344 428.952 84.536 428.584 84.92C428.216 85.304 428.032 85.824 428.032 86.48V87.656C428.032 88.408 428.24 88.984 428.656 89.384C429.088 89.768 429.704 89.96 430.504 89.96ZM439.336 76.472H441.328V92H439.336V76.472ZM454.689 91.496C454.689 92.744 454.433 93.848 453.921 94.808C453.409 95.784 452.681 96.536 451.737 97.064C450.793 97.592 449.697 97.856 448.449 97.856H445.545L445.353 95.816H448.449C449.729 95.816 450.753 95.472 451.521 94.784C452.305 94.096 452.697 93.208 452.697 92.12V92H450.393C448.809 92 447.633 91.648 446.865 90.944C446.097 90.24 445.713 89.176 445.713 87.752V87.632C445.713 86.624 445.905 85.728 446.289 84.944C446.673 84.16 447.201 83.552 447.873 83.12C448.561 82.672 449.337 82.448 450.201 82.448C451.593 82.448 452.689 82.92 453.489 83.864C454.289 84.808 454.689 86.104 454.689 87.752V91.496ZM447.681 87.632C447.681 88.48 447.881 89.08 448.281 89.432C448.697 89.784 449.401 89.96 450.393 89.96H452.697V87.752C452.697 86.68 452.473 85.856 452.025 85.28C451.593 84.704 450.961 84.416 450.129 84.416C449.393 84.416 448.801 84.696 448.353 85.256C447.905 85.816 447.681 86.568 447.681 87.512V87.632ZM473.778 91.496C473.778 92.744 473.522 93.848 473.01 94.808C472.498 95.784 471.77 96.536 470.826 97.064C469.882 97.592 468.786 97.856 467.538 97.856H464.634L464.442 95.816H467.538C468.818 95.816 469.842 95.472 470.61 94.784C471.394 94.096 471.786 93.208 471.786 92.12V92H469.482C467.898 92 466.722 91.648 465.954 90.944C465.186 90.24 464.802 89.176 464.802 87.752V87.632C464.802 86.624 464.994 85.728 465.378 84.944C465.762 84.16 466.29 83.552 466.962 83.12C467.65 82.672 468.426 82.448 469.29 82.448C470.682 82.448 471.778 82.92 472.578 83.864C473.378 84.808 473.778 86.104 473.778 87.752V91.496ZM466.77 87.632C466.77 88.48 466.97 89.08 467.37 89.432C467.786 89.784 468.49 89.96 469.482 89.96H471.786V87.752C471.786 86.68 471.562 85.856 471.114 85.28C470.682 84.704 470.05 84.416 469.218 84.416C468.482 84.416 467.89 84.696 467.442 85.256C466.994 85.816 466.77 86.568 466.77 87.512V87.632ZM482.997 89.96C483.589 89.96 484.053 89.84 484.389 89.6C484.725 89.36 484.893 89.016 484.893 88.568C484.893 88.28 484.797 87.888 484.605 87.392L482.229 80.672L484.053 79.832L486.861 87.92C487.117 88.672 487.405 89.2 487.725 89.504C488.045 89.808 488.493 89.96 489.069 89.96H489.573C489.733 89.96 489.813 90.312 489.813 91.016C489.813 91.432 489.789 91.704 489.741 91.832C489.693 91.944 489.637 92 489.573 92H488.997C488.277 92 487.669 91.88 487.173 91.64C486.693 91.4 486.309 91.016 486.021 90.488C485.525 91.496 484.517 92 482.997 92H477.381L477.213 89.96H482.997ZM492.701 89.96C493.325 89.96 493.821 89.8 494.189 89.48C494.557 89.16 494.741 88.728 494.741 88.184V84.296H496.709V88.112C496.709 88.72 496.877 89.184 497.213 89.504C497.549 89.808 498.029 89.96 498.653 89.96H499.325C499.485 89.96 499.565 90.304 499.565 90.992C499.565 91.664 499.485 92 499.325 92H498.581C497.109 92 496.149 91.528 495.701 90.584C495.141 91.528 494.141 92 492.701 92H489.821C489.661 92 489.581 91.672 489.581 91.016C489.581 90.312 489.661 89.96 489.821 89.96H492.701ZM493.181 81.392V79.4H495.677V81.392H493.181ZM500.321 89.96C500.897 89.96 501.361 89.8 501.713 89.48C502.081 89.144 502.265 88.712 502.265 88.184V76.472H504.233V88.208C504.233 89.376 503.873 90.304 503.153 90.992C502.449 91.664 501.505 92 500.321 92H499.577C499.417 92 499.337 91.672 499.337 91.016C499.337 90.312 499.417 89.96 499.577 89.96H500.321ZM519.507 91.304C519.507 92.632 519.243 93.792 518.715 94.784C518.187 95.776 517.451 96.536 516.507 97.064C515.563 97.592 514.475 97.856 513.243 97.856H512.571L512.379 95.816H513.195C514.555 95.816 515.619 95.416 516.387 94.616C517.155 93.832 517.539 92.728 517.539 91.304V84.296H519.507V91.304ZM517.203 81.392V79.4H519.699V81.392H517.203ZM523.855 76.472H525.847V92H523.855V76.472Z" fill="white"/>
</svg>
