<svg width="551" height="94" viewBox="0 0 551 94" fill="none" xmlns="http://www.w3.org/2000/svg">
<path d="M2.54969 25.48C2.14969 23.352 1.94969 21.032 1.94969 18.52V15.64H6.5097V18.52C6.5097 21.032 6.3097 23.352 5.90969 25.48H2.54969ZM4.2297 31C2.54969 31 1.70969 30.2 1.70969 28.6C1.70969 27.784 1.92569 27.2 2.35769 26.848C2.78969 26.496 3.41369 26.32 4.2297 26.32C5.0457 26.32 5.6697 26.496 6.10169 26.848C6.53369 27.2 6.74969 27.784 6.74969 28.6C6.74969 30.2 5.90969 31 4.2297 31ZM19.9506 30.88C19.9506 30.72 19.9026 30.6 19.8066 30.52C19.7266 30.44 19.6146 30.4 19.4706 30.4H14.7906V25.24C14.7906 23.672 15.2306 22.424 16.1106 21.496C17.0066 20.552 18.2066 20.08 19.7106 20.08H23.6706L23.9106 24.76H19.8306C19.7026 24.76 19.5906 24.8 19.4946 24.88C19.3986 24.96 19.3506 25.08 19.3506 25.24V25.72H20.1906C23.0706 25.72 24.5106 27.16 24.5106 30.04C24.5106 31.24 24.2146 32.328 23.6226 33.304C23.0466 34.296 22.2306 35.08 21.1746 35.656C20.1186 36.232 18.9106 36.52 17.5506 36.52H15.6306C13.5346 36.52 11.8866 35.896 10.6866 34.648C9.50263 33.416 8.91063 31.72 8.91063 29.56V24.4H13.4706V29.44C13.4706 30.224 13.6546 30.8 14.0226 31.168C14.3906 31.536 14.9666 31.72 15.7506 31.72H17.7906C19.2306 31.72 19.9506 31.44 19.9506 30.88ZM31.8419 26.2C31.9699 26.2 32.0819 26.168 32.1779 26.104C32.2739 26.04 32.3219 25.952 32.3219 25.84C32.3219 25.696 32.2819 25.536 32.2019 25.36L30.0419 19.84L34.3619 17.8L37.2419 25.72C37.2899 25.848 37.3699 25.96 37.4819 26.056C37.6099 26.152 37.7379 26.2 37.8659 26.2H38.6819C38.8419 26.2 38.9219 27 38.9219 28.6C38.9219 29.64 38.8979 30.304 38.8499 30.592C38.8019 30.864 38.7459 31 38.6819 31H37.4579C36.3379 31 35.5059 30.72 34.9619 30.16C34.5779 30.496 34.2099 30.72 33.8579 30.832C33.5219 30.944 33.1699 31 32.8019 31H26.8019L26.4419 26.2H31.8419ZM40.3628 26.2C40.2828 25.8 40.2428 25.36 40.2428 24.88C40.2428 23.968 40.4668 23.136 40.9148 22.384C41.3788 21.632 42.0028 21.04 42.7868 20.608C43.5868 20.176 44.4588 19.96 45.4028 19.96C46.3788 19.96 47.2508 20.168 48.0188 20.584C48.7868 21 49.3788 21.576 49.7948 22.312C50.2268 23.032 50.4428 23.848 50.4428 24.76C50.4428 25.288 50.3628 25.768 50.2028 26.2H51.8828C51.9628 26.2 52.0188 26.344 52.0508 26.632C52.0988 26.92 52.1228 27.576 52.1228 28.6C52.1228 29.624 52.0988 30.28 52.0508 30.568C52.0188 30.856 51.9628 31 51.8828 31H48.5228C47.7228 31 47.0668 30.96 46.5548 30.88C46.0588 30.8 45.6348 30.656 45.2828 30.448C44.6748 30.816 43.6748 31 42.2828 31H38.9228C38.7628 31 38.6828 30.2 38.6828 28.6C38.6828 27 38.7628 26.2 38.9228 26.2H40.3628ZM45.4028 24.4C45.1468 24.4 44.9388 24.472 44.7788 24.616C44.6348 24.76 44.5628 24.928 44.5628 25.12C44.5628 25.36 44.6268 25.576 44.7548 25.768C44.8828 25.96 45.0988 26.144 45.4028 26.32C45.7068 26.144 45.9228 25.96 46.0508 25.768C46.1788 25.576 46.2428 25.36 46.2428 25.12C46.2428 24.928 46.1628 24.76 46.0028 24.616C45.8588 24.472 45.6588 24.4 45.4028 24.4ZM41.8028 18.28V14.8H49.0028V18.28H41.8028ZM59.2038 26.08C59.2038 27.632 58.7798 28.84 57.9318 29.704C57.0838 30.568 55.9078 31 54.4038 31H52.1238C51.9638 31 51.8838 30.2 51.8838 28.6C51.8838 27.576 51.9078 26.92 51.9558 26.632C52.0038 26.344 52.0598 26.2 52.1238 26.2H54.1638C54.3078 26.2 54.4198 26.16 54.4998 26.08C54.5958 25.984 54.6438 25.864 54.6438 25.72V22H59.2038V26.08ZM53.6838 20.56V17.08H58.2438V20.56H53.6838ZM69.5322 24.88C69.5322 25.36 69.7722 25.6 70.2522 25.6C70.7322 25.6 70.9722 25.36 70.9722 24.88V24.04H70.4922C70.1402 24.04 69.8922 24.104 69.7482 24.232C69.6042 24.36 69.5322 24.576 69.5322 24.88ZM75.2922 25.72C75.2922 25.848 75.3322 25.96 75.4122 26.056C75.4922 26.152 75.6122 26.2 75.7722 26.2H76.7322C76.8922 26.2 76.9722 27 76.9722 28.6C76.9722 30.2 76.8922 31 76.7322 31H75.6522C74.0522 31 73.0122 30.4 72.5322 29.2C71.8602 29.76 70.9002 30.04 69.6522 30.04C68.2762 30.04 67.1882 29.624 66.3882 28.792C65.6042 27.944 65.2122 26.68 65.2122 25C65.2122 24.104 65.4042 23.24 65.7882 22.408C66.1882 21.576 66.7482 20.904 67.4682 20.392C68.2042 19.864 69.0522 19.6 70.0122 19.6H70.7322V18.04H75.2922V25.72ZM79.0009 26.2C79.3209 26.2 79.4809 26.08 79.4809 25.84V22H84.0409V25.84C84.0409 26.08 84.2009 26.2 84.5209 26.2H85.0009C85.1609 26.2 85.2409 27 85.2409 28.6C85.2409 30.2 85.1609 31 85.0009 31H84.2809C83.0969 31 82.2169 30.72 81.6409 30.16C81.3369 30.464 80.9849 30.68 80.5849 30.808C80.1849 30.936 79.6569 31 79.0009 31H76.9609C76.8009 31 76.7209 30.2 76.7209 28.6C76.7209 27.576 76.7449 26.92 76.7929 26.632C76.8409 26.344 76.8969 26.2 76.9609 26.2H79.0009ZM78.5209 20.56V17.08H83.0809V20.56H78.5209ZM90.88 26.2C91.024 26.2 91.136 26.16 91.216 26.08C91.312 25.984 91.36 25.864 91.36 25.72V22H95.92V26.08C95.92 27.632 95.496 28.84 94.648 29.704C93.8 30.568 92.624 31 91.12 31H85.24C85.08 31 85 30.2 85 28.6C85 27.576 85.024 26.92 85.072 26.632C85.12 26.344 85.176 26.2 85.24 26.2H90.88ZM84.76 35.92V32.44H91.96V35.92H84.76ZM95.9322 31.72C97.5322 31.72 98.3322 31.08 98.3322 29.8V22H102.892V25.72C102.892 25.896 102.924 26.024 102.988 26.104C103.068 26.168 103.196 26.2 103.372 26.2H104.332C104.492 26.2 104.572 27 104.572 28.6C104.572 30.2 104.492 31 104.332 31H103.852C103.404 31 103.06 30.944 102.82 30.832C102.676 31.904 102.324 32.872 101.764 33.736C101.22 34.6 100.484 35.28 99.5562 35.776C98.6282 36.272 97.5402 36.52 96.2922 36.52H95.0922L94.7322 31.72H95.9322ZM98.3322 20.56V17.08H102.892V20.56H98.3322ZM110.732 26.32C111.004 26.144 111.204 25.96 111.332 25.768C111.46 25.576 111.524 25.36 111.524 25.12C111.524 24.912 111.452 24.744 111.308 24.616C111.164 24.472 110.972 24.4 110.732 24.4C110.492 24.4 110.3 24.472 110.156 24.616C110.028 24.744 109.964 24.912 109.964 25.12C109.964 25.568 110.22 25.968 110.732 26.32ZM106.124 26.2C106.012 25.976 105.956 25.536 105.956 24.88C105.956 24.048 106.172 23.288 106.604 22.6C107.052 21.896 107.644 21.344 108.38 20.944C109.132 20.528 109.94 20.32 110.804 20.32C111.316 20.32 111.836 20.4 112.364 20.56L115.004 17.92L120.044 23.2C121.004 24.224 121.484 25.344 121.484 26.56C121.484 27.392 121.284 28.144 120.884 28.816C120.5 29.488 119.94 30.024 119.204 30.424C118.468 30.808 117.612 31 116.636 31H113.588C112.868 31 112.292 30.984 111.86 30.952C111.428 30.92 111.028 30.84 110.66 30.712C109.924 30.904 108.812 31 107.324 31H104.564C104.404 31 104.324 30.2 104.324 28.6C104.324 27.576 104.348 26.92 104.396 26.632C104.444 26.344 104.5 26.2 104.564 26.2H106.124ZM116.204 26.2C116.412 26.2 116.564 26.168 116.66 26.104C116.756 26.024 116.804 25.928 116.804 25.816C116.804 25.672 116.684 25.48 116.444 25.24L115.532 24.352V24.52C115.532 25.128 115.436 25.688 115.244 26.2H116.204ZM132.176 31C130.672 31 129.512 30.592 128.696 29.776C127.896 28.944 127.496 27.752 127.496 26.2V22H132.056V25.6C132.056 25.792 132.096 25.944 132.176 26.056C132.272 26.152 132.432 26.2 132.656 26.2H139.256C139.4 26.2 139.512 26.168 139.592 26.104C139.688 26.024 139.736 25.936 139.736 25.84C139.736 25.68 139.616 25.48 139.376 25.24L134.816 20.8V17.44L144.656 13.84L145.736 18.4L140.936 20.2L142.856 22.12C144.088 23.352 145.048 24.256 145.736 24.832C146.44 25.392 147.008 25.76 147.44 25.936C147.888 26.112 148.4 26.2 148.976 26.2C149.136 26.2 149.216 27 149.216 28.6C149.216 30.2 149.136 31 148.976 31C147.936 31 147.12 30.968 146.528 30.904C145.952 30.824 145.472 30.688 145.088 30.496C144.704 30.288 144.336 29.976 143.984 29.56C143.824 29.752 143.608 29.944 143.336 30.136C142.968 30.392 142.496 30.6 141.92 30.76C141.344 30.92 140.736 31 140.096 31H132.176ZM161.926 26.2C162.086 26.2 162.166 27 162.166 28.6C162.166 30.2 162.086 31 161.926 31H161.206C160.55 31 159.998 30.936 159.55 30.808C159.118 30.68 158.75 30.48 158.446 30.208C157.646 30.736 156.646 31 155.446 31C154.87 31 154.35 30.928 153.886 30.784C153.422 30.624 153.062 30.416 152.806 30.16C152.246 30.72 151.326 31 150.046 31H149.206C149.046 31 148.966 30.2 148.966 28.6C148.966 27.576 148.99 26.92 149.038 26.632C149.086 26.344 149.142 26.2 149.206 26.2H150.046C150.19 26.2 150.302 26.16 150.382 26.08C150.478 26 150.526 25.88 150.526 25.72V25.48C150.526 23.912 150.982 22.664 151.894 21.736C152.806 20.792 154.054 20.32 155.638 20.32C157.222 20.32 158.446 20.784 159.31 21.712C160.174 22.624 160.606 23.92 160.606 25.6V25.72C160.606 26.04 160.766 26.2 161.086 26.2H161.926ZM155.518 24.76C155.262 24.76 155.062 24.832 154.918 24.976C154.79 25.12 154.726 25.312 154.726 25.552V25.672C154.726 26.184 154.99 26.44 155.518 26.44C156.03 26.44 156.286 26.184 156.286 25.672V25.552C156.286 25.312 156.214 25.12 156.07 24.976C155.942 24.832 155.758 24.76 155.518 24.76ZM167.572 26.2C167.716 26.2 167.828 26.168 167.908 26.104C168.004 26.024 168.052 25.936 168.052 25.84C168.052 25.68 167.932 25.48 167.692 25.24L163.132 20.8V17.44L172.972 13.84L174.052 18.4L169.252 20.2L171.172 22.12C172.036 22.984 172.612 23.736 172.9 24.376C173.188 25.016 173.332 25.744 173.332 26.56C173.332 28.048 172.876 29.16 171.964 29.896C171.068 30.632 169.884 31 168.412 31H162.172C162.012 31 161.932 30.2 161.932 28.6C161.932 27.576 161.956 26.92 162.004 26.632C162.052 26.344 162.108 26.2 162.172 26.2H167.572ZM182.093 31C181.245 31 180.613 30.784 180.197 30.352C179.781 29.92 179.573 29.136 179.573 28C179.573 26.4 179.693 25.224 179.933 24.472C180.189 23.72 180.637 23.184 181.277 22.864C181.933 22.544 182.965 22.296 184.373 22.12V24.76C183.621 24.888 183.093 25 182.789 25.096C182.485 25.192 182.293 25.312 182.213 25.456C182.133 25.6 182.093 25.848 182.093 26.2C182.925 26.2 183.549 26.368 183.965 26.704C184.397 27.04 184.613 27.632 184.613 28.48C184.613 30.16 183.773 31 182.093 31ZM193.254 26.2H203.094C203.254 26.2 203.334 27 203.334 28.6C203.334 30.2 203.254 31 203.094 31H202.014V31.12C201.934 32.176 201.598 33.112 201.006 33.928C200.43 34.744 199.646 35.376 198.654 35.824C197.678 36.288 196.558 36.52 195.294 36.52H193.494C191.398 36.52 189.75 35.896 188.55 34.648C187.366 33.416 186.774 31.72 186.774 29.56V24.4H191.334V29.44C191.334 30.224 191.518 30.8 191.886 31.168C192.254 31.536 192.83 31.72 193.614 31.72H195.774C196.462 31.72 196.934 31.664 197.19 31.552C197.446 31.44 197.574 31.256 197.574 31C197.574 30.856 197.534 30.744 197.454 30.664C197.374 30.568 197.254 30.52 197.094 30.52H192.894L193.254 26.2ZM209.76 20.32C211.344 20.32 212.568 20.784 213.432 21.712C214.296 22.624 214.728 23.92 214.728 25.6V25.72C214.728 27.352 214.272 28.64 213.36 29.584C212.448 30.528 211.184 31 209.568 31C208.992 31 208.472 30.928 208.008 30.784C207.544 30.624 207.184 30.416 206.928 30.16C206.368 30.72 205.448 31 204.168 31H203.328C203.168 31 203.088 30.2 203.088 28.6C203.088 27.576 203.112 26.92 203.16 26.632C203.208 26.344 203.264 26.2 203.328 26.2H204.168C204.312 26.2 204.424 26.16 204.504 26.08C204.6 26 204.648 25.88 204.648 25.72V25.48C204.648 23.912 205.104 22.664 206.016 21.736C206.928 20.792 208.176 20.32 209.76 20.32ZM209.64 24.76C209.384 24.76 209.184 24.832 209.04 24.976C208.912 25.12 208.848 25.312 208.848 25.552V25.672C208.848 25.912 208.912 26.104 209.04 26.248C209.184 26.376 209.384 26.44 209.64 26.44C210.152 26.44 210.408 26.184 210.408 25.672V25.552C210.408 25.312 210.336 25.12 210.192 24.976C210.064 24.832 209.88 24.76 209.64 24.76ZM222.879 26.2C222.959 26.2 223.015 26.344 223.047 26.632C223.095 26.92 223.119 27.576 223.119 28.6C223.119 29.624 223.095 30.28 223.047 30.568C223.015 30.856 222.959 31 222.879 31H221.679C220.143 31 218.975 30.576 218.175 29.728C217.391 28.88 216.999 27.664 216.999 26.08V15.64H221.559V25.72C221.559 25.896 221.591 26.024 221.655 26.104C221.735 26.168 221.863 26.2 222.039 26.2H222.879ZM226.72 26.2C226.88 26.2 226.96 27 226.96 28.6C226.96 29.64 226.936 30.304 226.888 30.592C226.84 30.864 226.784 31 226.72 31H223.12C222.96 31 222.88 30.2 222.88 28.6C222.88 27.576 222.904 26.92 222.952 26.632C223 26.344 223.056 26.2 223.12 26.2H226.72ZM228.889 26.2C231.033 26.2 232.825 25.88 234.265 25.24L234.529 25.12C234.465 24.896 234.377 24.744 234.265 24.664C234.153 24.568 234.001 24.52 233.809 24.52H228.409L228.769 19.96H235.009C235.905 19.96 236.657 20.16 237.265 20.56C237.889 20.96 238.425 21.632 238.873 22.576C239.337 23.504 239.769 24.792 240.169 26.44L234.649 29.56C233.769 30.072 232.881 30.44 231.985 30.664C231.089 30.888 229.977 31 228.649 31H226.969C226.809 31 226.729 30.2 226.729 28.6C226.729 27.576 226.753 26.92 226.801 26.632C226.849 26.344 226.905 26.2 226.969 26.2H228.889ZM252.421 26.2H262.261C262.421 26.2 262.501 27 262.501 28.6C262.501 30.2 262.421 31 262.261 31H261.181V31.12C261.101 32.176 260.765 33.112 260.173 33.928C259.597 34.744 258.813 35.376 257.821 35.824C256.845 36.288 255.725 36.52 254.461 36.52H252.661C250.565 36.52 248.917 35.896 247.717 34.648C246.533 33.416 245.941 31.72 245.941 29.56V24.4H250.501V29.44C250.501 30.224 250.685 30.8 251.053 31.168C251.421 31.536 251.997 31.72 252.781 31.72H254.941C255.629 31.72 256.101 31.664 256.357 31.552C256.613 31.44 256.741 31.256 256.741 31C256.741 30.856 256.701 30.744 256.621 30.664C256.541 30.568 256.421 30.52 256.261 30.52H252.061L252.421 26.2ZM269.574 26.08C269.574 27.632 269.15 28.84 268.302 29.704C267.454 30.568 266.278 31 264.774 31H262.494C262.334 31 262.254 30.2 262.254 28.6C262.254 27.576 262.278 26.92 262.326 26.632C262.374 26.344 262.43 26.2 262.494 26.2H264.534C264.678 26.2 264.79 26.16 264.87 26.08C264.966 25.984 265.014 25.864 265.014 25.72V22H269.574V26.08ZM264.054 20.56V17.08H268.614V20.56H264.054ZM277.733 26.2C277.813 26.2 277.869 26.344 277.901 26.632C277.949 26.92 277.973 27.576 277.973 28.6C277.973 29.624 277.949 30.28 277.901 30.568C277.869 30.856 277.813 31 277.733 31H276.533C274.997 31 273.829 30.576 273.029 29.728C272.245 28.88 271.853 27.664 271.853 26.08V15.64H276.413V25.72C276.413 25.896 276.445 26.024 276.509 26.104C276.589 26.168 276.717 26.2 276.893 26.2H277.733ZM283.374 26.2C283.518 26.2 283.63 26.168 283.71 26.104C283.806 26.024 283.854 25.936 283.854 25.84C283.854 25.68 283.734 25.48 283.494 25.24L278.934 20.8V17.44L288.774 13.84L289.854 18.4L285.054 20.2L286.974 22.12C288.206 23.352 289.166 24.256 289.854 24.832C290.558 25.392 291.126 25.76 291.558 25.936C292.006 26.112 292.518 26.2 293.094 26.2C293.254 26.2 293.334 27 293.334 28.6C293.334 30.2 293.254 31 293.094 31C292.054 31 291.238 30.968 290.646 30.904C290.07 30.824 289.59 30.688 289.206 30.496C288.822 30.288 288.454 29.976 288.102 29.56C287.942 29.752 287.726 29.944 287.454 30.136C287.086 30.392 286.614 30.6 286.038 30.76C285.462 30.92 284.854 31 284.214 31H277.974C277.814 31 277.734 30.2 277.734 28.6C277.734 27.576 277.758 26.92 277.806 26.632C277.854 26.344 277.91 26.2 277.974 26.2H283.374ZM294.291 26.2C294.435 26.2 294.547 26.16 294.627 26.08C294.723 25.984 294.771 25.864 294.771 25.72V15.64H299.331V25.6C299.331 25.792 299.371 25.944 299.451 26.056C299.547 26.152 299.707 26.2 299.931 26.2H300.771C300.931 26.2 301.011 27 301.011 28.6C301.011 30.2 300.931 31 300.771 31H299.931C299.259 31 298.707 30.936 298.275 30.808C297.843 30.68 297.475 30.464 297.171 30.16C296.499 30.72 295.619 31 294.531 31H293.331C293.171 31 293.091 30.2 293.091 28.6C293.091 27 293.171 26.2 293.331 26.2H294.291ZM308.081 26.08C308.081 27.632 307.657 28.84 306.809 29.704C305.961 30.568 304.785 31 303.281 31H301.001C300.841 31 300.761 30.2 300.761 28.6C300.761 27.576 300.785 26.92 300.833 26.632C300.881 26.344 300.937 26.2 301.001 26.2H303.041C303.185 26.2 303.297 26.16 303.377 26.08C303.473 25.984 303.521 25.864 303.521 25.72V22H308.081V26.08ZM301.121 40.12V36.76H304.721V40.12H301.121ZM299.321 35.92V32.44H306.521V35.92H299.321ZM318.649 32.44C318.649 33.096 318.857 33.576 319.273 33.88C319.689 34.2 320.321 34.36 321.169 34.36H326.569L326.209 39.16H320.929C318.673 39.16 316.969 38.64 315.817 37.6C314.665 36.56 314.089 35.04 314.089 33.04C314.089 30.032 315.729 27.752 319.009 26.2L321.289 25.12C321.225 24.88 321.129 24.72 321.001 24.64C320.889 24.56 320.705 24.52 320.449 24.52H315.049L315.409 19.96H321.649C322.545 19.96 323.297 20.16 323.905 20.56C324.529 20.96 325.065 21.632 325.513 22.576C325.977 23.504 326.409 24.792 326.809 26.44L322.489 28.648C321.449 29.176 320.657 29.64 320.113 30.04C319.569 30.44 319.185 30.824 318.961 31.192C318.753 31.56 318.649 31.976 318.649 32.44ZM328.978 31.72C330.578 31.72 331.378 31.08 331.378 29.8V22H335.938V25.72C335.938 25.896 335.97 26.024 336.034 26.104C336.114 26.168 336.242 26.2 336.418 26.2H337.378C337.538 26.2 337.618 27 337.618 28.6C337.618 30.2 337.538 31 337.378 31H336.898C336.45 31 336.106 30.944 335.866 30.832C335.722 31.904 335.37 32.872 334.81 33.736C334.266 34.6 333.53 35.28 332.602 35.776C331.674 36.272 330.586 36.52 329.338 36.52H328.138L327.778 31.72H328.978ZM339.049 15.64H343.609V21.16C343.977 20.856 344.385 20.624 344.833 20.464C345.297 20.288 345.769 20.2 346.249 20.2C347.193 20.2 348.025 20.424 348.745 20.872C349.481 21.32 350.049 21.944 350.449 22.744C350.849 23.544 351.049 24.456 351.049 25.48C351.049 26.584 350.817 27.552 350.353 28.384C349.905 29.216 349.265 29.864 348.433 30.328C347.601 30.776 346.633 31 345.529 31H337.609C337.449 31 337.369 30.2 337.369 28.6C337.369 27.576 337.393 26.92 337.441 26.632C337.489 26.344 337.545 26.2 337.609 26.2H339.049V15.64ZM345.649 26.32C345.937 26.32 346.169 26.24 346.345 26.08C346.521 25.92 346.609 25.72 346.609 25.48C346.609 25.288 346.545 25.12 346.417 24.976C346.289 24.832 346.113 24.76 345.889 24.76C345.457 24.76 344.657 25.28 343.489 26.32H345.649Z" fill="white"/>
<path d="M19.9322 76.7412C20.5699 76.7412 21.0837 76.5641 21.4734 76.2097C21.8809 75.8554 22.0846 75.386 22.0846 74.8013V70.4698H24.2637V74.8279C24.2637 76.1212 23.8651 77.1398 23.0679 77.8839C22.2884 78.628 21.2431 79 19.9322 79H10.4187C8.87745 79 7.70821 78.5925 6.91099 77.7776C6.11378 76.945 5.71517 75.82 5.71517 74.4027V70.4698H7.9208V74.1104C7.9208 75.8643 8.79773 76.7412 10.5516 76.7412H19.9322ZM13.581 84.5805V82.3749H16.3447V84.5805H13.581ZM33.8934 76.7412C34.0705 76.7412 34.1591 77.131 34.1591 77.9105C34.1591 78.6368 34.0705 79 33.8934 79H33.2025C31.8561 79 30.8285 78.6014 30.1199 77.8042C29.429 76.9892 29.0835 75.8377 29.0835 74.3496V61.8067H31.2891V74.2433C31.2891 75.0759 31.4486 75.7048 31.7675 76.13C32.1041 76.5375 32.6178 76.7412 33.3088 76.7412H33.8934ZM38.1581 76.7412C38.3352 76.7412 38.4238 77.131 38.4238 77.9105C38.4238 78.3711 38.3972 78.6723 38.3441 78.814C38.2909 78.938 38.2289 79 38.1581 79H34.172C33.9948 79 33.9062 78.6368 33.9062 77.9105C33.9062 77.131 33.9948 76.7412 34.172 76.7412H38.1581ZM40.5069 76.7412C41.3041 76.7412 41.9153 76.5552 42.3405 76.1832C42.7834 75.7934 43.0049 75.2708 43.0049 74.6153V70.4698H45.1839V74.6153C45.1839 76.0326 45.9811 76.7412 47.5756 76.7412C48.3728 76.7412 48.984 76.5552 49.4092 76.1832C49.8521 75.7934 50.0735 75.2708 50.0735 74.6153V70.4698H52.2526V74.6153C52.2526 75.3062 52.4386 75.8377 52.8106 76.2097C53.2004 76.5641 53.7673 76.7412 54.5113 76.7412C55.2377 76.7412 55.7957 76.5552 56.1855 76.1832C56.593 75.7934 56.7967 75.2708 56.7967 74.6153V70.4698H59.0023V74.6153C59.0023 76.0326 59.6932 76.7412 61.0751 76.7412H61.8723C62.0494 76.7412 62.138 77.131 62.138 77.9105C62.138 78.6368 62.0494 79 61.8723 79H61.0751C59.3743 79 58.2848 78.4774 57.8065 77.4321C57.1864 78.4774 56.088 79 54.5113 79C52.722 79 51.5705 78.4508 51.0567 77.3524C50.4013 78.4508 49.2409 79 47.5756 79C45.6977 79 44.5019 78.4508 43.9881 77.3524C43.3326 78.4508 42.1722 79 40.5069 79H38.4342C38.257 79 38.1684 78.6368 38.1684 77.9105C38.1684 77.131 38.257 76.7412 38.4342 76.7412H40.5069ZM64.0204 76.7412C65.3491 76.7412 66.474 76.6438 67.3953 76.4489C68.3342 76.2363 69.2377 75.882 70.1058 75.386L74.1185 73.0475C73.8527 72.1262 73.463 71.4885 72.9492 71.1342C72.4532 70.7798 71.7268 70.6027 70.7701 70.6027H64.605L64.8176 68.3439H71.1156C72.1786 68.3439 73.0555 68.5211 73.7464 68.8754C74.4373 69.212 75.0131 69.77 75.4737 70.5495C75.9343 71.329 76.3329 72.4097 76.6695 73.7915L71.1156 77.193C70.0349 77.8485 68.9543 78.3179 67.8736 78.6014C66.8107 78.8671 65.4997 79 63.9407 79H62.1337C61.9565 79 61.8679 78.6368 61.8679 77.9105C61.8679 77.131 61.9565 76.7412 62.1337 76.7412H64.0204ZM89.2107 72.8349C89.2107 73.703 89.4145 74.3584 89.8219 74.8013C90.2294 75.2265 90.8672 75.4391 91.7352 75.4391C92.6742 75.4391 93.4094 75.2708 93.9409 74.9342C94.4901 74.5799 94.7646 74.1104 94.7646 73.5258V69.6726H92.187C91.248 69.6726 90.5128 69.9472 89.9814 70.4964C89.4676 71.0456 89.2107 71.8251 89.2107 72.8349ZM96.9703 74.0838C96.9703 75.0051 97.1297 75.6783 97.4486 76.1035C97.7852 76.5286 98.2724 76.7412 98.9102 76.7412H99.5479C99.6365 76.7412 99.6985 76.8209 99.734 76.9804C99.7871 77.1221 99.8137 77.4321 99.8137 77.9105C99.8137 78.3711 99.7871 78.6723 99.734 78.814C99.6985 78.938 99.6365 79 99.5479 79H98.9102C96.9437 79 95.7567 78.1496 95.3493 76.4489C94.9772 76.8741 94.4546 77.193 93.7814 77.4056C93.1082 77.6004 92.3819 77.6979 91.6024 77.6979C90.0965 77.6979 88.9538 77.2904 88.1743 76.4755C87.3948 75.6606 87.0051 74.4647 87.0051 72.888C87.0051 71.8959 87.2177 70.9924 87.6429 70.1775C88.0858 69.3448 88.697 68.6894 89.4765 68.211C90.2737 67.7327 91.1772 67.4935 92.187 67.4935H94.7646V65.6599H96.9703V74.0838ZM106.902 74.5622C106.902 75.9794 106.513 77.0778 105.733 77.8573C104.954 78.6191 103.9 79 102.571 79H99.8072C99.6301 79 99.5415 78.6368 99.5415 77.9105C99.5415 77.131 99.6301 76.7412 99.8072 76.7412H102.571C103.226 76.7412 103.749 76.5641 104.139 76.2097C104.529 75.8377 104.723 75.3062 104.723 74.6153V70.4698H106.902V74.5622ZM100.551 84.5805V82.3749H103.315V84.5805H100.551ZM125.848 76.7412H136.61C136.787 76.7412 136.876 77.131 136.876 77.9105C136.876 78.6368 136.787 79 136.61 79H133.847C134.112 79.2657 134.245 79.6909 134.245 80.2755C134.245 81.2853 133.944 82.18 133.342 82.9595C132.757 83.7567 131.916 84.3768 130.817 84.8197C129.737 85.2626 128.479 85.484 127.044 85.484H124.998C122.765 85.484 121.047 84.8374 119.842 83.5441C118.638 82.2509 118.035 80.4438 118.035 78.1231V73.1272H120.241V78.0699C120.241 79.7529 120.648 81.0285 121.463 81.8965C122.278 82.7823 123.474 83.2252 125.051 83.2252H127.044C128.674 83.2252 129.914 82.9684 130.764 82.4546C131.632 81.9408 132.066 81.2322 132.066 80.3287C132.066 79.8326 131.942 79.4695 131.694 79.2392C131.464 79.0266 131.083 78.9203 130.551 78.9203H125.635L125.848 76.7412ZM143.979 74.5622C143.979 75.9794 143.589 77.0778 142.81 77.8573C142.03 78.6191 140.976 79 139.648 79H136.884C136.707 79 136.618 78.6368 136.618 77.9105C136.618 77.131 136.707 76.7412 136.884 76.7412H139.648C140.303 76.7412 140.826 76.5641 141.215 76.2097C141.605 75.8377 141.8 75.3062 141.8 74.6153V70.4698H143.979V74.5622ZM139.94 67.2544V65.0487H142.704V67.2544H139.94ZM150.985 64.225V79H148.78V64.225H150.985ZM147.69 60.4515C147.318 60.4515 147.026 60.5223 146.813 60.6641C146.619 60.7881 146.468 60.9918 146.362 61.2753L145.697 62.9228L144.183 62.2585L144.927 60.2655C145.175 59.61 145.511 59.1494 145.936 58.8836C146.362 58.6179 146.946 58.485 147.69 58.485H154.174V60.4515H147.69ZM160.87 83.2252C162.376 83.2252 163.554 82.7823 164.405 81.8965C165.255 81.0285 165.68 79.8061 165.68 78.2294V70.4698H167.859V74.6685C167.859 75.3417 168.054 75.8554 168.444 76.2097C168.834 76.5641 169.392 76.7412 170.118 76.7412H170.463C170.641 76.7412 170.729 77.131 170.729 77.9105C170.729 78.6368 170.641 79 170.463 79H170.118C169.64 79 169.188 78.9203 168.763 78.7608C168.355 78.5837 168.054 78.3622 167.859 78.0965V78.4419C167.842 79.8769 167.532 81.1259 166.929 82.1889C166.345 83.2518 165.53 84.0667 164.484 84.6336C163.457 85.2006 162.27 85.484 160.923 85.484H160.179L159.967 83.2252H160.87ZM165.308 67.2544V65.0487H168.072V67.2544H165.308ZM174.709 76.7412C174.886 76.7412 174.975 77.131 174.975 77.9105C174.975 78.3711 174.948 78.6723 174.895 78.814C174.842 78.938 174.78 79 174.709 79H170.723C170.546 79 170.457 78.6368 170.457 77.9105C170.457 77.131 170.546 76.7412 170.723 76.7412H174.709ZM181.389 76.7412C182.045 76.7412 182.568 76.5641 182.957 76.2097C183.347 75.8377 183.542 75.3062 183.542 74.6153V70.4698H185.721V74.5622C185.721 75.9617 185.322 77.0513 184.525 77.8308C183.746 78.6103 182.7 79 181.389 79H174.985C174.808 79 174.719 78.6368 174.719 77.9105C174.719 77.131 174.808 76.7412 174.985 76.7412H181.389ZM175.251 84.4742V82.3749H182.266V84.4742H175.251ZM194.062 78.2294C194.062 79.6998 193.77 80.9842 193.186 82.0826C192.601 83.1809 191.786 84.0225 190.741 84.6071C189.696 85.1917 188.491 85.484 187.127 85.484H186.383L186.17 83.2252H187.074C188.579 83.2252 189.758 82.7823 190.608 81.8965C191.458 81.0285 191.883 79.8061 191.883 78.2294V70.4698H194.062V78.2294ZM198.877 61.8067H201.082V79H198.877V61.8067ZM215.876 78.4419C215.876 79.8238 215.592 81.0462 215.025 82.1091C214.459 83.1898 213.653 84.0225 212.607 84.6071C211.562 85.1917 210.348 85.484 208.967 85.484H205.751L205.539 83.2252H208.967C210.384 83.2252 211.518 82.8443 212.368 82.0826C213.236 81.3208 213.67 80.3375 213.67 79.1329V79H211.119C209.365 79 208.063 78.6103 207.213 77.8308C206.362 77.0513 205.937 75.8731 205.937 74.2964V74.1636C205.937 73.0475 206.15 72.0554 206.575 71.1873C207 70.3192 207.585 69.646 208.329 69.1677C209.091 68.6716 209.95 68.4236 210.907 68.4236C212.448 68.4236 213.661 68.9462 214.547 69.9915C215.433 71.0367 215.876 72.4717 215.876 74.2964V78.4419ZM208.116 74.1636C208.116 75.1025 208.338 75.7669 208.781 76.1566C209.241 76.5464 210.021 76.7412 211.119 76.7412H213.67V74.2964C213.67 73.1095 213.422 72.1971 212.926 71.5593C212.448 70.9216 211.748 70.6027 210.827 70.6027C210.012 70.6027 209.356 70.9127 208.86 71.5328C208.364 72.1528 208.116 72.9855 208.116 74.0307V74.1636ZM228.429 79C227.915 79 227.543 78.8671 227.313 78.6014C227.1 78.3357 226.994 77.8662 226.994 77.193C226.994 75.7048 227.056 74.6419 227.18 74.0041C227.322 73.3664 227.57 72.9235 227.924 72.6754C228.296 72.4097 228.934 72.1882 229.837 72.0111V73.4726C229.359 73.5612 229.023 73.6675 228.828 73.7915C228.651 73.8978 228.526 74.0838 228.456 74.3496C228.402 74.6153 228.376 75.0848 228.376 75.758C228.907 75.758 229.279 75.882 229.492 76.13C229.722 76.3603 229.837 76.7678 229.837 77.3524C229.837 77.9193 229.722 78.3357 229.492 78.6014C229.279 78.8671 228.925 79 228.429 79ZM239.418 65.6334L244.52 71.4796C245.105 72.1528 245.512 72.7729 245.743 73.3398C245.991 73.9067 246.115 74.4913 246.115 75.0936C246.115 76.2629 245.716 77.2107 244.919 77.937C244.122 78.6457 243.006 79 241.571 79H233.891L233.705 76.7412H241.571C242.332 76.7412 242.917 76.5906 243.325 76.2895C243.732 75.9883 243.936 75.5808 243.936 75.0671C243.936 74.7482 243.847 74.4204 243.67 74.0838C243.511 73.7295 243.236 73.3309 242.846 72.888L237.85 67.1747L239.418 65.6334ZM263.164 76.7412C263.253 76.7412 263.315 76.8209 263.35 76.9804C263.403 77.1221 263.43 77.4321 263.43 77.9105C263.43 78.3711 263.403 78.6723 263.35 78.814C263.315 78.938 263.253 79 263.164 79H260.64C260.569 80.2933 260.241 81.4271 259.656 82.4014C259.072 83.3758 258.275 84.1287 257.265 84.6602C256.255 85.2094 255.086 85.484 253.757 85.484H250.542L250.329 83.2252H253.757C255.174 83.2252 256.308 82.8443 257.158 82.0826C258.027 81.3208 258.461 80.3375 258.461 79.1329V79H255.909C254.156 79 252.854 78.6103 252.003 77.8308C251.153 77.0513 250.728 75.8731 250.728 74.2964V74.1636C250.728 73.0475 250.94 72.0554 251.365 71.1873C251.791 70.3192 252.375 69.646 253.119 69.1677C253.881 68.6716 254.74 68.4236 255.697 68.4236C257.238 68.4236 258.452 68.9462 259.338 69.9915C260.223 71.0367 260.666 72.4717 260.666 74.2964V76.7412H263.164ZM252.907 74.1636C252.907 75.1025 253.128 75.7669 253.571 76.1566C254.032 76.5464 254.811 76.7412 255.909 76.7412H258.461V74.2964C258.461 73.1095 258.213 72.1971 257.717 71.5593C257.238 70.9216 256.538 70.6027 255.617 70.6027C254.802 70.6027 254.147 70.9127 253.651 71.5328C253.155 72.1528 252.907 72.9855 252.907 74.0307V74.1636ZM265.497 76.7412C266.294 76.7412 266.905 76.5552 267.33 76.1832C267.773 75.7934 267.995 75.2708 267.995 74.6153V70.4698H270.174V74.6153C270.174 76.0326 270.971 76.7412 272.565 76.7412C273.363 76.7412 273.974 76.5552 274.399 76.1832C274.842 75.7934 275.063 75.2708 275.063 74.6153V70.4698H277.242V74.6153C277.242 75.3062 277.428 75.8377 277.801 76.2097C278.19 76.5641 278.757 76.7412 279.501 76.7412C280.245 76.7412 280.812 76.5552 281.202 76.1832C281.592 75.8111 281.787 75.2885 281.787 74.6153V70.4698H283.992V74.5622C283.992 75.944 283.585 77.0335 282.77 77.8308C281.973 78.6103 280.883 79 279.501 79C277.712 79 276.56 78.4508 276.047 77.3524C275.391 78.4508 274.231 79 272.565 79C270.688 79 269.492 78.4508 268.978 77.3524C268.323 78.4508 267.162 79 265.497 79H263.424C263.247 79 263.158 78.6368 263.158 77.9105C263.158 77.131 263.247 76.7412 263.424 76.7412H265.497ZM302.057 85.484C299.825 85.484 298.106 84.8374 296.902 83.5441C295.697 82.2509 295.095 80.4438 295.095 78.1231V73.1272H297.3V78.0699C297.3 79.7529 297.708 81.0285 298.523 81.8965C299.338 82.7823 300.533 83.2252 302.11 83.2252H303.226C304.768 83.2252 305.99 82.7735 306.893 81.87C307.815 80.9842 308.275 79.7884 308.275 78.2825V70.4698H310.454V78.0699C310.454 79.5935 310.144 80.9133 309.524 82.0294C308.922 83.1455 308.072 83.9959 306.973 84.5805C305.892 85.1828 304.644 85.484 303.226 85.484H302.057ZM300.861 69.646V67.4404H303.625V69.646H300.861ZM324.998 78.4419C324.998 79.8238 324.714 81.0462 324.147 82.1091C323.58 83.1898 322.774 84.0225 321.729 84.6071C320.684 85.1917 319.47 85.484 318.088 85.484H314.873L314.66 83.2252H318.088C319.506 83.2252 320.64 82.8443 321.49 82.0826C322.358 81.3208 322.792 80.3375 322.792 79.1329V79H320.241C318.487 79 317.185 78.6103 316.335 77.8308C315.484 77.0513 315.059 75.8731 315.059 74.2964V74.1636C315.059 73.0475 315.272 72.0554 315.697 71.1873C316.122 70.3192 316.707 69.646 317.451 69.1677C318.213 68.6716 319.072 68.4236 320.028 68.4236C321.57 68.4236 322.783 68.9462 323.669 69.9915C324.555 71.0367 324.998 72.4717 324.998 74.2964V78.4419ZM317.238 74.1636C317.238 75.1025 317.46 75.7669 317.902 76.1566C318.363 76.5464 319.143 76.7412 320.241 76.7412H322.792V74.2964C322.792 73.1095 322.544 72.1971 322.048 71.5593C321.57 70.9216 320.87 70.6027 319.949 70.6027C319.134 70.6027 318.478 70.9127 317.982 71.5328C317.486 72.1528 317.238 72.9855 317.238 74.0307V74.1636ZM335.205 76.7412C335.86 76.7412 336.374 76.6084 336.746 76.3426C337.118 76.0769 337.304 75.696 337.304 75.1999C337.304 74.8811 337.198 74.447 336.985 73.8978L334.355 66.4572L336.374 65.5271L339.483 74.4825C339.767 75.3151 340.086 75.8997 340.44 76.2363C340.794 76.5729 341.29 76.7412 341.928 76.7412H342.486C342.663 76.7412 342.752 77.131 342.752 77.9105C342.752 78.3711 342.725 78.6723 342.672 78.814C342.619 78.938 342.557 79 342.486 79H341.848C341.051 79 340.378 78.8671 339.829 78.6014C339.297 78.3357 338.872 77.9105 338.553 77.3258C338.004 78.4419 336.888 79 335.205 79H328.987L328.801 76.7412H335.205ZM349.857 74.5622C349.857 75.9794 349.467 77.0778 348.687 77.8573C347.908 78.6191 346.854 79 345.525 79H342.761C342.584 79 342.496 78.6368 342.496 77.9105C342.496 77.131 342.584 76.7412 342.761 76.7412H345.525C346.181 76.7412 346.703 76.5641 347.093 76.2097C347.483 75.8377 347.678 75.3062 347.678 74.6153V70.4698H349.857V74.5622ZM343.506 84.5805V82.3749H346.269V84.5805H343.506Z" fill="white"/>
<line x1="367.446" y1="88.5391" x2="367.446" y2="5.45989" stroke="white" stroke-width="1.10724"/>
<path d="M396.243 39.1397C394.017 39.1397 392.296 38.4974 391.08 37.213C389.881 35.9457 389.281 34.1646 389.281 31.8697V26.7576H392.544V31.7926C392.544 33.1284 392.844 34.1218 393.443 34.7725C394.042 35.4233 394.984 35.7487 396.269 35.7487H397.296C398.529 35.7487 399.497 35.4233 400.199 34.7725C400.901 34.1389 401.252 33.2398 401.252 32.0752V24.1887H404.515V31.7926C404.515 33.334 404.207 34.6527 403.59 35.7487C402.991 36.8619 402.143 37.7011 401.047 38.2662C399.968 38.8485 398.718 39.1397 397.296 39.1397H396.243ZM394.573 23.7777V20.8748H398.067V23.7777H394.573ZM420.2 29.6091C420.371 29.6091 420.457 30.1913 420.457 31.3559C420.457 32.452 420.371 33 420.2 33H418.145C417.956 34.9352 417.271 36.4423 416.089 37.5213C414.925 38.6002 413.392 39.1397 411.491 39.1397H407.997L407.741 35.7744H411.697C412.707 35.7744 413.503 35.5261 414.086 35.0294C414.668 34.5499 414.959 33.9162 414.959 33.1284V33H413.161C411.448 33 410.155 32.589 409.282 31.7669C408.408 30.9449 407.972 29.7461 407.972 28.1705V28.042C407.972 26.9288 408.186 25.9355 408.614 25.0621C409.059 24.1887 409.667 23.5036 410.438 23.007C411.226 22.5103 412.125 22.262 413.135 22.262C414.694 22.262 415.927 22.7844 416.834 23.829C417.742 24.8566 418.196 26.2695 418.196 28.0677V29.6091H420.2ZM411.209 27.9393C411.209 28.5558 411.354 28.9925 411.645 29.2494C411.936 29.5063 412.442 29.6347 413.161 29.6347H414.959V28.042C414.959 27.2029 414.788 26.5692 414.445 26.141C414.12 25.7129 413.649 25.4988 413.032 25.4988C412.433 25.4988 411.979 25.7129 411.671 26.141C411.363 26.5521 411.209 27.1087 411.209 27.8108V27.9393ZM424.899 29.6091C425.328 29.6091 425.679 29.4977 425.953 29.2751C426.227 29.0353 426.364 28.7099 426.364 28.2989V24.1887H429.6V28.1705C429.6 29.1295 430.08 29.6091 431.039 29.6091H432.015C432.186 29.6091 432.272 30.1828 432.272 31.3302C432.272 32.4434 432.186 33 432.015 33H430.911C429.455 33 428.47 32.5804 427.956 31.7412C427.34 32.5804 426.321 33 424.899 33H420.198C420.027 33 419.941 32.452 419.941 31.3559C419.941 30.1913 420.027 29.6091 420.198 29.6091H424.899ZM419.659 38.6002V35.6973H426.903V38.6002H419.659ZM432.913 29.6091C433.341 29.6091 433.693 29.4892 433.967 29.2494C434.241 29.0096 434.378 28.6843 434.378 28.2732V16.4306H437.614V28.1448C437.614 29.121 438.103 29.6091 439.079 29.6091H439.849C440.021 29.6091 440.106 30.1828 440.106 31.3302C440.106 32.4434 440.021 33 439.849 33H438.95C437.495 33 436.51 32.5804 435.996 31.7412C435.379 32.5804 434.36 33 432.939 33H432.014C431.843 33 431.757 32.452 431.757 31.3559C431.757 30.1913 431.843 29.6091 432.014 29.6091H432.913ZM442.847 29.6091C443.275 29.6091 443.618 29.4977 443.874 29.2751C444.149 29.0353 444.286 28.7099 444.286 28.2989V24.1887H447.548V28.1705C447.548 29.1295 448.028 29.6091 448.987 29.6091H449.963C450.134 29.6091 450.22 30.1828 450.22 31.3302C450.22 32.4434 450.134 33 449.963 33H448.832C447.377 33 446.401 32.5804 445.904 31.7412C445.287 32.5804 444.268 33 442.847 33H439.841C439.67 33 439.584 32.452 439.584 31.3559C439.584 30.1913 439.67 29.6091 439.841 29.6091H442.847ZM437.247 38.6002V35.6973H444.491V38.6002H437.247ZM457.221 22.262C458.831 22.262 460.073 22.7244 460.946 23.6492C461.837 24.574 462.282 25.8842 462.282 27.5796V27.7081C462.282 29.3693 461.82 30.6709 460.895 31.6128C459.987 32.5376 458.72 33 457.093 33C456.254 33 455.543 32.8887 454.961 32.666C454.378 32.4434 453.95 32.1351 453.676 31.7412C453.351 32.1865 452.948 32.5119 452.469 32.7174C451.989 32.9058 451.373 33 450.619 33H449.951C449.78 33 449.694 32.452 449.694 31.3559C449.694 30.1913 449.78 29.6091 449.951 29.6091H450.619C451.099 29.6091 451.441 29.5149 451.647 29.3265C451.852 29.1381 451.955 28.8298 451.955 28.4017V27.6824C451.955 26.0212 452.426 24.7025 453.368 23.7263C454.327 22.7501 455.611 22.262 457.221 22.262ZM457.093 25.4988C455.808 25.4988 455.166 26.1839 455.166 27.5539V27.6824C455.166 28.316 455.32 28.8041 455.629 29.1467C455.954 29.472 456.442 29.6347 457.093 29.6347C457.761 29.6347 458.249 29.4806 458.557 29.1723C458.883 28.8469 459.045 28.3503 459.045 27.6824V27.5539C459.045 26.1839 458.394 25.4988 457.093 25.4988Z" fill="white"/>
<path d="M397.663 84.1397C395.437 84.1397 393.716 83.4974 392.5 82.213C391.301 80.9457 390.701 79.1646 390.701 76.8697V71.7576H393.964V76.7926C393.964 78.1284 394.264 79.1218 394.863 79.7725C395.462 80.4233 396.404 80.7487 397.689 80.7487H398.716C399.949 80.7487 400.917 80.4233 401.619 79.7725C402.321 79.1389 402.672 78.2398 402.672 77.0752V69.1887H405.935V76.7926C405.935 78.334 405.627 79.6527 405.01 80.7487C404.411 81.8619 403.563 82.7011 402.467 83.2662C401.388 83.8485 400.138 84.1397 398.716 84.1397H397.663ZM395.993 68.7777V65.8748H399.487V68.7777H395.993ZM414.915 74.6091C415 74.6091 415.06 74.7204 415.095 74.943C415.146 75.1657 415.172 75.6366 415.172 76.3559C415.172 77.0409 415.146 77.4862 415.095 77.6917C415.06 77.8972 415 78 414.915 78H413.99C412.551 78 411.464 77.589 410.728 76.7669C409.991 75.9278 409.623 74.7375 409.623 73.1962V61.4306H412.86V72.9907C412.86 73.5558 412.962 73.9668 413.168 74.2237C413.391 74.4806 413.742 74.6091 414.221 74.6091H414.915ZM418.773 74.6091C418.945 74.6091 419.03 75.1913 419.03 76.3559C419.03 77.0581 419.005 77.5119 418.953 77.7174C418.902 77.9058 418.842 78 418.773 78H414.92C414.749 78 414.663 77.452 414.663 76.3559C414.663 75.1913 414.749 74.6091 414.92 74.6091H418.773ZM422.637 74.6091C422.808 74.6091 422.894 75.1913 422.894 76.3559C422.894 77.0581 422.868 77.5119 422.817 77.7174C422.765 77.9058 422.705 78 422.637 78H418.783C418.612 78 418.527 77.452 418.527 76.3559C418.527 75.1913 418.612 74.6091 418.783 74.6091H422.637ZM426.5 74.6091C426.671 74.6091 426.757 75.1913 426.757 76.3559C426.757 77.0581 426.731 77.5119 426.68 77.7174C426.629 77.9058 426.569 78 426.5 78H422.647C422.476 78 422.39 77.452 422.39 76.3559C422.39 75.1913 422.476 74.6091 422.647 74.6091H426.5ZM433.78 67.262C435.39 67.262 436.632 67.7244 437.505 68.6492C438.396 69.574 438.841 70.8842 438.841 72.5796V72.7081C438.841 74.3693 438.379 75.6709 437.454 76.6128C436.546 77.5376 435.279 78 433.652 78C432.813 78 432.102 77.8887 431.52 77.666C430.937 77.4434 430.509 77.1351 430.235 76.7412C429.91 77.1865 429.507 77.5119 429.028 77.7174C428.548 77.9058 427.932 78 427.178 78H426.51C426.339 78 426.253 77.452 426.253 76.3559C426.253 75.1913 426.339 74.6091 426.51 74.6091H427.178C427.658 74.6091 428 74.5149 428.206 74.3265C428.411 74.1381 428.514 73.8298 428.514 73.4017V72.6824C428.514 71.0212 428.985 69.7025 429.927 68.7263C430.886 67.7501 432.17 67.262 433.78 67.262ZM433.652 70.4988C432.367 70.4988 431.725 71.1839 431.725 72.5539V72.6824C431.725 73.316 431.879 73.8041 432.187 74.1467C432.513 74.472 433.001 74.6347 433.652 74.6347C434.32 74.6347 434.808 74.4806 435.116 74.1723C435.441 73.8469 435.604 73.3503 435.604 72.6824V72.5539C435.604 71.1839 434.953 70.4988 433.652 70.4988ZM454.534 74.6091C454.705 74.6091 454.791 75.1913 454.791 76.3559C454.791 77.452 454.705 78 454.534 78H452.479C452.29 79.9352 451.605 81.4423 450.423 82.5213C449.259 83.6002 447.726 84.1397 445.825 84.1397H442.331L442.075 80.7744H446.031C447.041 80.7744 447.837 80.5261 448.42 80.0294C449.002 79.5499 449.293 78.9162 449.293 78.1284V78H447.495C445.782 78 444.489 77.589 443.616 76.7669C442.742 75.9449 442.306 74.7461 442.306 73.1705V73.042C442.306 71.9288 442.52 70.9355 442.948 70.0621C443.393 69.1887 444.001 68.5036 444.772 68.007C445.56 67.5103 446.459 67.262 447.469 67.262C449.028 67.262 450.261 67.7844 451.168 68.829C452.076 69.8566 452.53 71.2695 452.53 73.0677V74.6091H454.534ZM445.543 72.9393C445.543 73.5558 445.688 73.9925 445.979 74.2494C446.27 74.5063 446.776 74.6347 447.495 74.6347H449.293V73.042C449.293 72.2029 449.122 71.5692 448.779 71.141C448.454 70.7129 447.983 70.4988 447.366 70.4988C446.767 70.4988 446.313 70.7129 446.005 71.141C445.697 71.5521 445.543 72.1087 445.543 72.8108V72.9393ZM461.751 73.0934C461.751 74.669 461.34 75.8849 460.518 76.7412C459.696 77.5804 458.557 78 457.101 78H454.532C454.361 78 454.275 77.452 454.275 76.3559C454.275 75.1913 454.361 74.6091 454.532 74.6091H457.075C457.504 74.6091 457.846 74.4806 458.103 74.2237C458.377 73.9497 458.514 73.5558 458.514 73.042V69.1887H461.751V73.0934ZM455.149 66.4657V63.5628H462.393V66.4657H455.149Z" fill="white"/>
<path d="M520.956 29.5309C521.042 29.5309 521.102 29.6422 521.136 29.8649C521.187 30.0875 521.213 30.5585 521.213 31.2778C521.213 31.9628 521.187 32.4081 521.136 32.6136C521.102 32.8191 521.042 32.9219 520.956 32.9219H520.031C518.593 32.9219 517.505 32.5109 516.769 31.6888C516.032 30.8496 515.664 29.6594 515.664 28.118V16.3525H518.901V27.9125C518.901 28.4777 519.004 28.8887 519.209 29.1456C519.432 29.4025 519.783 29.5309 520.262 29.5309H520.956ZM524.814 29.5309C524.986 29.5309 525.071 30.1132 525.071 31.2778C525.071 31.9799 525.046 32.4338 524.994 32.6393C524.943 32.8277 524.883 32.9219 524.814 32.9219H520.961C520.79 32.9219 520.704 32.3738 520.704 31.2778C520.704 30.1132 520.79 29.5309 520.961 29.5309H524.814ZM528.678 29.5309C528.849 29.5309 528.935 30.1132 528.935 31.2778C528.935 31.9799 528.909 32.4338 528.858 32.6393C528.806 32.8277 528.746 32.9219 528.678 32.9219H524.825C524.653 32.9219 524.568 32.3738 524.568 31.2778C524.568 30.1132 524.653 29.5309 524.825 29.5309H528.678ZM532.541 29.5309C532.713 29.5309 532.798 30.1132 532.798 31.2778C532.798 31.9799 532.772 32.4338 532.721 32.6393C532.67 32.8277 532.61 32.9219 532.541 32.9219H528.688C528.517 32.9219 528.431 32.3738 528.431 31.2778C528.431 30.1132 528.517 29.5309 528.688 29.5309H532.541ZM539.77 28.0153C539.77 29.5909 539.359 30.8068 538.537 31.6631C537.715 32.5023 536.576 32.9219 535.12 32.9219H532.551C532.38 32.9219 532.294 32.3738 532.294 31.2778C532.294 30.1132 532.38 29.5309 532.551 29.5309H535.094C535.523 29.5309 535.865 29.4025 536.122 29.1456C536.396 28.8716 536.533 28.4777 536.533 27.9639V24.1106H539.77V28.0153ZM533.168 21.3875V18.4847H540.412V21.3875H533.168Z" fill="white"/>
<path d="M548.551 69.2248C548.551 73.4749 547.524 77.4319 545.471 81.0958C543.418 84.7596 540.632 87.6907 537.112 89.8891C533.666 92.0141 529.889 93.0766 525.783 93.0766C521.677 93.0766 517.864 92.0141 514.344 89.8891C510.898 87.6907 508.148 84.7596 506.095 81.0958C504.042 77.4319 503.016 73.4749 503.016 69.2248C503.016 64.9748 504.042 61.0178 506.095 57.3539C508.148 53.69 510.898 50.7956 514.344 48.6705C517.864 46.4722 521.677 45.373 525.783 45.373C529.889 45.373 533.666 46.4722 537.112 48.6705C540.632 50.7956 543.418 53.69 545.471 57.3539C547.524 61.0178 548.551 64.9748 548.551 69.2248ZM519.514 69.2248C519.514 70.7637 520.137 72.046 521.384 73.0719C522.63 74.0245 524.097 74.5008 525.783 74.5008C527.47 74.5008 528.936 74.0245 530.183 73.0719C531.429 72.046 532.053 70.7637 532.053 69.2248C532.053 67.7593 531.429 66.5136 530.183 65.4877C528.936 64.4618 527.47 63.9489 525.783 63.9489C524.097 63.9489 522.63 64.4618 521.384 65.4877C520.137 66.5136 519.514 67.7593 519.514 69.2248Z" fill="#5AF3B0"/>
<path d="M492.182 93.0756H475.463V52.1942C475.463 38.5424 472.724 24.6432 467.246 10.4967L483.583 6.3418L489.507 24.2228C489.571 24.4701 489.825 26.0776 490.271 29.0454C491.545 37.009 492.182 44.7253 492.182 52.1942V93.0756Z" fill="#5AF3B0"/>
</svg>
