<svg width="135" height="40" viewBox="0 0 135 40" fill="none" xmlns="http://www.w3.org/2000/svg">
<g clip-path="url(#clip0_33471_33372)">
<path d="M0 4.00049C0 1.79135 1.79086 0.000488281 4 0.000488281H131C133.209 0.000488281 135 1.79135 135 4.00049V36.0005C135 38.2096 133.209 40.0005 131 40.0005H4C1.79086 40.0005 0 38.2096 0 36.0005V4.00049Z" fill="white"/>
<path d="M106.231 15.1551C106.073 15.3194 105.992 15.5176 105.992 15.7495C105.992 15.9815 106.073 16.182 106.231 16.3511C106.391 16.5203 106.588 16.6048 106.821 16.6048C107.047 16.6048 107.239 16.5203 107.398 16.3511C107.557 16.182 107.637 15.9815 107.637 15.7495C107.637 15.5176 107.557 15.3194 107.398 15.1551C107.239 14.9908 107.047 14.9087 106.821 14.9087C106.588 14.9087 106.391 14.9908 106.231 15.1551Z" fill="black"/>
<path fill-rule="evenodd" clip-rule="evenodd" d="M104.135 22.5774H104.04C103.767 22.5774 103.508 22.5508 103.26 22.4977C103.012 22.4445 102.788 22.3358 102.592 22.1715C102.32 22.4421 101.978 22.5774 101.566 22.5774H95.9171C95.4031 22.5774 95.019 22.4228 94.7661 22.1135C94.512 21.8042 94.3867 21.3645 94.3867 20.7943V19.1271H95.4546V20.6203C95.4546 20.9296 95.5166 21.1446 95.6443 21.2654C95.7696 21.3862 95.9733 21.4466 96.2543 21.4466H101.341C101.631 21.4466 101.819 21.379 101.903 21.2437C101.988 21.1084 102.029 20.9018 102.029 20.6203V19.1271H103.125V20.6783C103.125 20.9779 103.221 21.1808 103.415 21.2872C103.607 21.3935 103.814 21.4466 104.04 21.4466L107.074 21.4467C107.412 21.4467 107.629 21.3767 107.728 21.2365C107.826 21.0964 107.871 20.9297 107.861 20.7364L106.484 20.6929C106.006 20.6736 105.66 20.5093 105.444 20.2C105.229 19.8907 105.121 19.4945 105.121 19.0112C105.121 18.7503 105.165 18.5099 105.254 18.2864C105.344 18.0641 105.468 17.8708 105.627 17.7065C105.786 17.5422 105.976 17.4141 106.196 17.3223C106.416 17.2305 106.662 17.1846 106.934 17.1846C107.251 17.1846 107.533 17.2534 107.777 17.3875C108.02 17.5228 108.224 17.6992 108.388 17.9167C108.552 18.1341 108.675 18.3806 108.76 18.656C108.845 18.9315 108.887 19.2142 108.887 19.5041V20.3305C108.887 20.6301 108.854 20.9152 108.789 21.1858C108.722 21.4576 108.621 21.6956 108.486 21.9034C108.351 22.1124 108.179 22.2755 107.974 22.3963C107.768 22.5171 107.524 22.5775 107.243 22.5775H104.152L104.135 22.5774ZM107.784 19.1489C107.835 19.3083 107.861 19.4666 107.861 19.62L106.709 19.5765C106.559 19.5681 106.407 19.5306 106.252 19.4678C106.098 19.405 106.02 19.2721 106.02 19.0691C106.02 18.8565 106.079 18.6777 106.196 18.5327C106.313 18.3878 106.52 18.3153 106.82 18.3153C106.981 18.3153 107.123 18.3539 107.25 18.4313C107.376 18.5098 107.484 18.6076 107.573 18.7284C107.662 18.8493 107.732 18.9894 107.784 19.1489Z" fill="black"/>
<path d="M90.5921 22.5772H89.5664V15.5171H90.5921V22.5772Z" fill="black"/>
<path d="M86.7701 16.5033C86.6097 16.6676 86.5312 16.8657 86.5312 17.0976C86.5312 17.3296 86.6097 17.5301 86.7701 17.6993C86.9294 17.8684 87.1262 17.953 87.3604 17.953C87.5852 17.953 87.7759 17.8684 87.9364 17.6993C88.0956 17.5301 88.1752 17.3296 88.1752 17.0976C88.1752 16.8657 88.0956 16.6676 87.9364 16.5033C87.7759 16.339 87.5852 16.2568 87.3604 16.2568C87.1262 16.2568 86.9294 16.339 86.7701 16.5033Z" fill="black"/>
<path d="M86.2717 23.81C85.9485 24.0903 85.4591 24.2304 84.8034 24.2304H84.1289L84.3256 25.3612L85.1968 25.3757C85.609 25.3842 85.9813 25.3129 86.3127 25.1583C86.6464 25.0036 86.9274 24.791 87.1569 24.5204C87.3853 24.2498 87.5644 23.9308 87.6909 23.5636C87.8174 23.1963 87.8806 22.8 87.8806 22.3748V19.1274H86.7565V22.6502C86.7565 23.1431 86.5949 23.5297 86.2717 23.81Z" fill="black"/>
<path d="M98.8555 17.5036C98.8555 17.3006 98.9246 17.1266 99.0604 16.9817C99.1951 16.8367 99.3625 16.7642 99.5593 16.7642C99.756 16.7642 99.9211 16.8367 100.057 16.9817C100.194 17.1266 100.261 17.3006 100.261 17.5036C100.261 17.6969 100.194 17.8636 100.057 18.0037C99.9211 18.1439 99.756 18.2139 99.5593 18.2139C99.3625 18.2139 99.1951 18.1439 99.0604 18.0037C98.9246 17.8636 98.8555 17.6969 98.8555 17.5036Z" fill="black"/>
<path d="M96.9414 17.5036C96.9414 17.3006 97.0105 17.1266 97.1452 16.9817C97.281 16.8367 97.4531 16.7642 97.658 16.7642C97.8466 16.7642 98.007 16.8367 98.144 16.9817C98.2798 17.1266 98.3465 17.3006 98.3465 17.5036C98.3465 17.6969 98.2798 17.8636 98.144 18.0037C98.007 18.1439 97.8466 18.2139 97.658 18.2139C97.4531 18.2139 97.281 18.1439 97.1452 18.0037C97.0105 17.8636 96.9414 17.6969 96.9414 17.5036Z" fill="black"/>
<path d="M112.342 22.5777C111.797 22.5777 111.367 22.4352 111.049 22.1501C110.73 21.865 110.57 21.4023 110.57 20.7656V15.5176H111.638V20.5771C111.638 20.9432 111.712 21.1812 111.857 21.2875C112.002 21.3938 112.201 21.4457 112.454 21.4457L114.126 21.4462C114.303 21.4462 114.447 21.4257 114.554 21.381C114.662 21.3375 114.744 21.2795 114.8 21.2083C114.856 21.1346 114.892 21.0476 114.906 20.9461C114.92 20.8446 114.927 20.7359 114.927 20.6211V19.1279H116.023V20.7939C116.023 21.3351 115.894 21.7688 115.636 22.0914C115.378 22.4163 114.983 22.5782 114.448 22.5782H112.707C112.695 22.5782 112.684 22.5781 112.673 22.5777H112.342Z" fill="black"/>
<path d="M114.091 23.977C113.955 24.116 113.887 24.2839 113.887 24.476C113.887 24.6801 113.955 24.8529 114.091 24.9991C114.227 25.1441 114.398 25.2153 114.604 25.2153C114.79 25.2153 114.953 25.1441 115.089 24.9991C115.225 24.8529 115.293 24.6801 115.293 24.476C115.293 24.2839 115.225 24.116 115.089 23.977C114.953 23.8369 114.79 23.7656 114.604 23.7656C114.398 23.7656 114.227 23.8369 114.091 23.977Z" fill="black"/>
<path d="M112.294 23.977C112.158 24.116 112.09 24.2839 112.09 24.476C112.09 24.6801 112.158 24.8529 112.294 24.9991C112.429 25.1441 112.596 25.2153 112.791 25.2153C112.989 25.2153 113.155 25.1441 113.291 24.9991C113.426 24.8529 113.495 24.6801 113.495 24.476C113.495 24.2839 113.426 24.116 113.291 23.977C113.155 23.8369 112.989 23.7656 112.791 23.7656C112.596 23.7656 112.429 23.8369 112.294 23.977Z" fill="black"/>
<path d="M117.926 23.8092C118.248 23.5302 118.411 23.1424 118.411 22.6495V19.1279H119.535V22.3752C119.535 22.7993 119.471 23.1955 119.346 23.5628C119.219 23.9313 119.04 24.249 118.812 24.5196C118.582 24.7902 118.3 25.0004 117.967 25.1502C117.636 25.3 117.264 25.3749 116.851 25.3749L116.374 25.3604L116.191 24.2309H116.458C117.114 24.2309 117.603 24.0895 117.926 23.8092Z" fill="black"/>
<path d="M120.941 21.4615L121.08 22.5778H124.412C124.935 22.5778 125.332 22.4376 125.598 22.1562C125.865 21.8771 125.998 21.5437 125.998 21.1571C125.998 20.9432 125.954 20.727 125.865 20.5047C125.777 20.2824 125.642 20.0746 125.464 19.8813L123.075 17.2573L122.36 18.0112L124.763 20.6352C124.883 20.7705 124.945 20.9106 124.945 21.0556C124.945 21.1619 124.903 21.2561 124.818 21.3383C124.734 21.4204 124.608 21.4615 124.438 21.4615H120.941Z" fill="black"/>
<path fill-rule="evenodd" clip-rule="evenodd" d="M27.8148 13.8798C30 14.0444 34.4963 14.67 35 15.8553C34.7531 18.4542 33.8667 24.3009 32.2963 26.8974C30.3333 30.143 27.1111 33.0005 22 33.0005C16.8889 33.0005 13.6667 30.143 11.7037 26.8974C10.1333 24.3009 9.24691 18.4542 9 15.8553C9.5037 14.67 14 14.0444 16.1852 13.8798C16.3951 13.2918 17.0889 11.6078 18.1852 9.57579C19.2815 7.54377 20.7037 7.00049 22 7.00049C23.2963 7.00049 24.7185 7.54377 25.8148 9.57579C26.9111 11.6078 27.6049 13.2918 27.8148 13.8798ZM22 9.22301C22.7778 9.22301 23.6296 10.2814 23.963 10.8811C24.2296 11.3609 24.9259 12.939 25.2222 13.6681H18.7778C19.0741 12.939 19.7704 11.3609 20.037 10.8811C20.3704 10.2814 21.2222 9.22301 22 9.22301Z" fill="url(#paint0_linear_33471_33372)"/>
<path d="M54.0508 21.0258C54.0508 22.2337 55.0311 23.2141 56.2391 23.2141C57.4497 23.2141 58.43 22.2337 58.4273 21.0258V10.1888C58.4273 8.98081 57.447 8.00049 56.2391 8.00049C55.0311 8.00049 54.0508 8.98081 54.0508 10.1888V21.0258Z" fill="black"/>
<path d="M71.4815 21.0658H75.8313C77.0286 21.0658 78.0009 22.0354 77.9982 23.2354C77.9982 24.4326 77.0259 25.4049 75.8286 25.4049H70.3887C68.5835 25.4049 67.1211 23.9425 67.1211 22.1372V12.3502C67.1211 11.1449 68.0987 10.1699 69.3013 10.1699C70.5066 10.1699 71.4815 11.1476 71.4815 12.3502V21.0658Z" fill="black"/>
<path d="M47.53 14.4932C47.53 13.2879 48.5077 12.313 49.7103 12.313C50.9129 12.313 51.8905 13.2879 51.8879 14.4932V22.1375C51.8879 23.9428 50.4254 25.4052 48.6202 25.4052H43.1695C41.9723 25.4052 41 24.4329 41 23.2357C41 22.0384 41.9723 21.0661 43.1695 21.0661H47.53V14.4932Z" fill="black"/>
<path d="M62.7727 16.6548C61.5701 16.6548 60.5925 17.6297 60.5925 18.835V25.4079H56.232C55.0347 25.4079 54.0625 26.3802 54.0625 27.5774C54.0625 28.7747 55.0347 29.747 56.232 29.747H61.6826C63.4879 29.747 64.9503 28.2845 64.9503 26.4793V18.835C64.9503 17.6297 63.9754 16.6548 62.7727 16.6548Z" fill="black"/>
<path d="M62.7734 14.5307C63.9924 14.5307 64.9805 13.5426 64.9805 12.3237C64.9805 11.1048 63.9924 10.1167 62.7734 10.1167C61.5545 10.1167 60.5664 11.1048 60.5664 12.3237C60.5664 13.5426 61.5545 14.5307 62.7734 14.5307Z" fill="black"/>
<path d="M71.5391 29.728C71.5391 30.9469 70.551 31.935 69.3321 31.935C68.1131 31.935 67.125 30.9469 67.125 29.728C67.125 28.5091 68.1131 27.521 69.3321 27.521C70.551 27.521 71.5391 28.5091 71.5391 29.728Z" fill="black"/>
</g>
<defs>
<linearGradient id="paint0_linear_33471_33372" x1="22" y1="7.00049" x2="22" y2="33.0005" gradientUnits="userSpaceOnUse">
<stop stop-color="#8FC345"/>
<stop offset="1" stop-color="#118F4E"/>
</linearGradient>
<clipPath id="clip0_33471_33372">
<rect y="0.000488281" width="135" height="40" rx="3" fill="white"/>
</clipPath>
</defs>
</svg>
